{
  "title" : "",
  "description" : "",
  "author" : "",
  "targetLoudness" : -18.0,
  "shouldApplyLoudnessNormalization" : true,
  "videoFormatFrameRate" : 30,
  "audioFormatSampleRate" : 44100,
  "width" : 1280.0,
  "height" : 720.0,
  "version" : "3.0",
  "editRate" : 30,
  "authoringClientName" :  {
    "name" : "Camtasia",
    "platform" : "Windows",
    "version" : "19.0"
  },
  "sourceBin" : [
    {
      "id" : 1,
      "src" : "C:\\Dropbox\\UniversidadPython\\Videos\\01-00-Fundamentos\\06-00-Funciones\\06-04-00-ValoresDefaultParametros-UP.trec",
      "rect" : [0, 0, 1280, 720],
      "lastMod" : "20210406T190842",
      "sourceTracks" : [
        {
          "range" : [0, 10368],
          "type" : 0,
          "editRate" : 30,
          "trackRect" : [0, 0, 1280, 720],
          "sampleRate" : 29,
          "bitDepth" : 0,
          "numChannels" : 0,
          "integratedLUFS" : 100.0,
          "peakLevel" : -1.0,
          "metaData" : "2b7b6a00-7a1f-11e2-83d0-0017f200be7f;2b7b6aef-7a1f-11e2-83d0-0017f200be7f;2b7b6af0-7a1f-11e2-83d0-0017f200be7f;2b7b6af1-7a1f-11e2-83d0-0017f200be7f;2b7b6af2-7a1f-11e2-83d0-0017f200be7f;2b7b6af3-7a1f-11e2-83d0-0017f200be7f;2b7b6af5-7a1f-11e2-83d0-0017f200be7f;2b7b6af6-7a1f-11e2-83d0-0017f200be7f;2b7b6af7-7a1f-11e2-83d0-0017f200be7f;2b7b6af8-7a1f-11e2-83d0-0017f200be7f;2b7b6af9-7a1f-11e2-83d0-0017f200be7f;2b7b6afa-7a1f-11e2-83d0-0017f200be7f;"
        },
        {
          "range" : [0, 10367000],
          "type" : 0,
          "editRate" : 30000,
          "trackRect" : [0, 0, 1280, 720],
          "sampleRate" : 30,
          "bitDepth" : 0,
          "numChannels" : 0,
          "integratedLUFS" : 100.0,
          "peakLevel" : -1.0,
          "metaData" : ""
        },
        {
          "range" : [0, 15238144],
          "type" : 2,
          "editRate" : 44100,
          "trackRect" : [0, 0, 0, 0],
          "sampleRate" : 44100,
          "bitDepth" : 16,
          "numChannels" : 2,
          "integratedLUFS" : -17.4796647536074,
          "peakLevel" : 1.0,
          "metaData" : ""
        }
      ],
      "metadata" : {
        "timeAdded" : "20210428T190355.936413"
      }
    }
  ],
  "timeline" : {
    "id" : 2,
    "sceneTrack" : {
      "scenes" : [
        {
          "duration" : 267.066666666667,
          "title" : "",
          "type" : "",
          "csml" : {
            "tracks" : [
              {
                "trackIndex" : 0,
                "medias" : [
                  {
                    "id" : 3,
                    "_type" : "StitchedMedia",
                    "minMediaStart" : 0,
                    "attributes" : {
                      "ident" : "06-04-00-ValoresDefaultParametros-UP",
                      "gain" : 1.0,
                      "mixToMono" : false
                    },
                    "parameters" : {
                      "cursorOpacity" : {
                        "type" : "double",
                        "defaultValue" : 1.0,
                        "interp" : "linr"
                      },
                      "cursorScale" : {
                        "type" : "double",
                        "defaultValue" : 1.0,
                        "interp" : "linr"
                      }
                    },
                    "medias" : [
                        {
                          "id" : 4,
                          "_type" : "ScreenVMFile",
                          "src" : 1,
                          "trackNumber" : 0,
                          "attributes" : {
                            "ident" : "06-04-00-ValoresDefaultParametros-UP"
                          },
                          "parameters" : {
                            "cursorScale" : {
                              "type" : "double",
                              "defaultValue" : 0.0,
                              "interp" : "linr"
                            },
                            "cursorOpacity" : {
                              "type" : "double",
                              "defaultValue" : 0.0,
                              "interp" : "linr"
                            }
                          },
                          "effects" : [

                          ],
                          "start" : 0,
                          "duration" : 277,
                          "mediaStart" : 0,
                          "mediaDuration" : 277,
                          "scalar" : 1,
                          "metadata" : {
                            "AutoAppliedSmartFocus" : "False",
                            "clipSpeedAttribute" : false,
                            "effectApplied" : "none"
                          },
                          "animationTracks" : {

                          }
                        },
                        {
                          "id" : 5,
                          "_type" : "ScreenVMFile",
                          "src" : 1,
                          "trackNumber" : 0,
                          "attributes" : {
                            "ident" : "06-04-00-ValoresDefaultParametros-UP"
                          },
                          "parameters" : {
                            "cursorScale" : {
                              "type" : "double",
                              "defaultValue" : 0.0,
                              "interp" : "linr"
                            },
                            "cursorOpacity" : {
                              "type" : "double",
                              "defaultValue" : 0.0,
                              "interp" : "linr"
                            }
                          },
                          "effects" : [

                          ],
                          "start" : 277,
                          "duration" : 61,
                          "mediaStart" : 318,
                          "mediaDuration" : 61,
                          "scalar" : 1,
                          "metadata" : {
                            "AutoAppliedSmartFocus" : "False",
                            "clipSpeedAttribute" : false,
                            "effectApplied" : "none"
                          },
                          "animationTracks" : {

                          }
                        },
                        {
                          "id" : 6,
                          "_type" : "ScreenVMFile",
                          "src" : 1,
                          "trackNumber" : 0,
                          "attributes" : {
                            "ident" : "06-04-00-ValoresDefaultParametros-UP"
                          },
                          "parameters" : {
                            "cursorScale" : {
                              "type" : "double",
                              "defaultValue" : 0.0,
                              "interp" : "linr"
                            },
                            "cursorOpacity" : {
                              "type" : "double",
                              "defaultValue" : 0.0,
                              "interp" : "linr"
                            }
                          },
                          "effects" : [

                          ],
                          "start" : 338,
                          "duration" : 467,
                          "mediaStart" : 555,
                          "mediaDuration" : 467,
                          "scalar" : 1,
                          "metadata" : {
                            "AutoAppliedSmartFocus" : "False",
                            "clipSpeedAttribute" : false,
                            "effectApplied" : "none"
                          },
                          "animationTracks" : {

                          }
                        },
                        {
                          "id" : 7,
                          "_type" : "ScreenVMFile",
                          "src" : 1,
                          "trackNumber" : 0,
                          "attributes" : {
                            "ident" : "06-04-00-ValoresDefaultParametros-UP"
                          },
                          "parameters" : {
                            "cursorScale" : {
                              "type" : "double",
                              "defaultValue" : 0.0,
                              "interp" : "linr"
                            },
                            "cursorOpacity" : {
                              "type" : "double",
                              "defaultValue" : 0.0,
                              "interp" : "linr"
                            }
                          },
                          "effects" : [

                          ],
                          "start" : 805,
                          "duration" : 746,
                          "mediaStart" : 1155,
                          "mediaDuration" : 746,
                          "scalar" : 1,
                          "metadata" : {
                            "AutoAppliedSmartFocus" : "False",
                            "clipSpeedAttribute" : false,
                            "effectApplied" : "none"
                          },
                          "animationTracks" : {

                          }
                        },
                        {
                          "id" : 8,
                          "_type" : "ScreenVMFile",
                          "src" : 1,
                          "trackNumber" : 0,
                          "attributes" : {
                            "ident" : "06-04-00-ValoresDefaultParametros-UP"
                          },
                          "parameters" : {
                            "cursorScale" : {
                              "type" : "double",
                              "defaultValue" : 0.0,
                              "interp" : "linr"
                            },
                            "cursorOpacity" : {
                              "type" : "double",
                              "defaultValue" : 0.0,
                              "interp" : "linr"
                            }
                          },
                          "effects" : [

                          ],
                          "start" : 1551,
                          "duration" : 155,
                          "mediaStart" : 1907,
                          "mediaDuration" : 155,
                          "scalar" : 1,
                          "metadata" : {
                            "AutoAppliedSmartFocus" : "False",
                            "clipSpeedAttribute" : false,
                            "effectApplied" : "none"
                          },
                          "animationTracks" : {

                          }
                        },
                        {
                          "id" : 9,
                          "_type" : "ScreenVMFile",
                          "src" : 1,
                          "trackNumber" : 0,
                          "attributes" : {
                            "ident" : "06-04-00-ValoresDefaultParametros-UP"
                          },
                          "parameters" : {
                            "cursorScale" : {
                              "type" : "double",
                              "defaultValue" : 0.0,
                              "interp" : "linr"
                            },
                            "cursorOpacity" : {
                              "type" : "double",
                              "defaultValue" : 0.0,
                              "interp" : "linr"
                            }
                          },
                          "effects" : [

                          ],
                          "start" : 1706,
                          "duration" : 159,
                          "mediaStart" : 2081,
                          "mediaDuration" : 159,
                          "scalar" : 1,
                          "metadata" : {
                            "AutoAppliedSmartFocus" : "False",
                            "clipSpeedAttribute" : false,
                            "effectApplied" : "none"
                          },
                          "animationTracks" : {

                          }
                        },
                        {
                          "id" : 10,
                          "_type" : "ScreenVMFile",
                          "src" : 1,
                          "trackNumber" : 0,
                          "attributes" : {
                            "ident" : "06-04-00-ValoresDefaultParametros-UP"
                          },
                          "parameters" : {
                            "cursorScale" : {
                              "type" : "double",
                              "defaultValue" : 0.0,
                              "interp" : "linr"
                            },
                            "cursorOpacity" : {
                              "type" : "double",
                              "defaultValue" : 0.0,
                              "interp" : "linr"
                            }
                          },
                          "effects" : [

                          ],
                          "start" : 1865,
                          "duration" : 261,
                          "mediaStart" : 2287,
                          "mediaDuration" : 261,
                          "scalar" : 1,
                          "metadata" : {
                            "AutoAppliedSmartFocus" : "False",
                            "clipSpeedAttribute" : false,
                            "effectApplied" : "none"
                          },
                          "animationTracks" : {

                          }
                        },
                        {
                          "id" : 11,
                          "_type" : "ScreenVMFile",
                          "src" : 1,
                          "trackNumber" : 0,
                          "attributes" : {
                            "ident" : "06-04-00-ValoresDefaultParametros-UP"
                          },
                          "parameters" : {
                            "cursorScale" : {
                              "type" : "double",
                              "defaultValue" : 0.0,
                              "interp" : "linr"
                            },
                            "cursorOpacity" : {
                              "type" : "double",
                              "defaultValue" : 0.0,
                              "interp" : "linr"
                            }
                          },
                          "effects" : [

                          ],
                          "start" : 2126,
                          "duration" : 120,
                          "mediaStart" : 2872,
                          "mediaDuration" : 120,
                          "scalar" : 1,
                          "metadata" : {
                            "AutoAppliedSmartFocus" : "False",
                            "clipSpeedAttribute" : false,
                            "effectApplied" : "none"
                          },
                          "animationTracks" : {

                          }
                        },
                        {
                          "id" : 12,
                          "_type" : "ScreenVMFile",
                          "src" : 1,
                          "trackNumber" : 0,
                          "attributes" : {
                            "ident" : "06-04-00-ValoresDefaultParametros-UP"
                          },
                          "parameters" : {
                            "cursorScale" : {
                              "type" : "double",
                              "defaultValue" : 0.0,
                              "interp" : "linr"
                            },
                            "cursorOpacity" : {
                              "type" : "double",
                              "defaultValue" : 0.0,
                              "interp" : "linr"
                            }
                          },
                          "effects" : [

                          ],
                          "start" : 2246,
                          "duration" : 49,
                          "mediaStart" : 3093,
                          "mediaDuration" : 49,
                          "scalar" : 1,
                          "metadata" : {
                            "AutoAppliedSmartFocus" : "False",
                            "clipSpeedAttribute" : false,
                            "effectApplied" : "none"
                          },
                          "animationTracks" : {

                          }
                        },
                        {
                          "id" : 13,
                          "_type" : "ScreenVMFile",
                          "src" : 1,
                          "trackNumber" : 0,
                          "attributes" : {
                            "ident" : "06-04-00-ValoresDefaultParametros-UP"
                          },
                          "parameters" : {
                            "cursorScale" : {
                              "type" : "double",
                              "defaultValue" : 0.0,
                              "interp" : "linr"
                            },
                            "cursorOpacity" : {
                              "type" : "double",
                              "defaultValue" : 0.0,
                              "interp" : "linr"
                            }
                          },
                          "effects" : [

                          ],
                          "start" : 2295,
                          "duration" : 42,
                          "mediaStart" : 3251,
                          "mediaDuration" : 42,
                          "scalar" : 1,
                          "metadata" : {
                            "AutoAppliedSmartFocus" : "False",
                            "clipSpeedAttribute" : false,
                            "effectApplied" : "none"
                          },
                          "animationTracks" : {

                          }
                        },
                        {
                          "id" : 14,
                          "_type" : "ScreenVMFile",
                          "src" : 1,
                          "trackNumber" : 0,
                          "attributes" : {
                            "ident" : "06-04-00-ValoresDefaultParametros-UP"
                          },
                          "parameters" : {
                            "cursorScale" : {
                              "type" : "double",
                              "defaultValue" : 0.0,
                              "interp" : "linr"
                            },
                            "cursorOpacity" : {
                              "type" : "double",
                              "defaultValue" : 0.0,
                              "interp" : "linr"
                            }
                          },
                          "effects" : [

                          ],
                          "start" : 2337,
                          "duration" : 70,
                          "mediaStart" : 3327,
                          "mediaDuration" : 70,
                          "scalar" : 1,
                          "metadata" : {
                            "AutoAppliedSmartFocus" : "False",
                            "clipSpeedAttribute" : false,
                            "effectApplied" : "none"
                          },
                          "animationTracks" : {

                          }
                        },
                        {
                          "id" : 15,
                          "_type" : "ScreenVMFile",
                          "src" : 1,
                          "trackNumber" : 0,
                          "attributes" : {
                            "ident" : "06-04-00-ValoresDefaultParametros-UP"
                          },
                          "parameters" : {
                            "cursorScale" : {
                              "type" : "double",
                              "defaultValue" : 0.0,
                              "interp" : "linr"
                            },
                            "cursorOpacity" : {
                              "type" : "double",
                              "defaultValue" : 0.0,
                              "interp" : "linr"
                            }
                          },
                          "effects" : [

                          ],
                          "start" : 2407,
                          "duration" : 73,
                          "mediaStart" : 3415,
                          "mediaDuration" : 73,
                          "scalar" : 1,
                          "metadata" : {
                            "AutoAppliedSmartFocus" : "False",
                            "clipSpeedAttribute" : false,
                            "effectApplied" : "none"
                          },
                          "animationTracks" : {

                          }
                        },
                        {
                          "id" : 16,
                          "_type" : "ScreenVMFile",
                          "src" : 1,
                          "trackNumber" : 0,
                          "attributes" : {
                            "ident" : "06-04-00-ValoresDefaultParametros-UP"
                          },
                          "parameters" : {
                            "cursorScale" : {
                              "type" : "double",
                              "defaultValue" : 0.0,
                              "interp" : "linr"
                            },
                            "cursorOpacity" : {
                              "type" : "double",
                              "defaultValue" : 0.0,
                              "interp" : "linr"
                            }
                          },
                          "effects" : [

                          ],
                          "start" : 2480,
                          "duration" : 732,
                          "mediaStart" : 3557,
                          "mediaDuration" : 732,
                          "scalar" : 1,
                          "metadata" : {
                            "AutoAppliedSmartFocus" : "False",
                            "clipSpeedAttribute" : false,
                            "effectApplied" : "none"
                          },
                          "animationTracks" : {

                          }
                        },
                        {
                          "id" : 17,
                          "_type" : "ScreenVMFile",
                          "src" : 1,
                          "trackNumber" : 0,
                          "attributes" : {
                            "ident" : "06-04-00-ValoresDefaultParametros-UP"
                          },
                          "parameters" : {
                            "cursorScale" : {
                              "type" : "double",
                              "defaultValue" : 0.0,
                              "interp" : "linr"
                            },
                            "cursorOpacity" : {
                              "type" : "double",
                              "defaultValue" : 0.0,
                              "interp" : "linr"
                            }
                          },
                          "effects" : [

                          ],
                          "start" : 3212,
                          "duration" : 147,
                          "mediaStart" : 4322,
                          "mediaDuration" : 147,
                          "scalar" : 1,
                          "metadata" : {
                            "AutoAppliedSmartFocus" : "False",
                            "clipSpeedAttribute" : false,
                            "effectApplied" : "none"
                          },
                          "animationTracks" : {

                          }
                        },
                        {
                          "id" : 18,
                          "_type" : "ScreenVMFile",
                          "src" : 1,
                          "trackNumber" : 0,
                          "attributes" : {
                            "ident" : "06-04-00-ValoresDefaultParametros-UP"
                          },
                          "parameters" : {
                            "cursorScale" : {
                              "type" : "double",
                              "defaultValue" : 0.0,
                              "interp" : "linr"
                            },
                            "cursorOpacity" : {
                              "type" : "double",
                              "defaultValue" : 0.0,
                              "interp" : "linr"
                            }
                          },
                          "effects" : [

                          ],
                          "start" : 3359,
                          "duration" : 76,
                          "mediaStart" : 4566,
                          "mediaDuration" : 76,
                          "scalar" : 1,
                          "metadata" : {
                            "AutoAppliedSmartFocus" : "False",
                            "clipSpeedAttribute" : false,
                            "effectApplied" : "none"
                          },
                          "animationTracks" : {

                          }
                        },
                        {
                          "id" : 19,
                          "_type" : "ScreenVMFile",
                          "src" : 1,
                          "trackNumber" : 0,
                          "attributes" : {
                            "ident" : "06-04-00-ValoresDefaultParametros-UP"
                          },
                          "parameters" : {
                            "cursorScale" : {
                              "type" : "double",
                              "defaultValue" : 0.0,
                              "interp" : "linr"
                            },
                            "cursorOpacity" : {
                              "type" : "double",
                              "defaultValue" : 0.0,
                              "interp" : "linr"
                            }
                          },
                          "effects" : [

                          ],
                          "start" : 3435,
                          "duration" : 16,
                          "mediaStart" : 4659,
                          "mediaDuration" : 16,
                          "scalar" : 1,
                          "metadata" : {
                            "AutoAppliedSmartFocus" : "False",
                            "clipSpeedAttribute" : false,
                            "effectApplied" : "none"
                          },
                          "animationTracks" : {

                          }
                        },
                        {
                          "id" : 20,
                          "_type" : "ScreenVMFile",
                          "src" : 1,
                          "trackNumber" : 0,
                          "attributes" : {
                            "ident" : "06-04-00-ValoresDefaultParametros-UP"
                          },
                          "parameters" : {
                            "cursorScale" : {
                              "type" : "double",
                              "defaultValue" : 0.0,
                              "interp" : "linr"
                            },
                            "cursorOpacity" : {
                              "type" : "double",
                              "defaultValue" : 0.0,
                              "interp" : "linr"
                            }
                          },
                          "effects" : [

                          ],
                          "start" : 3451,
                          "duration" : 153,
                          "mediaStart" : 4685,
                          "mediaDuration" : 153,
                          "scalar" : 1,
                          "metadata" : {
                            "AutoAppliedSmartFocus" : "False",
                            "clipSpeedAttribute" : false,
                            "effectApplied" : "none"
                          },
                          "animationTracks" : {

                          }
                        },
                        {
                          "id" : 21,
                          "_type" : "ScreenVMFile",
                          "src" : 1,
                          "trackNumber" : 0,
                          "attributes" : {
                            "ident" : "06-04-00-ValoresDefaultParametros-UP"
                          },
                          "parameters" : {
                            "cursorScale" : {
                              "type" : "double",
                              "defaultValue" : 0.0,
                              "interp" : "linr"
                            },
                            "cursorOpacity" : {
                              "type" : "double",
                              "defaultValue" : 0.0,
                              "interp" : "linr"
                            }
                          },
                          "effects" : [

                          ],
                          "start" : 3604,
                          "duration" : 87,
                          "mediaStart" : 5018,
                          "mediaDuration" : 87,
                          "scalar" : 1,
                          "metadata" : {
                            "AutoAppliedSmartFocus" : "False",
                            "clipSpeedAttribute" : false,
                            "effectApplied" : "none"
                          },
                          "animationTracks" : {

                          }
                        },
                        {
                          "id" : 22,
                          "_type" : "ScreenVMFile",
                          "src" : 1,
                          "trackNumber" : 0,
                          "attributes" : {
                            "ident" : "06-04-00-ValoresDefaultParametros-UP"
                          },
                          "parameters" : {
                            "cursorScale" : {
                              "type" : "double",
                              "defaultValue" : 0.0,
                              "interp" : "linr"
                            },
                            "cursorOpacity" : {
                              "type" : "double",
                              "defaultValue" : 0.0,
                              "interp" : "linr"
                            }
                          },
                          "effects" : [

                          ],
                          "start" : 3691,
                          "duration" : 361,
                          "mediaStart" : 5164,
                          "mediaDuration" : 361,
                          "scalar" : 1,
                          "metadata" : {
                            "AutoAppliedSmartFocus" : "False",
                            "clipSpeedAttribute" : false,
                            "effectApplied" : "none"
                          },
                          "animationTracks" : {

                          }
                        },
                        {
                          "id" : 23,
                          "_type" : "ScreenVMFile",
                          "src" : 1,
                          "trackNumber" : 0,
                          "attributes" : {
                            "ident" : "06-04-00-ValoresDefaultParametros-UP"
                          },
                          "parameters" : {
                            "cursorScale" : {
                              "type" : "double",
                              "defaultValue" : 0.0,
                              "interp" : "linr"
                            },
                            "cursorOpacity" : {
                              "type" : "double",
                              "defaultValue" : 0.0,
                              "interp" : "linr"
                            }
                          },
                          "effects" : [

                          ],
                          "start" : 4052,
                          "duration" : 130,
                          "mediaStart" : 5663,
                          "mediaDuration" : 130,
                          "scalar" : 1,
                          "metadata" : {
                            "AutoAppliedSmartFocus" : "False",
                            "clipSpeedAttribute" : false,
                            "effectApplied" : "none"
                          },
                          "animationTracks" : {

                          }
                        },
                        {
                          "id" : 24,
                          "_type" : "ScreenVMFile",
                          "src" : 1,
                          "trackNumber" : 0,
                          "attributes" : {
                            "ident" : "06-04-00-ValoresDefaultParametros-UP"
                          },
                          "parameters" : {
                            "cursorScale" : {
                              "type" : "double",
                              "defaultValue" : 0.0,
                              "interp" : "linr"
                            },
                            "cursorOpacity" : {
                              "type" : "double",
                              "defaultValue" : 0.0,
                              "interp" : "linr"
                            }
                          },
                          "effects" : [

                          ],
                          "start" : 4182,
                          "duration" : 297,
                          "mediaStart" : 5826,
                          "mediaDuration" : 297,
                          "scalar" : 1,
                          "metadata" : {
                            "AutoAppliedSmartFocus" : "False",
                            "clipSpeedAttribute" : false,
                            "effectApplied" : "none"
                          },
                          "animationTracks" : {

                          }
                        },
                        {
                          "id" : 25,
                          "_type" : "ScreenVMFile",
                          "src" : 1,
                          "trackNumber" : 0,
                          "attributes" : {
                            "ident" : "06-04-00-ValoresDefaultParametros-UP"
                          },
                          "parameters" : {
                            "cursorScale" : {
                              "type" : "double",
                              "defaultValue" : 0.0,
                              "interp" : "linr"
                            },
                            "cursorOpacity" : {
                              "type" : "double",
                              "defaultValue" : 0.0,
                              "interp" : "linr"
                            }
                          },
                          "effects" : [

                          ],
                          "start" : 4479,
                          "duration" : 55,
                          "mediaStart" : 6243,
                          "mediaDuration" : 55,
                          "scalar" : 1,
                          "metadata" : {
                            "AutoAppliedSmartFocus" : "False",
                            "clipSpeedAttribute" : false,
                            "effectApplied" : "none"
                          },
                          "animationTracks" : {

                          }
                        },
                        {
                          "id" : 26,
                          "_type" : "ScreenVMFile",
                          "src" : 1,
                          "trackNumber" : 0,
                          "attributes" : {
                            "ident" : "06-04-00-ValoresDefaultParametros-UP"
                          },
                          "parameters" : {
                            "cursorScale" : {
                              "type" : "double",
                              "defaultValue" : 0.0,
                              "interp" : "linr"
                            },
                            "cursorOpacity" : {
                              "type" : "double",
                              "defaultValue" : 0.0,
                              "interp" : "linr"
                            }
                          },
                          "effects" : [

                          ],
                          "start" : 4534,
                          "duration" : 320,
                          "mediaStart" : 6342,
                          "mediaDuration" : 320,
                          "scalar" : 1,
                          "metadata" : {
                            "AutoAppliedSmartFocus" : "False",
                            "clipSpeedAttribute" : false,
                            "effectApplied" : "none"
                          },
                          "animationTracks" : {

                          }
                        },
                        {
                          "id" : 27,
                          "_type" : "ScreenVMFile",
                          "src" : 1,
                          "trackNumber" : 0,
                          "attributes" : {
                            "ident" : "06-04-00-ValoresDefaultParametros-UP"
                          },
                          "parameters" : {
                            "cursorScale" : {
                              "type" : "double",
                              "defaultValue" : 0.0,
                              "interp" : "linr"
                            },
                            "cursorOpacity" : {
                              "type" : "double",
                              "defaultValue" : 0.0,
                              "interp" : "linr"
                            }
                          },
                          "effects" : [

                          ],
                          "start" : 4854,
                          "duration" : 8,
                          "mediaStart" : 6679,
                          "mediaDuration" : 8,
                          "scalar" : 1,
                          "metadata" : {
                            "AutoAppliedSmartFocus" : "False",
                            "clipSpeedAttribute" : false,
                            "effectApplied" : "none"
                          },
                          "animationTracks" : {

                          }
                        },
                        {
                          "id" : 28,
                          "_type" : "ScreenVMFile",
                          "src" : 1,
                          "trackNumber" : 0,
                          "attributes" : {
                            "ident" : "06-04-00-ValoresDefaultParametros-UP"
                          },
                          "parameters" : {
                            "cursorScale" : {
                              "type" : "double",
                              "defaultValue" : 0.0,
                              "interp" : "linr"
                            },
                            "cursorOpacity" : {
                              "type" : "double",
                              "defaultValue" : 0.0,
                              "interp" : "linr"
                            }
                          },
                          "effects" : [

                          ],
                          "start" : 4862,
                          "duration" : 91,
                          "mediaStart" : 6692,
                          "mediaDuration" : 91,
                          "scalar" : 1,
                          "metadata" : {
                            "AutoAppliedSmartFocus" : "False",
                            "clipSpeedAttribute" : false,
                            "effectApplied" : "none"
                          },
                          "animationTracks" : {

                          }
                        },
                        {
                          "id" : 29,
                          "_type" : "ScreenVMFile",
                          "src" : 1,
                          "trackNumber" : 0,
                          "attributes" : {
                            "ident" : "06-04-00-ValoresDefaultParametros-UP"
                          },
                          "parameters" : {
                            "cursorScale" : {
                              "type" : "double",
                              "defaultValue" : 0.0,
                              "interp" : "linr"
                            },
                            "cursorOpacity" : {
                              "type" : "double",
                              "defaultValue" : 0.0,
                              "interp" : "linr"
                            }
                          },
                          "effects" : [

                          ],
                          "start" : 4953,
                          "duration" : 338,
                          "mediaStart" : 6793,
                          "mediaDuration" : 338,
                          "scalar" : 1,
                          "metadata" : {
                            "AutoAppliedSmartFocus" : "False",
                            "clipSpeedAttribute" : false,
                            "effectApplied" : "none"
                          },
                          "animationTracks" : {

                          }
                        },
                        {
                          "id" : 30,
                          "_type" : "ScreenVMFile",
                          "src" : 1,
                          "trackNumber" : 0,
                          "attributes" : {
                            "ident" : "06-04-00-ValoresDefaultParametros-UP"
                          },
                          "parameters" : {
                            "cursorScale" : {
                              "type" : "double",
                              "defaultValue" : 0.0,
                              "interp" : "linr"
                            },
                            "cursorOpacity" : {
                              "type" : "double",
                              "defaultValue" : 0.0,
                              "interp" : "linr"
                            }
                          },
                          "effects" : [

                          ],
                          "start" : 5291,
                          "duration" : 286,
                          "mediaStart" : 7169,
                          "mediaDuration" : 286,
                          "scalar" : 1,
                          "metadata" : {
                            "AutoAppliedSmartFocus" : "False",
                            "clipSpeedAttribute" : false,
                            "effectApplied" : "none"
                          },
                          "animationTracks" : {

                          }
                        },
                        {
                          "id" : 31,
                          "_type" : "ScreenVMFile",
                          "src" : 1,
                          "trackNumber" : 0,
                          "attributes" : {
                            "ident" : "06-04-00-ValoresDefaultParametros-UP"
                          },
                          "parameters" : {
                            "cursorScale" : {
                              "type" : "double",
                              "defaultValue" : 0.0,
                              "interp" : "linr"
                            },
                            "cursorOpacity" : {
                              "type" : "double",
                              "defaultValue" : 0.0,
                              "interp" : "linr"
                            }
                          },
                          "effects" : [

                          ],
                          "start" : 5577,
                          "duration" : 35,
                          "mediaStart" : 7471,
                          "mediaDuration" : 35,
                          "scalar" : 1,
                          "metadata" : {
                            "AutoAppliedSmartFocus" : "False",
                            "clipSpeedAttribute" : false,
                            "effectApplied" : "none"
                          },
                          "animationTracks" : {

                          }
                        },
                        {
                          "id" : 32,
                          "_type" : "ScreenVMFile",
                          "src" : 1,
                          "trackNumber" : 0,
                          "attributes" : {
                            "ident" : "06-04-00-ValoresDefaultParametros-UP"
                          },
                          "parameters" : {
                            "cursorScale" : {
                              "type" : "double",
                              "defaultValue" : 0.0,
                              "interp" : "linr"
                            },
                            "cursorOpacity" : {
                              "type" : "double",
                              "defaultValue" : 0.0,
                              "interp" : "linr"
                            }
                          },
                          "effects" : [

                          ],
                          "start" : 5612,
                          "duration" : 590,
                          "mediaStart" : 7517,
                          "mediaDuration" : 590,
                          "scalar" : 1,
                          "metadata" : {
                            "AutoAppliedSmartFocus" : "False",
                            "clipSpeedAttribute" : false,
                            "effectApplied" : "none"
                          },
                          "animationTracks" : {

                          }
                        },
                        {
                          "id" : 33,
                          "_type" : "ScreenVMFile",
                          "src" : 1,
                          "trackNumber" : 0,
                          "attributes" : {
                            "ident" : "06-04-00-ValoresDefaultParametros-UP"
                          },
                          "parameters" : {
                            "cursorScale" : {
                              "type" : "double",
                              "defaultValue" : 0.0,
                              "interp" : "linr"
                            },
                            "cursorOpacity" : {
                              "type" : "double",
                              "defaultValue" : 0.0,
                              "interp" : "linr"
                            }
                          },
                          "effects" : [

                          ],
                          "start" : 6202,
                          "duration" : 171,
                          "mediaStart" : 8121,
                          "mediaDuration" : 171,
                          "scalar" : 1,
                          "metadata" : {
                            "AutoAppliedSmartFocus" : "False",
                            "clipSpeedAttribute" : false,
                            "effectApplied" : "none"
                          },
                          "animationTracks" : {

                          }
                        },
                        {
                          "id" : 34,
                          "_type" : "ScreenVMFile",
                          "src" : 1,
                          "trackNumber" : 0,
                          "attributes" : {
                            "ident" : "06-04-00-ValoresDefaultParametros-UP"
                          },
                          "parameters" : {
                            "cursorScale" : {
                              "type" : "double",
                              "defaultValue" : 0.0,
                              "interp" : "linr"
                            },
                            "cursorOpacity" : {
                              "type" : "double",
                              "defaultValue" : 0.0,
                              "interp" : "linr"
                            }
                          },
                          "effects" : [

                          ],
                          "start" : 6373,
                          "duration" : 54,
                          "mediaStart" : 8306,
                          "mediaDuration" : 54,
                          "scalar" : 1,
                          "metadata" : {
                            "AutoAppliedSmartFocus" : "False",
                            "clipSpeedAttribute" : false,
                            "effectApplied" : "none"
                          },
                          "animationTracks" : {

                          }
                        },
                        {
                          "id" : 35,
                          "_type" : "ScreenVMFile",
                          "src" : 1,
                          "trackNumber" : 0,
                          "attributes" : {
                            "ident" : "06-04-00-ValoresDefaultParametros-UP"
                          },
                          "parameters" : {
                            "cursorScale" : {
                              "type" : "double",
                              "defaultValue" : 0.0,
                              "interp" : "linr"
                            },
                            "cursorOpacity" : {
                              "type" : "double",
                              "defaultValue" : 0.0,
                              "interp" : "linr"
                            }
                          },
                          "effects" : [

                          ],
                          "start" : 6427,
                          "duration" : 371,
                          "mediaStart" : 8501,
                          "mediaDuration" : 371,
                          "scalar" : 1,
                          "metadata" : {
                            "AutoAppliedSmartFocus" : "False",
                            "clipSpeedAttribute" : false,
                            "effectApplied" : "none"
                          },
                          "animationTracks" : {

                          }
                        },
                        {
                          "id" : 36,
                          "_type" : "ScreenVMFile",
                          "src" : 1,
                          "trackNumber" : 0,
                          "attributes" : {
                            "ident" : "06-04-00-ValoresDefaultParametros-UP"
                          },
                          "parameters" : {
                            "cursorScale" : {
                              "type" : "double",
                              "defaultValue" : 0.0,
                              "interp" : "linr"
                            },
                            "cursorOpacity" : {
                              "type" : "double",
                              "defaultValue" : 0.0,
                              "interp" : "linr"
                            }
                          },
                          "effects" : [

                          ],
                          "start" : 6798,
                          "duration" : 40,
                          "mediaStart" : 8893,
                          "mediaDuration" : 40,
                          "scalar" : 1,
                          "metadata" : {
                            "AutoAppliedSmartFocus" : "False",
                            "clipSpeedAttribute" : false,
                            "effectApplied" : "none"
                          },
                          "animationTracks" : {

                          }
                        },
                        {
                          "id" : 37,
                          "_type" : "ScreenVMFile",
                          "src" : 1,
                          "trackNumber" : 0,
                          "attributes" : {
                            "ident" : "06-04-00-ValoresDefaultParametros-UP"
                          },
                          "parameters" : {
                            "cursorScale" : {
                              "type" : "double",
                              "defaultValue" : 0.0,
                              "interp" : "linr"
                            },
                            "cursorOpacity" : {
                              "type" : "double",
                              "defaultValue" : 0.0,
                              "interp" : "linr"
                            }
                          },
                          "effects" : [

                          ],
                          "start" : 6838,
                          "duration" : 82,
                          "mediaStart" : 8966,
                          "mediaDuration" : 82,
                          "scalar" : 1,
                          "metadata" : {
                            "AutoAppliedSmartFocus" : "False",
                            "clipSpeedAttribute" : false,
                            "effectApplied" : "none"
                          },
                          "animationTracks" : {

                          }
                        },
                        {
                          "id" : 38,
                          "_type" : "ScreenVMFile",
                          "src" : 1,
                          "trackNumber" : 0,
                          "attributes" : {
                            "ident" : "06-04-00-ValoresDefaultParametros-UP"
                          },
                          "parameters" : {
                            "cursorScale" : {
                              "type" : "double",
                              "defaultValue" : 0.0,
                              "interp" : "linr"
                            },
                            "cursorOpacity" : {
                              "type" : "double",
                              "defaultValue" : 0.0,
                              "interp" : "linr"
                            }
                          },
                          "effects" : [

                          ],
                          "start" : 6920,
                          "duration" : 50,
                          "mediaStart" : 9062,
                          "mediaDuration" : 50,
                          "scalar" : 1,
                          "metadata" : {
                            "AutoAppliedSmartFocus" : "False",
                            "clipSpeedAttribute" : false,
                            "effectApplied" : "none"
                          },
                          "animationTracks" : {

                          }
                        },
                        {
                          "id" : 39,
                          "_type" : "ScreenVMFile",
                          "src" : 1,
                          "trackNumber" : 0,
                          "attributes" : {
                            "ident" : "06-04-00-ValoresDefaultParametros-UP"
                          },
                          "parameters" : {
                            "cursorScale" : {
                              "type" : "double",
                              "defaultValue" : 0.0,
                              "interp" : "linr"
                            },
                            "cursorOpacity" : {
                              "type" : "double",
                              "defaultValue" : 0.0,
                              "interp" : "linr"
                            }
                          },
                          "effects" : [

                          ],
                          "start" : 6970,
                          "duration" : 342,
                          "mediaStart" : 9120,
                          "mediaDuration" : 342,
                          "scalar" : 1,
                          "metadata" : {
                            "AutoAppliedSmartFocus" : "False",
                            "clipSpeedAttribute" : false,
                            "effectApplied" : "none"
                          },
                          "animationTracks" : {

                          }
                        },
                        {
                          "id" : 40,
                          "_type" : "ScreenVMFile",
                          "src" : 1,
                          "trackNumber" : 0,
                          "attributes" : {
                            "ident" : "06-04-00-ValoresDefaultParametros-UP"
                          },
                          "parameters" : {
                            "cursorScale" : {
                              "type" : "double",
                              "defaultValue" : 0.0,
                              "interp" : "linr"
                            },
                            "cursorOpacity" : {
                              "type" : "double",
                              "defaultValue" : 0.0,
                              "interp" : "linr"
                            }
                          },
                          "effects" : [

                          ],
                          "start" : 7312,
                          "duration" : 232,
                          "mediaStart" : 9496,
                          "mediaDuration" : 232,
                          "scalar" : 1,
                          "metadata" : {
                            "AutoAppliedSmartFocus" : "False",
                            "clipSpeedAttribute" : false,
                            "effectApplied" : "none"
                          },
                          "animationTracks" : {

                          }
                        },
                        {
                          "id" : 41,
                          "_type" : "ScreenVMFile",
                          "src" : 1,
                          "trackNumber" : 0,
                          "attributes" : {
                            "ident" : "06-04-00-ValoresDefaultParametros-UP"
                          },
                          "parameters" : {
                            "cursorScale" : {
                              "type" : "double",
                              "defaultValue" : 0.0,
                              "interp" : "linr"
                            },
                            "cursorOpacity" : {
                              "type" : "double",
                              "defaultValue" : 0.0,
                              "interp" : "linr"
                            }
                          },
                          "effects" : [

                          ],
                          "start" : 7544,
                          "duration" : 12,
                          "mediaStart" : 9741,
                          "mediaDuration" : 12,
                          "scalar" : 1,
                          "metadata" : {
                            "AutoAppliedSmartFocus" : "False",
                            "clipSpeedAttribute" : false,
                            "effectApplied" : "none"
                          },
                          "animationTracks" : {

                          }
                        },
                        {
                          "id" : 42,
                          "_type" : "ScreenVMFile",
                          "src" : 1,
                          "trackNumber" : 0,
                          "attributes" : {
                            "ident" : "06-04-00-ValoresDefaultParametros-UP"
                          },
                          "parameters" : {
                            "cursorScale" : {
                              "type" : "double",
                              "defaultValue" : 0.0,
                              "interp" : "linr"
                            },
                            "cursorOpacity" : {
                              "type" : "double",
                              "defaultValue" : 0.0,
                              "interp" : "linr"
                            }
                          },
                          "effects" : [

                          ],
                          "start" : 7556,
                          "duration" : 560,
                          "mediaStart" : 9808,
                          "mediaDuration" : 560,
                          "scalar" : 1,
                          "metadata" : {
                            "AutoAppliedSmartFocus" : "False",
                            "clipSpeedAttribute" : false,
                            "effectApplied" : "none"
                          },
                          "animationTracks" : {

                          }
                        }
                    ],
                    "effects" : [

                    ],
                    "start" : 0,
                    "duration" : 8012,
                    "mediaStart" : 59,
                    "mediaDuration" : 8012,
                    "scalar" : 1,
                    "metadata" : {
                      "AutoAppliedSmartFocus" : "False",
                      "clipSpeedAttribute" : false,
                      "effectApplied" : "none"
                    },
                    "animationTracks" : {

                    }
                  }
                ],
                "transitions" : [
                  {
                    "name" : "FadeThroughBlack",
                    "duration" : 30,
                    "trivial" : false,
                    "reverse" : false,
                    "useAudioPreRoll" : true,
                    "useVisualPreRoll" : true,
                    "leftMedia" : 3
                  }
                ]
              },
              {
                "trackIndex" : 1,
                "medias" : [
                  {
                    "id" : 43,
                    "_type" : "StitchedMedia",
                    "minMediaStart" : 0,
                    "attributes" : {
                      "ident" : "06-04-00-ValoresDefaultParametros-UP",
                      "gain" : 1.0,
                      "mixToMono" : false
                    },
                    "parameters" : {
                      "translation0" : {
                        "type" : "double",
                        "defaultValue" : 513.999999999621,
                        "interp" : "eioe"
                      },
                      "translation1" : {
                        "type" : "double",
                        "defaultValue" : -216.000000000099,
                        "interp" : "eioe"
                      },
                      "rotation1" : {
                        "type" : "double",
                        "defaultValue" : 3.14159265358979,
                        "interp" : "eioe"
                      },
                      "scale0" : {
                        "type" : "double",
                        "defaultValue" : 0.4,
                        "interp" : "eioe"
                      },
                      "scale1" : {
                        "type" : "double",
                        "defaultValue" : 0.4,
                        "interp" : "eioe"
                      },
                      "geometryCrop0" : {
                        "type" : "double",
                        "defaultValue" : 324.999999998615,
                        "interp" : "linr"
                      },
                      "geometryCrop1" : {
                        "type" : "double",
                        "defaultValue" : 32.5000000001732,
                        "interp" : "linr"
                      },
                      "geometryCrop2" : {
                        "type" : "double",
                        "defaultValue" : 210.00000000113,
                        "interp" : "linr"
                      },
                      "volume" : {
                        "type" : "double",
                        "keyframes" : [
                          {
                            "endTime" : 0,
                            "time" : 0,
                            "value" : 1.0,
                            "duration" : 0
                          },
                          {
                            "endTime" : 2407,
                            "time" : 2407,
                            "value" : 1.0,
                            "duration" : 0
                          },
                          {
                            "endTime" : 2408,
                            "time" : 2408,
                            "value" : 0.0,
                            "duration" : 0
                          },
                          {
                            "endTime" : 2416,
                            "time" : 2416,
                            "value" : 0.0,
                            "duration" : 0
                          },
                          {
                            "endTime" : 2417,
                            "time" : 2417,
                            "value" : 1.0,
                            "duration" : 0
                          },
                          {
                            "endTime" : 2754,
                            "time" : 2754,
                            "value" : 1.0,
                            "duration" : 0
                          },
                          {
                            "endTime" : 2755,
                            "time" : 2755,
                            "value" : 0.0,
                            "duration" : 0
                          },
                          {
                            "endTime" : 2764,
                            "time" : 2764,
                            "value" : 0.0,
                            "duration" : 0
                          },
                          {
                            "endTime" : 2765,
                            "time" : 2765,
                            "value" : 1.0,
                            "duration" : 0
                          },
                          {
                            "endTime" : 3450,
                            "time" : 3450,
                            "value" : 1.0,
                            "duration" : 0
                          },
                          {
                            "endTime" : 3451,
                            "time" : 3451,
                            "value" : 0.0,
                            "duration" : 0
                          },
                          {
                            "endTime" : 3457,
                            "time" : 3457,
                            "value" : 0.0,
                            "duration" : 0
                          },
                          {
                            "endTime" : 3458,
                            "time" : 3458,
                            "value" : 1.0,
                            "duration" : 0
                          },
                          {
                            "endTime" : 4952,
                            "time" : 4952,
                            "value" : 1.0,
                            "duration" : 0
                          },
                          {
                            "endTime" : 4953,
                            "time" : 4953,
                            "value" : 0.0,
                            "duration" : 0
                          },
                          {
                            "endTime" : 4958,
                            "time" : 4958,
                            "value" : 0.0,
                            "duration" : 0
                          },
                          {
                            "endTime" : 4959,
                            "time" : 4959,
                            "value" : 1.0,
                            "duration" : 0
                          },
                          {
                            "endTime" : 5131,
                            "time" : 5131,
                            "value" : 1.0,
                            "duration" : 0
                          },
                          {
                            "endTime" : 5132,
                            "time" : 5132,
                            "value" : 0.0,
                            "duration" : 0
                          },
                          {
                            "endTime" : 5137,
                            "time" : 5137,
                            "value" : 0.0,
                            "duration" : 0
                          },
                          {
                            "endTime" : 5138,
                            "time" : 5138,
                            "value" : 1.0,
                            "duration" : 0
                          }
                        ]
                      },
                      "cursorOpacity" : {
                        "type" : "double",
                        "defaultValue" : 1.0,
                        "interp" : "linr"
                      },
                      "cursorScale" : {
                        "type" : "double",
                        "defaultValue" : 1.0,
                        "interp" : "linr"
                      }
                    },
                    "medias" : [
                        {
                          "id" : 44,
                          "_type" : "UnifiedMedia",
                          "video" : 
                              {
                                "id" : 45,
                                "_type" : "VMFile",
                                "src" : 1,
                                "trackNumber" : 1,
                                "attributes" : {
                                  "ident" : "06-04-00-ValoresDefaultParametros-UP"
                                },
                                "effects" : [

                                ],
                                "start" : 0,
                                "duration" : 277,
                                "mediaStart" : 0,
                                "mediaDuration" : 277,
                                "scalar" : 1,
                                "animationTracks" : {

                                }
                              },
                          "audio" : 
                              {
                                "id" : 46,
                                "_type" : "AMFile",
                                "src" : 1,
                                "trackNumber" : 2,
                                "attributes" : {
                                  "ident" : "",
                                  "gain" : 1.0,
                                  "mixToMono" : false
                                },
                                  "channelNumber" : "0,1",
                                "effects" : [

                                ],
                                "start" : 0,
                                "duration" : 277,
                                "mediaStart" : 0,
                                "mediaDuration" : 277,
                                "scalar" : 1,
                                "animationTracks" : {

                                }
                              }
,
                          "start" : 0,
                          "duration" : 277,
                          "mediaStart" : 0,
                          "mediaDuration" : 10366,
                          "scalar" : 1,
                          "metadata" : {
                            "clipSpeedAttribute" : false,
                            "default-rotation1" : 0.0,
                            "default-scale0" : 0.25,
                            "default-scale1" : 0.25,
                            "default-translation0" : 480.0,
                            "default-translation1" : -270.0,
                            "effectApplied" : "none"
                          }
                        },
                        {
                          "id" : 47,
                          "_type" : "UnifiedMedia",
                          "video" : 
                              {
                                "id" : 48,
                                "_type" : "VMFile",
                                "src" : 1,
                                "trackNumber" : 1,
                                "attributes" : {
                                  "ident" : "06-04-00-ValoresDefaultParametros-UP"
                                },
                                "effects" : [

                                ],
                                "start" : 277,
                                "duration" : 61,
                                "mediaStart" : 318,
                                "mediaDuration" : 61,
                                "scalar" : 1,
                                "animationTracks" : {

                                }
                              },
                          "audio" : 
                              {
                                "id" : 49,
                                "_type" : "AMFile",
                                "src" : 1,
                                "trackNumber" : 2,
                                "attributes" : {
                                  "ident" : "",
                                  "gain" : 1.0,
                                  "mixToMono" : false
                                },
                                  "channelNumber" : "0,1",
                                "effects" : [

                                ],
                                "start" : 277,
                                "duration" : 61,
                                "mediaStart" : 318,
                                "mediaDuration" : 61,
                                "scalar" : 1,
                                "animationTracks" : {

                                }
                              }
,
                          "start" : 277,
                          "duration" : 61,
                          "mediaStart" : 0,
                          "mediaDuration" : 10366,
                          "scalar" : 1,
                          "metadata" : {
                            "clipSpeedAttribute" : false,
                            "default-rotation1" : 0.0,
                            "default-scale0" : 0.25,
                            "default-scale1" : 0.25,
                            "default-translation0" : 480.0,
                            "default-translation1" : -270.0,
                            "effectApplied" : "none"
                          }
                        },
                        {
                          "id" : 50,
                          "_type" : "UnifiedMedia",
                          "video" : 
                              {
                                "id" : 51,
                                "_type" : "VMFile",
                                "src" : 1,
                                "trackNumber" : 1,
                                "attributes" : {
                                  "ident" : "06-04-00-ValoresDefaultParametros-UP"
                                },
                                "effects" : [

                                ],
                                "start" : 338,
                                "duration" : 467,
                                "mediaStart" : 555,
                                "mediaDuration" : 467,
                                "scalar" : 1,
                                "animationTracks" : {

                                }
                              },
                          "audio" : 
                              {
                                "id" : 52,
                                "_type" : "AMFile",
                                "src" : 1,
                                "trackNumber" : 2,
                                "attributes" : {
                                  "ident" : "",
                                  "gain" : 1.0,
                                  "mixToMono" : false
                                },
                                  "channelNumber" : "0,1",
                                "effects" : [

                                ],
                                "start" : 338,
                                "duration" : 467,
                                "mediaStart" : 555,
                                "mediaDuration" : 467,
                                "scalar" : 1,
                                "animationTracks" : {

                                }
                              }
,
                          "start" : 338,
                          "duration" : 467,
                          "mediaStart" : 0,
                          "mediaDuration" : 10366,
                          "scalar" : 1,
                          "metadata" : {
                            "clipSpeedAttribute" : false,
                            "default-rotation1" : 0.0,
                            "default-scale0" : 0.25,
                            "default-scale1" : 0.25,
                            "default-translation0" : 480.0,
                            "default-translation1" : -270.0,
                            "effectApplied" : "none"
                          }
                        },
                        {
                          "id" : 53,
                          "_type" : "UnifiedMedia",
                          "video" : 
                              {
                                "id" : 54,
                                "_type" : "VMFile",
                                "src" : 1,
                                "trackNumber" : 1,
                                "attributes" : {
                                  "ident" : "06-04-00-ValoresDefaultParametros-UP"
                                },
                                "effects" : [

                                ],
                                "start" : 805,
                                "duration" : 746,
                                "mediaStart" : 1155,
                                "mediaDuration" : 746,
                                "scalar" : 1,
                                "animationTracks" : {

                                }
                              },
                          "audio" : 
                              {
                                "id" : 55,
                                "_type" : "AMFile",
                                "src" : 1,
                                "trackNumber" : 2,
                                "attributes" : {
                                  "ident" : "",
                                  "gain" : 1.0,
                                  "mixToMono" : false
                                },
                                  "channelNumber" : "0,1",
                                "effects" : [

                                ],
                                "start" : 805,
                                "duration" : 746,
                                "mediaStart" : 1155,
                                "mediaDuration" : 746,
                                "scalar" : 1,
                                "animationTracks" : {

                                }
                              }
,
                          "start" : 805,
                          "duration" : 746,
                          "mediaStart" : 0,
                          "mediaDuration" : 10366,
                          "scalar" : 1,
                          "metadata" : {
                            "clipSpeedAttribute" : false,
                            "default-rotation1" : 0.0,
                            "default-scale0" : 0.25,
                            "default-scale1" : 0.25,
                            "default-translation0" : 480.0,
                            "default-translation1" : -270.0,
                            "effectApplied" : "none"
                          }
                        },
                        {
                          "id" : 56,
                          "_type" : "UnifiedMedia",
                          "video" : 
                              {
                                "id" : 57,
                                "_type" : "VMFile",
                                "src" : 1,
                                "trackNumber" : 1,
                                "attributes" : {
                                  "ident" : "06-04-00-ValoresDefaultParametros-UP"
                                },
                                "effects" : [

                                ],
                                "start" : 1551,
                                "duration" : 155,
                                "mediaStart" : 1907,
                                "mediaDuration" : 155,
                                "scalar" : 1,
                                "animationTracks" : {

                                }
                              },
                          "audio" : 
                              {
                                "id" : 58,
                                "_type" : "AMFile",
                                "src" : 1,
                                "trackNumber" : 2,
                                "attributes" : {
                                  "ident" : "",
                                  "gain" : 1.0,
                                  "mixToMono" : false
                                },
                                  "channelNumber" : "0,1",
                                "effects" : [

                                ],
                                "start" : 1551,
                                "duration" : 155,
                                "mediaStart" : 1907,
                                "mediaDuration" : 155,
                                "scalar" : 1,
                                "animationTracks" : {

                                }
                              }
,
                          "start" : 1551,
                          "duration" : 155,
                          "mediaStart" : 0,
                          "mediaDuration" : 10366,
                          "scalar" : 1,
                          "metadata" : {
                            "clipSpeedAttribute" : false,
                            "default-rotation1" : 0.0,
                            "default-scale0" : 0.25,
                            "default-scale1" : 0.25,
                            "default-translation0" : 480.0,
                            "default-translation1" : -270.0,
                            "effectApplied" : "none"
                          }
                        },
                        {
                          "id" : 59,
                          "_type" : "UnifiedMedia",
                          "video" : 
                              {
                                "id" : 60,
                                "_type" : "VMFile",
                                "src" : 1,
                                "trackNumber" : 1,
                                "attributes" : {
                                  "ident" : "06-04-00-ValoresDefaultParametros-UP"
                                },
                                "effects" : [

                                ],
                                "start" : 1706,
                                "duration" : 159,
                                "mediaStart" : 2081,
                                "mediaDuration" : 159,
                                "scalar" : 1,
                                "animationTracks" : {

                                }
                              },
                          "audio" : 
                              {
                                "id" : 61,
                                "_type" : "AMFile",
                                "src" : 1,
                                "trackNumber" : 2,
                                "attributes" : {
                                  "ident" : "",
                                  "gain" : 1.0,
                                  "mixToMono" : false
                                },
                                  "channelNumber" : "0,1",
                                "effects" : [

                                ],
                                "start" : 1706,
                                "duration" : 159,
                                "mediaStart" : 2081,
                                "mediaDuration" : 159,
                                "scalar" : 1,
                                "animationTracks" : {

                                }
                              }
,
                          "start" : 1706,
                          "duration" : 159,
                          "mediaStart" : 0,
                          "mediaDuration" : 10366,
                          "scalar" : 1,
                          "metadata" : {
                            "clipSpeedAttribute" : false,
                            "default-rotation1" : 0.0,
                            "default-scale0" : 0.25,
                            "default-scale1" : 0.25,
                            "default-translation0" : 480.0,
                            "default-translation1" : -270.0,
                            "effectApplied" : "none"
                          }
                        },
                        {
                          "id" : 62,
                          "_type" : "UnifiedMedia",
                          "video" : 
                              {
                                "id" : 63,
                                "_type" : "VMFile",
                                "src" : 1,
                                "trackNumber" : 1,
                                "attributes" : {
                                  "ident" : "06-04-00-ValoresDefaultParametros-UP"
                                },
                                "effects" : [

                                ],
                                "start" : 1865,
                                "duration" : 261,
                                "mediaStart" : 2287,
                                "mediaDuration" : 261,
                                "scalar" : 1,
                                "animationTracks" : {

                                }
                              },
                          "audio" : 
                              {
                                "id" : 64,
                                "_type" : "AMFile",
                                "src" : 1,
                                "trackNumber" : 2,
                                "attributes" : {
                                  "ident" : "",
                                  "gain" : 1.0,
                                  "mixToMono" : false
                                },
                                  "channelNumber" : "0,1",
                                "effects" : [

                                ],
                                "start" : 1865,
                                "duration" : 261,
                                "mediaStart" : 2287,
                                "mediaDuration" : 261,
                                "scalar" : 1,
                                "animationTracks" : {

                                }
                              }
,
                          "start" : 1865,
                          "duration" : 261,
                          "mediaStart" : 0,
                          "mediaDuration" : 10366,
                          "scalar" : 1,
                          "metadata" : {
                            "clipSpeedAttribute" : false,
                            "default-rotation1" : 0.0,
                            "default-scale0" : 0.25,
                            "default-scale1" : 0.25,
                            "default-translation0" : 480.0,
                            "default-translation1" : -270.0,
                            "effectApplied" : "none"
                          }
                        },
                        {
                          "id" : 65,
                          "_type" : "UnifiedMedia",
                          "video" : 
                              {
                                "id" : 66,
                                "_type" : "VMFile",
                                "src" : 1,
                                "trackNumber" : 1,
                                "attributes" : {
                                  "ident" : "06-04-00-ValoresDefaultParametros-UP"
                                },
                                "effects" : [

                                ],
                                "start" : 2126,
                                "duration" : 120,
                                "mediaStart" : 2872,
                                "mediaDuration" : 120,
                                "scalar" : 1,
                                "animationTracks" : {

                                }
                              },
                          "audio" : 
                              {
                                "id" : 67,
                                "_type" : "AMFile",
                                "src" : 1,
                                "trackNumber" : 2,
                                "attributes" : {
                                  "ident" : "",
                                  "gain" : 1.0,
                                  "mixToMono" : false
                                },
                                  "channelNumber" : "0,1",
                                "effects" : [

                                ],
                                "start" : 2126,
                                "duration" : 120,
                                "mediaStart" : 2872,
                                "mediaDuration" : 120,
                                "scalar" : 1,
                                "animationTracks" : {

                                }
                              }
,
                          "start" : 2126,
                          "duration" : 120,
                          "mediaStart" : 0,
                          "mediaDuration" : 10366,
                          "scalar" : 1,
                          "metadata" : {
                            "clipSpeedAttribute" : false,
                            "default-rotation1" : 0.0,
                            "default-scale0" : 0.25,
                            "default-scale1" : 0.25,
                            "default-translation0" : 480.0,
                            "default-translation1" : -270.0,
                            "effectApplied" : "none"
                          }
                        },
                        {
                          "id" : 68,
                          "_type" : "UnifiedMedia",
                          "video" : 
                              {
                                "id" : 69,
                                "_type" : "VMFile",
                                "src" : 1,
                                "trackNumber" : 1,
                                "attributes" : {
                                  "ident" : "06-04-00-ValoresDefaultParametros-UP"
                                },
                                "effects" : [

                                ],
                                "start" : 2246,
                                "duration" : 49,
                                "mediaStart" : 3093,
                                "mediaDuration" : 49,
                                "scalar" : 1,
                                "animationTracks" : {

                                }
                              },
                          "audio" : 
                              {
                                "id" : 70,
                                "_type" : "AMFile",
                                "src" : 1,
                                "trackNumber" : 2,
                                "attributes" : {
                                  "ident" : "",
                                  "gain" : 1.0,
                                  "mixToMono" : false
                                },
                                  "channelNumber" : "0,1",
                                "effects" : [

                                ],
                                "start" : 2246,
                                "duration" : 49,
                                "mediaStart" : 3093,
                                "mediaDuration" : 49,
                                "scalar" : 1,
                                "animationTracks" : {

                                }
                              }
,
                          "start" : 2246,
                          "duration" : 49,
                          "mediaStart" : 0,
                          "mediaDuration" : 10366,
                          "scalar" : 1,
                          "metadata" : {
                            "clipSpeedAttribute" : false,
                            "default-rotation1" : 0.0,
                            "default-scale0" : 0.25,
                            "default-scale1" : 0.25,
                            "default-translation0" : 480.0,
                            "default-translation1" : -270.0,
                            "effectApplied" : "none"
                          }
                        },
                        {
                          "id" : 71,
                          "_type" : "UnifiedMedia",
                          "video" : 
                              {
                                "id" : 72,
                                "_type" : "VMFile",
                                "src" : 1,
                                "trackNumber" : 1,
                                "attributes" : {
                                  "ident" : "06-04-00-ValoresDefaultParametros-UP"
                                },
                                "effects" : [

                                ],
                                "start" : 2295,
                                "duration" : 42,
                                "mediaStart" : 3251,
                                "mediaDuration" : 42,
                                "scalar" : 1,
                                "animationTracks" : {

                                }
                              },
                          "audio" : 
                              {
                                "id" : 73,
                                "_type" : "AMFile",
                                "src" : 1,
                                "trackNumber" : 2,
                                "attributes" : {
                                  "ident" : "",
                                  "gain" : 1.0,
                                  "mixToMono" : false
                                },
                                  "channelNumber" : "0,1",
                                "effects" : [

                                ],
                                "start" : 2295,
                                "duration" : 42,
                                "mediaStart" : 3251,
                                "mediaDuration" : 42,
                                "scalar" : 1,
                                "animationTracks" : {

                                }
                              }
,
                          "start" : 2295,
                          "duration" : 42,
                          "mediaStart" : 0,
                          "mediaDuration" : 10366,
                          "scalar" : 1,
                          "metadata" : {
                            "clipSpeedAttribute" : false,
                            "default-rotation1" : 0.0,
                            "default-scale0" : 0.25,
                            "default-scale1" : 0.25,
                            "default-translation0" : 480.0,
                            "default-translation1" : -270.0,
                            "effectApplied" : "none"
                          }
                        },
                        {
                          "id" : 74,
                          "_type" : "UnifiedMedia",
                          "video" : 
                              {
                                "id" : 75,
                                "_type" : "VMFile",
                                "src" : 1,
                                "trackNumber" : 1,
                                "attributes" : {
                                  "ident" : "06-04-00-ValoresDefaultParametros-UP"
                                },
                                "effects" : [

                                ],
                                "start" : 2337,
                                "duration" : 70,
                                "mediaStart" : 3327,
                                "mediaDuration" : 70,
                                "scalar" : 1,
                                "animationTracks" : {

                                }
                              },
                          "audio" : 
                              {
                                "id" : 76,
                                "_type" : "AMFile",
                                "src" : 1,
                                "trackNumber" : 2,
                                "attributes" : {
                                  "ident" : "",
                                  "gain" : 1.0,
                                  "mixToMono" : false
                                },
                                  "channelNumber" : "0,1",
                                "effects" : [

                                ],
                                "start" : 2337,
                                "duration" : 70,
                                "mediaStart" : 3327,
                                "mediaDuration" : 70,
                                "scalar" : 1,
                                "animationTracks" : {

                                }
                              }
,
                          "start" : 2337,
                          "duration" : 70,
                          "mediaStart" : 0,
                          "mediaDuration" : 10366,
                          "scalar" : 1,
                          "metadata" : {
                            "clipSpeedAttribute" : false,
                            "default-rotation1" : 0.0,
                            "default-scale0" : 0.25,
                            "default-scale1" : 0.25,
                            "default-translation0" : 480.0,
                            "default-translation1" : -270.0,
                            "effectApplied" : "none"
                          }
                        },
                        {
                          "id" : 77,
                          "_type" : "UnifiedMedia",
                          "video" : 
                              {
                                "id" : 78,
                                "_type" : "VMFile",
                                "src" : 1,
                                "trackNumber" : 1,
                                "attributes" : {
                                  "ident" : "06-04-00-ValoresDefaultParametros-UP"
                                },
                                "effects" : [

                                ],
                                "start" : 2407,
                                "duration" : 73,
                                "mediaStart" : 3415,
                                "mediaDuration" : 73,
                                "scalar" : 1,
                                "animationTracks" : {

                                }
                              },
                          "audio" : 
                              {
                                "id" : 79,
                                "_type" : "AMFile",
                                "src" : 1,
                                "trackNumber" : 2,
                                "attributes" : {
                                  "ident" : "",
                                  "gain" : 1.0,
                                  "mixToMono" : false
                                },
                                  "channelNumber" : "0,1",
                                "effects" : [

                                ],
                                "start" : 2407,
                                "duration" : 73,
                                "mediaStart" : 3415,
                                "mediaDuration" : 73,
                                "scalar" : 1,
                                "animationTracks" : {

                                }
                              }
,
                          "start" : 2407,
                          "duration" : 73,
                          "mediaStart" : 0,
                          "mediaDuration" : 10366,
                          "scalar" : 1,
                          "metadata" : {
                            "clipSpeedAttribute" : false,
                            "default-rotation1" : 0.0,
                            "default-scale0" : 0.25,
                            "default-scale1" : 0.25,
                            "default-translation0" : 480.0,
                            "default-translation1" : -270.0,
                            "effectApplied" : "none"
                          }
                        },
                        {
                          "id" : 80,
                          "_type" : "UnifiedMedia",
                          "video" : 
                              {
                                "id" : 81,
                                "_type" : "VMFile",
                                "src" : 1,
                                "trackNumber" : 1,
                                "attributes" : {
                                  "ident" : "06-04-00-ValoresDefaultParametros-UP"
                                },
                                "effects" : [

                                ],
                                "start" : 2480,
                                "duration" : 732,
                                "mediaStart" : 3557,
                                "mediaDuration" : 732,
                                "scalar" : 1,
                                "animationTracks" : {

                                }
                              },
                          "audio" : 
                              {
                                "id" : 82,
                                "_type" : "AMFile",
                                "src" : 1,
                                "trackNumber" : 2,
                                "attributes" : {
                                  "ident" : "",
                                  "gain" : 1.0,
                                  "mixToMono" : false
                                },
                                  "channelNumber" : "0,1",
                                "effects" : [

                                ],
                                "start" : 2480,
                                "duration" : 732,
                                "mediaStart" : 3557,
                                "mediaDuration" : 732,
                                "scalar" : 1,
                                "animationTracks" : {

                                }
                              }
,
                          "start" : 2480,
                          "duration" : 732,
                          "mediaStart" : 0,
                          "mediaDuration" : 10366,
                          "scalar" : 1,
                          "metadata" : {
                            "clipSpeedAttribute" : false,
                            "default-rotation1" : 0.0,
                            "default-scale0" : 0.25,
                            "default-scale1" : 0.25,
                            "default-translation0" : 480.0,
                            "default-translation1" : -270.0,
                            "effectApplied" : "none"
                          }
                        },
                        {
                          "id" : 83,
                          "_type" : "UnifiedMedia",
                          "video" : 
                              {
                                "id" : 84,
                                "_type" : "VMFile",
                                "src" : 1,
                                "trackNumber" : 1,
                                "attributes" : {
                                  "ident" : "06-04-00-ValoresDefaultParametros-UP"
                                },
                                "effects" : [

                                ],
                                "start" : 3212,
                                "duration" : 147,
                                "mediaStart" : 4322,
                                "mediaDuration" : 147,
                                "scalar" : 1,
                                "animationTracks" : {

                                }
                              },
                          "audio" : 
                              {
                                "id" : 85,
                                "_type" : "AMFile",
                                "src" : 1,
                                "trackNumber" : 2,
                                "attributes" : {
                                  "ident" : "",
                                  "gain" : 1.0,
                                  "mixToMono" : false
                                },
                                  "channelNumber" : "0,1",
                                "effects" : [

                                ],
                                "start" : 3212,
                                "duration" : 147,
                                "mediaStart" : 4322,
                                "mediaDuration" : 147,
                                "scalar" : 1,
                                "animationTracks" : {

                                }
                              }
,
                          "start" : 3212,
                          "duration" : 147,
                          "mediaStart" : 0,
                          "mediaDuration" : 10366,
                          "scalar" : 1,
                          "metadata" : {
                            "clipSpeedAttribute" : false,
                            "default-rotation1" : 0.0,
                            "default-scale0" : 0.25,
                            "default-scale1" : 0.25,
                            "default-translation0" : 480.0,
                            "default-translation1" : -270.0,
                            "effectApplied" : "none"
                          }
                        },
                        {
                          "id" : 86,
                          "_type" : "UnifiedMedia",
                          "video" : 
                              {
                                "id" : 87,
                                "_type" : "VMFile",
                                "src" : 1,
                                "trackNumber" : 1,
                                "attributes" : {
                                  "ident" : "06-04-00-ValoresDefaultParametros-UP"
                                },
                                "effects" : [

                                ],
                                "start" : 3359,
                                "duration" : 76,
                                "mediaStart" : 4566,
                                "mediaDuration" : 76,
                                "scalar" : 1,
                                "animationTracks" : {

                                }
                              },
                          "audio" : 
                              {
                                "id" : 88,
                                "_type" : "AMFile",
                                "src" : 1,
                                "trackNumber" : 2,
                                "attributes" : {
                                  "ident" : "",
                                  "gain" : 1.0,
                                  "mixToMono" : false
                                },
                                  "channelNumber" : "0,1",
                                "effects" : [

                                ],
                                "start" : 3359,
                                "duration" : 76,
                                "mediaStart" : 4566,
                                "mediaDuration" : 76,
                                "scalar" : 1,
                                "animationTracks" : {

                                }
                              }
,
                          "start" : 3359,
                          "duration" : 76,
                          "mediaStart" : 0,
                          "mediaDuration" : 10366,
                          "scalar" : 1,
                          "metadata" : {
                            "clipSpeedAttribute" : false,
                            "default-rotation1" : 0.0,
                            "default-scale0" : 0.25,
                            "default-scale1" : 0.25,
                            "default-translation0" : 480.0,
                            "default-translation1" : -270.0,
                            "effectApplied" : "none"
                          }
                        },
                        {
                          "id" : 89,
                          "_type" : "UnifiedMedia",
                          "video" : 
                              {
                                "id" : 90,
                                "_type" : "VMFile",
                                "src" : 1,
                                "trackNumber" : 1,
                                "attributes" : {
                                  "ident" : "06-04-00-ValoresDefaultParametros-UP"
                                },
                                "effects" : [

                                ],
                                "start" : 3435,
                                "duration" : 16,
                                "mediaStart" : 4659,
                                "mediaDuration" : 16,
                                "scalar" : 1,
                                "animationTracks" : {

                                }
                              },
                          "audio" : 
                              {
                                "id" : 91,
                                "_type" : "AMFile",
                                "src" : 1,
                                "trackNumber" : 2,
                                "attributes" : {
                                  "ident" : "",
                                  "gain" : 1.0,
                                  "mixToMono" : false
                                },
                                  "channelNumber" : "0,1",
                                "effects" : [

                                ],
                                "start" : 3435,
                                "duration" : 16,
                                "mediaStart" : 4659,
                                "mediaDuration" : 16,
                                "scalar" : 1,
                                "animationTracks" : {

                                }
                              }
,
                          "start" : 3435,
                          "duration" : 16,
                          "mediaStart" : 0,
                          "mediaDuration" : 10366,
                          "scalar" : 1,
                          "metadata" : {
                            "clipSpeedAttribute" : false,
                            "default-rotation1" : 0.0,
                            "default-scale0" : 0.25,
                            "default-scale1" : 0.25,
                            "default-translation0" : 480.0,
                            "default-translation1" : -270.0,
                            "effectApplied" : "none"
                          }
                        },
                        {
                          "id" : 92,
                          "_type" : "UnifiedMedia",
                          "video" : 
                              {
                                "id" : 93,
                                "_type" : "VMFile",
                                "src" : 1,
                                "trackNumber" : 1,
                                "attributes" : {
                                  "ident" : "06-04-00-ValoresDefaultParametros-UP"
                                },
                                "effects" : [

                                ],
                                "start" : 3451,
                                "duration" : 153,
                                "mediaStart" : 4685,
                                "mediaDuration" : 153,
                                "scalar" : 1,
                                "animationTracks" : {

                                }
                              },
                          "audio" : 
                              {
                                "id" : 94,
                                "_type" : "AMFile",
                                "src" : 1,
                                "trackNumber" : 2,
                                "attributes" : {
                                  "ident" : "",
                                  "gain" : 1.0,
                                  "mixToMono" : false
                                },
                                  "channelNumber" : "0,1",
                                "effects" : [

                                ],
                                "start" : 3451,
                                "duration" : 153,
                                "mediaStart" : 4685,
                                "mediaDuration" : 153,
                                "scalar" : 1,
                                "animationTracks" : {

                                }
                              }
,
                          "start" : 3451,
                          "duration" : 153,
                          "mediaStart" : 0,
                          "mediaDuration" : 10366,
                          "scalar" : 1,
                          "metadata" : {
                            "clipSpeedAttribute" : false,
                            "default-rotation1" : 0.0,
                            "default-scale0" : 0.25,
                            "default-scale1" : 0.25,
                            "default-translation0" : 480.0,
                            "default-translation1" : -270.0,
                            "effectApplied" : "none"
                          }
                        },
                        {
                          "id" : 95,
                          "_type" : "UnifiedMedia",
                          "video" : 
                              {
                                "id" : 96,
                                "_type" : "VMFile",
                                "src" : 1,
                                "trackNumber" : 1,
                                "attributes" : {
                                  "ident" : "06-04-00-ValoresDefaultParametros-UP"
                                },
                                "effects" : [

                                ],
                                "start" : 3604,
                                "duration" : 87,
                                "mediaStart" : 5018,
                                "mediaDuration" : 87,
                                "scalar" : 1,
                                "animationTracks" : {

                                }
                              },
                          "audio" : 
                              {
                                "id" : 97,
                                "_type" : "AMFile",
                                "src" : 1,
                                "trackNumber" : 2,
                                "attributes" : {
                                  "ident" : "",
                                  "gain" : 1.0,
                                  "mixToMono" : false
                                },
                                  "channelNumber" : "0,1",
                                "effects" : [

                                ],
                                "start" : 3604,
                                "duration" : 87,
                                "mediaStart" : 5018,
                                "mediaDuration" : 87,
                                "scalar" : 1,
                                "animationTracks" : {

                                }
                              }
,
                          "start" : 3604,
                          "duration" : 87,
                          "mediaStart" : 0,
                          "mediaDuration" : 10366,
                          "scalar" : 1,
                          "metadata" : {
                            "clipSpeedAttribute" : false,
                            "default-rotation1" : 0.0,
                            "default-scale0" : 0.25,
                            "default-scale1" : 0.25,
                            "default-translation0" : 480.0,
                            "default-translation1" : -270.0,
                            "effectApplied" : "none"
                          }
                        },
                        {
                          "id" : 98,
                          "_type" : "UnifiedMedia",
                          "video" : 
                              {
                                "id" : 99,
                                "_type" : "VMFile",
                                "src" : 1,
                                "trackNumber" : 1,
                                "attributes" : {
                                  "ident" : "06-04-00-ValoresDefaultParametros-UP"
                                },
                                "effects" : [

                                ],
                                "start" : 3691,
                                "duration" : 361,
                                "mediaStart" : 5164,
                                "mediaDuration" : 361,
                                "scalar" : 1,
                                "animationTracks" : {

                                }
                              },
                          "audio" : 
                              {
                                "id" : 100,
                                "_type" : "AMFile",
                                "src" : 1,
                                "trackNumber" : 2,
                                "attributes" : {
                                  "ident" : "",
                                  "gain" : 1.0,
                                  "mixToMono" : false
                                },
                                  "channelNumber" : "0,1",
                                "effects" : [

                                ],
                                "start" : 3691,
                                "duration" : 361,
                                "mediaStart" : 5164,
                                "mediaDuration" : 361,
                                "scalar" : 1,
                                "animationTracks" : {

                                }
                              }
,
                          "start" : 3691,
                          "duration" : 361,
                          "mediaStart" : 0,
                          "mediaDuration" : 10366,
                          "scalar" : 1,
                          "metadata" : {
                            "clipSpeedAttribute" : false,
                            "default-rotation1" : 0.0,
                            "default-scale0" : 0.25,
                            "default-scale1" : 0.25,
                            "default-translation0" : 480.0,
                            "default-translation1" : -270.0,
                            "effectApplied" : "none"
                          }
                        },
                        {
                          "id" : 101,
                          "_type" : "UnifiedMedia",
                          "video" : 
                              {
                                "id" : 102,
                                "_type" : "VMFile",
                                "src" : 1,
                                "trackNumber" : 1,
                                "attributes" : {
                                  "ident" : "06-04-00-ValoresDefaultParametros-UP"
                                },
                                "effects" : [

                                ],
                                "start" : 4052,
                                "duration" : 130,
                                "mediaStart" : 5663,
                                "mediaDuration" : 130,
                                "scalar" : 1,
                                "animationTracks" : {

                                }
                              },
                          "audio" : 
                              {
                                "id" : 103,
                                "_type" : "AMFile",
                                "src" : 1,
                                "trackNumber" : 2,
                                "attributes" : {
                                  "ident" : "",
                                  "gain" : 1.0,
                                  "mixToMono" : false
                                },
                                  "channelNumber" : "0,1",
                                "effects" : [

                                ],
                                "start" : 4052,
                                "duration" : 130,
                                "mediaStart" : 5663,
                                "mediaDuration" : 130,
                                "scalar" : 1,
                                "animationTracks" : {

                                }
                              }
,
                          "start" : 4052,
                          "duration" : 130,
                          "mediaStart" : 0,
                          "mediaDuration" : 10366,
                          "scalar" : 1,
                          "metadata" : {
                            "clipSpeedAttribute" : false,
                            "default-rotation1" : 0.0,
                            "default-scale0" : 0.25,
                            "default-scale1" : 0.25,
                            "default-translation0" : 480.0,
                            "default-translation1" : -270.0,
                            "effectApplied" : "none"
                          }
                        },
                        {
                          "id" : 104,
                          "_type" : "UnifiedMedia",
                          "video" : 
                              {
                                "id" : 105,
                                "_type" : "VMFile",
                                "src" : 1,
                                "trackNumber" : 1,
                                "attributes" : {
                                  "ident" : "06-04-00-ValoresDefaultParametros-UP"
                                },
                                "effects" : [

                                ],
                                "start" : 4182,
                                "duration" : 297,
                                "mediaStart" : 5826,
                                "mediaDuration" : 297,
                                "scalar" : 1,
                                "animationTracks" : {

                                }
                              },
                          "audio" : 
                              {
                                "id" : 106,
                                "_type" : "AMFile",
                                "src" : 1,
                                "trackNumber" : 2,
                                "attributes" : {
                                  "ident" : "",
                                  "gain" : 1.0,
                                  "mixToMono" : false
                                },
                                  "channelNumber" : "0,1",
                                "effects" : [

                                ],
                                "start" : 4182,
                                "duration" : 297,
                                "mediaStart" : 5826,
                                "mediaDuration" : 297,
                                "scalar" : 1,
                                "animationTracks" : {

                                }
                              }
,
                          "start" : 4182,
                          "duration" : 297,
                          "mediaStart" : 0,
                          "mediaDuration" : 10366,
                          "scalar" : 1,
                          "metadata" : {
                            "clipSpeedAttribute" : false,
                            "default-rotation1" : 0.0,
                            "default-scale0" : 0.25,
                            "default-scale1" : 0.25,
                            "default-translation0" : 480.0,
                            "default-translation1" : -270.0,
                            "effectApplied" : "none"
                          }
                        },
                        {
                          "id" : 107,
                          "_type" : "UnifiedMedia",
                          "video" : 
                              {
                                "id" : 108,
                                "_type" : "VMFile",
                                "src" : 1,
                                "trackNumber" : 1,
                                "attributes" : {
                                  "ident" : "06-04-00-ValoresDefaultParametros-UP"
                                },
                                "effects" : [

                                ],
                                "start" : 4479,
                                "duration" : 55,
                                "mediaStart" : 6243,
                                "mediaDuration" : 55,
                                "scalar" : 1,
                                "animationTracks" : {

                                }
                              },
                          "audio" : 
                              {
                                "id" : 109,
                                "_type" : "AMFile",
                                "src" : 1,
                                "trackNumber" : 2,
                                "attributes" : {
                                  "ident" : "",
                                  "gain" : 1.0,
                                  "mixToMono" : false
                                },
                                  "channelNumber" : "0,1",
                                "effects" : [

                                ],
                                "start" : 4479,
                                "duration" : 55,
                                "mediaStart" : 6243,
                                "mediaDuration" : 55,
                                "scalar" : 1,
                                "animationTracks" : {

                                }
                              }
,
                          "start" : 4479,
                          "duration" : 55,
                          "mediaStart" : 0,
                          "mediaDuration" : 10366,
                          "scalar" : 1,
                          "metadata" : {
                            "clipSpeedAttribute" : false,
                            "default-rotation1" : 0.0,
                            "default-scale0" : 0.25,
                            "default-scale1" : 0.25,
                            "default-translation0" : 480.0,
                            "default-translation1" : -270.0,
                            "effectApplied" : "none"
                          }
                        },
                        {
                          "id" : 110,
                          "_type" : "UnifiedMedia",
                          "video" : 
                              {
                                "id" : 111,
                                "_type" : "VMFile",
                                "src" : 1,
                                "trackNumber" : 1,
                                "attributes" : {
                                  "ident" : "06-04-00-ValoresDefaultParametros-UP"
                                },
                                "effects" : [

                                ],
                                "start" : 4534,
                                "duration" : 320,
                                "mediaStart" : 6342,
                                "mediaDuration" : 320,
                                "scalar" : 1,
                                "animationTracks" : {

                                }
                              },
                          "audio" : 
                              {
                                "id" : 112,
                                "_type" : "AMFile",
                                "src" : 1,
                                "trackNumber" : 2,
                                "attributes" : {
                                  "ident" : "",
                                  "gain" : 1.0,
                                  "mixToMono" : false
                                },
                                  "channelNumber" : "0,1",
                                "effects" : [

                                ],
                                "start" : 4534,
                                "duration" : 320,
                                "mediaStart" : 6342,
                                "mediaDuration" : 320,
                                "scalar" : 1,
                                "animationTracks" : {

                                }
                              }
,
                          "start" : 4534,
                          "duration" : 320,
                          "mediaStart" : 0,
                          "mediaDuration" : 10366,
                          "scalar" : 1,
                          "metadata" : {
                            "clipSpeedAttribute" : false,
                            "default-rotation1" : 0.0,
                            "default-scale0" : 0.25,
                            "default-scale1" : 0.25,
                            "default-translation0" : 480.0,
                            "default-translation1" : -270.0,
                            "effectApplied" : "none"
                          }
                        },
                        {
                          "id" : 113,
                          "_type" : "UnifiedMedia",
                          "video" : 
                              {
                                "id" : 114,
                                "_type" : "VMFile",
                                "src" : 1,
                                "trackNumber" : 1,
                                "attributes" : {
                                  "ident" : "06-04-00-ValoresDefaultParametros-UP"
                                },
                                "effects" : [

                                ],
                                "start" : 4854,
                                "duration" : 8,
                                "mediaStart" : 6679,
                                "mediaDuration" : 8,
                                "scalar" : 1,
                                "animationTracks" : {

                                }
                              },
                          "audio" : 
                              {
                                "id" : 115,
                                "_type" : "AMFile",
                                "src" : 1,
                                "trackNumber" : 2,
                                "attributes" : {
                                  "ident" : "",
                                  "gain" : 1.0,
                                  "mixToMono" : false
                                },
                                  "channelNumber" : "0,1",
                                "effects" : [

                                ],
                                "start" : 4854,
                                "duration" : 8,
                                "mediaStart" : 6679,
                                "mediaDuration" : 8,
                                "scalar" : 1,
                                "animationTracks" : {

                                }
                              }
,
                          "start" : 4854,
                          "duration" : 8,
                          "mediaStart" : 0,
                          "mediaDuration" : 10366,
                          "scalar" : 1,
                          "metadata" : {
                            "clipSpeedAttribute" : false,
                            "default-rotation1" : 0.0,
                            "default-scale0" : 0.25,
                            "default-scale1" : 0.25,
                            "default-translation0" : 480.0,
                            "default-translation1" : -270.0,
                            "effectApplied" : "none"
                          }
                        },
                        {
                          "id" : 116,
                          "_type" : "UnifiedMedia",
                          "video" : 
                              {
                                "id" : 117,
                                "_type" : "VMFile",
                                "src" : 1,
                                "trackNumber" : 1,
                                "attributes" : {
                                  "ident" : "06-04-00-ValoresDefaultParametros-UP"
                                },
                                "effects" : [

                                ],
                                "start" : 4862,
                                "duration" : 91,
                                "mediaStart" : 6692,
                                "mediaDuration" : 91,
                                "scalar" : 1,
                                "animationTracks" : {

                                }
                              },
                          "audio" : 
                              {
                                "id" : 118,
                                "_type" : "AMFile",
                                "src" : 1,
                                "trackNumber" : 2,
                                "attributes" : {
                                  "ident" : "",
                                  "gain" : 1.0,
                                  "mixToMono" : false
                                },
                                  "channelNumber" : "0,1",
                                "effects" : [

                                ],
                                "start" : 4862,
                                "duration" : 91,
                                "mediaStart" : 6692,
                                "mediaDuration" : 91,
                                "scalar" : 1,
                                "animationTracks" : {

                                }
                              }
,
                          "start" : 4862,
                          "duration" : 91,
                          "mediaStart" : 0,
                          "mediaDuration" : 10366,
                          "scalar" : 1,
                          "metadata" : {
                            "clipSpeedAttribute" : false,
                            "default-rotation1" : 0.0,
                            "default-scale0" : 0.25,
                            "default-scale1" : 0.25,
                            "default-translation0" : 480.0,
                            "default-translation1" : -270.0,
                            "effectApplied" : "none"
                          }
                        },
                        {
                          "id" : 119,
                          "_type" : "UnifiedMedia",
                          "video" : 
                              {
                                "id" : 120,
                                "_type" : "VMFile",
                                "src" : 1,
                                "trackNumber" : 1,
                                "attributes" : {
                                  "ident" : "06-04-00-ValoresDefaultParametros-UP"
                                },
                                "effects" : [

                                ],
                                "start" : 4953,
                                "duration" : 338,
                                "mediaStart" : 6793,
                                "mediaDuration" : 338,
                                "scalar" : 1,
                                "animationTracks" : {

                                }
                              },
                          "audio" : 
                              {
                                "id" : 121,
                                "_type" : "AMFile",
                                "src" : 1,
                                "trackNumber" : 2,
                                "attributes" : {
                                  "ident" : "",
                                  "gain" : 1.0,
                                  "mixToMono" : false
                                },
                                  "channelNumber" : "0,1",
                                "effects" : [

                                ],
                                "start" : 4953,
                                "duration" : 338,
                                "mediaStart" : 6793,
                                "mediaDuration" : 338,
                                "scalar" : 1,
                                "animationTracks" : {

                                }
                              }
,
                          "start" : 4953,
                          "duration" : 338,
                          "mediaStart" : 0,
                          "mediaDuration" : 10366,
                          "scalar" : 1,
                          "metadata" : {
                            "clipSpeedAttribute" : false,
                            "default-rotation1" : 0.0,
                            "default-scale0" : 0.25,
                            "default-scale1" : 0.25,
                            "default-translation0" : 480.0,
                            "default-translation1" : -270.0,
                            "effectApplied" : "none"
                          }
                        },
                        {
                          "id" : 122,
                          "_type" : "UnifiedMedia",
                          "video" : 
                              {
                                "id" : 123,
                                "_type" : "VMFile",
                                "src" : 1,
                                "trackNumber" : 1,
                                "attributes" : {
                                  "ident" : "06-04-00-ValoresDefaultParametros-UP"
                                },
                                "effects" : [

                                ],
                                "start" : 5291,
                                "duration" : 286,
                                "mediaStart" : 7169,
                                "mediaDuration" : 286,
                                "scalar" : 1,
                                "animationTracks" : {

                                }
                              },
                          "audio" : 
                              {
                                "id" : 124,
                                "_type" : "AMFile",
                                "src" : 1,
                                "trackNumber" : 2,
                                "attributes" : {
                                  "ident" : "",
                                  "gain" : 1.0,
                                  "mixToMono" : false
                                },
                                  "channelNumber" : "0,1",
                                "effects" : [

                                ],
                                "start" : 5291,
                                "duration" : 286,
                                "mediaStart" : 7169,
                                "mediaDuration" : 286,
                                "scalar" : 1,
                                "animationTracks" : {

                                }
                              }
,
                          "start" : 5291,
                          "duration" : 286,
                          "mediaStart" : 0,
                          "mediaDuration" : 10366,
                          "scalar" : 1,
                          "metadata" : {
                            "clipSpeedAttribute" : false,
                            "default-rotation1" : 0.0,
                            "default-scale0" : 0.25,
                            "default-scale1" : 0.25,
                            "default-translation0" : 480.0,
                            "default-translation1" : -270.0,
                            "effectApplied" : "none"
                          }
                        },
                        {
                          "id" : 125,
                          "_type" : "UnifiedMedia",
                          "video" : 
                              {
                                "id" : 126,
                                "_type" : "VMFile",
                                "src" : 1,
                                "trackNumber" : 1,
                                "attributes" : {
                                  "ident" : "06-04-00-ValoresDefaultParametros-UP"
                                },
                                "effects" : [

                                ],
                                "start" : 5577,
                                "duration" : 35,
                                "mediaStart" : 7471,
                                "mediaDuration" : 35,
                                "scalar" : 1,
                                "animationTracks" : {

                                }
                              },
                          "audio" : 
                              {
                                "id" : 127,
                                "_type" : "AMFile",
                                "src" : 1,
                                "trackNumber" : 2,
                                "attributes" : {
                                  "ident" : "",
                                  "gain" : 1.0,
                                  "mixToMono" : false
                                },
                                  "channelNumber" : "0,1",
                                "effects" : [

                                ],
                                "start" : 5577,
                                "duration" : 35,
                                "mediaStart" : 7471,
                                "mediaDuration" : 35,
                                "scalar" : 1,
                                "animationTracks" : {

                                }
                              }
,
                          "start" : 5577,
                          "duration" : 35,
                          "mediaStart" : 0,
                          "mediaDuration" : 10366,
                          "scalar" : 1,
                          "metadata" : {
                            "clipSpeedAttribute" : false,
                            "default-rotation1" : 0.0,
                            "default-scale0" : 0.25,
                            "default-scale1" : 0.25,
                            "default-translation0" : 480.0,
                            "default-translation1" : -270.0,
                            "effectApplied" : "none"
                          }
                        },
                        {
                          "id" : 128,
                          "_type" : "UnifiedMedia",
                          "video" : 
                              {
                                "id" : 129,
                                "_type" : "VMFile",
                                "src" : 1,
                                "trackNumber" : 1,
                                "attributes" : {
                                  "ident" : "06-04-00-ValoresDefaultParametros-UP"
                                },
                                "effects" : [

                                ],
                                "start" : 5612,
                                "duration" : 590,
                                "mediaStart" : 7517,
                                "mediaDuration" : 590,
                                "scalar" : 1,
                                "animationTracks" : {

                                }
                              },
                          "audio" : 
                              {
                                "id" : 130,
                                "_type" : "AMFile",
                                "src" : 1,
                                "trackNumber" : 2,
                                "attributes" : {
                                  "ident" : "",
                                  "gain" : 1.0,
                                  "mixToMono" : false
                                },
                                  "channelNumber" : "0,1",
                                "effects" : [

                                ],
                                "start" : 5612,
                                "duration" : 590,
                                "mediaStart" : 7517,
                                "mediaDuration" : 590,
                                "scalar" : 1,
                                "animationTracks" : {

                                }
                              }
,
                          "start" : 5612,
                          "duration" : 590,
                          "mediaStart" : 0,
                          "mediaDuration" : 10366,
                          "scalar" : 1,
                          "metadata" : {
                            "clipSpeedAttribute" : false,
                            "default-rotation1" : 0.0,
                            "default-scale0" : 0.25,
                            "default-scale1" : 0.25,
                            "default-translation0" : 480.0,
                            "default-translation1" : -270.0,
                            "effectApplied" : "none"
                          }
                        },
                        {
                          "id" : 131,
                          "_type" : "UnifiedMedia",
                          "video" : 
                              {
                                "id" : 132,
                                "_type" : "VMFile",
                                "src" : 1,
                                "trackNumber" : 1,
                                "attributes" : {
                                  "ident" : "06-04-00-ValoresDefaultParametros-UP"
                                },
                                "effects" : [

                                ],
                                "start" : 6202,
                                "duration" : 171,
                                "mediaStart" : 8121,
                                "mediaDuration" : 171,
                                "scalar" : 1,
                                "animationTracks" : {

                                }
                              },
                          "audio" : 
                              {
                                "id" : 133,
                                "_type" : "AMFile",
                                "src" : 1,
                                "trackNumber" : 2,
                                "attributes" : {
                                  "ident" : "",
                                  "gain" : 1.0,
                                  "mixToMono" : false
                                },
                                  "channelNumber" : "0,1",
                                "effects" : [

                                ],
                                "start" : 6202,
                                "duration" : 171,
                                "mediaStart" : 8121,
                                "mediaDuration" : 171,
                                "scalar" : 1,
                                "animationTracks" : {

                                }
                              }
,
                          "start" : 6202,
                          "duration" : 171,
                          "mediaStart" : 0,
                          "mediaDuration" : 10366,
                          "scalar" : 1,
                          "metadata" : {
                            "clipSpeedAttribute" : false,
                            "default-rotation1" : 0.0,
                            "default-scale0" : 0.25,
                            "default-scale1" : 0.25,
                            "default-translation0" : 480.0,
                            "default-translation1" : -270.0,
                            "effectApplied" : "none"
                          }
                        },
                        {
                          "id" : 134,
                          "_type" : "UnifiedMedia",
                          "video" : 
                              {
                                "id" : 135,
                                "_type" : "VMFile",
                                "src" : 1,
                                "trackNumber" : 1,
                                "attributes" : {
                                  "ident" : "06-04-00-ValoresDefaultParametros-UP"
                                },
                                "effects" : [

                                ],
                                "start" : 6373,
                                "duration" : 54,
                                "mediaStart" : 8306,
                                "mediaDuration" : 54,
                                "scalar" : 1,
                                "animationTracks" : {

                                }
                              },
                          "audio" : 
                              {
                                "id" : 136,
                                "_type" : "AMFile",
                                "src" : 1,
                                "trackNumber" : 2,
                                "attributes" : {
                                  "ident" : "",
                                  "gain" : 1.0,
                                  "mixToMono" : false
                                },
                                  "channelNumber" : "0,1",
                                "effects" : [

                                ],
                                "start" : 6373,
                                "duration" : 54,
                                "mediaStart" : 8306,
                                "mediaDuration" : 54,
                                "scalar" : 1,
                                "animationTracks" : {

                                }
                              }
,
                          "start" : 6373,
                          "duration" : 54,
                          "mediaStart" : 0,
                          "mediaDuration" : 10366,
                          "scalar" : 1,
                          "metadata" : {
                            "clipSpeedAttribute" : false,
                            "default-rotation1" : 0.0,
                            "default-scale0" : 0.25,
                            "default-scale1" : 0.25,
                            "default-translation0" : 480.0,
                            "default-translation1" : -270.0,
                            "effectApplied" : "none"
                          }
                        },
                        {
                          "id" : 137,
                          "_type" : "UnifiedMedia",
                          "video" : 
                              {
                                "id" : 138,
                                "_type" : "VMFile",
                                "src" : 1,
                                "trackNumber" : 1,
                                "attributes" : {
                                  "ident" : "06-04-00-ValoresDefaultParametros-UP"
                                },
                                "effects" : [

                                ],
                                "start" : 6427,
                                "duration" : 371,
                                "mediaStart" : 8501,
                                "mediaDuration" : 371,
                                "scalar" : 1,
                                "animationTracks" : {

                                }
                              },
                          "audio" : 
                              {
                                "id" : 139,
                                "_type" : "AMFile",
                                "src" : 1,
                                "trackNumber" : 2,
                                "attributes" : {
                                  "ident" : "",
                                  "gain" : 1.0,
                                  "mixToMono" : false
                                },
                                  "channelNumber" : "0,1",
                                "effects" : [

                                ],
                                "start" : 6427,
                                "duration" : 371,
                                "mediaStart" : 8501,
                                "mediaDuration" : 371,
                                "scalar" : 1,
                                "animationTracks" : {

                                }
                              }
,
                          "start" : 6427,
                          "duration" : 371,
                          "mediaStart" : 0,
                          "mediaDuration" : 10366,
                          "scalar" : 1,
                          "metadata" : {
                            "clipSpeedAttribute" : false,
                            "default-rotation1" : 0.0,
                            "default-scale0" : 0.25,
                            "default-scale1" : 0.25,
                            "default-translation0" : 480.0,
                            "default-translation1" : -270.0,
                            "effectApplied" : "none"
                          }
                        },
                        {
                          "id" : 140,
                          "_type" : "UnifiedMedia",
                          "video" : 
                              {
                                "id" : 141,
                                "_type" : "VMFile",
                                "src" : 1,
                                "trackNumber" : 1,
                                "attributes" : {
                                  "ident" : "06-04-00-ValoresDefaultParametros-UP"
                                },
                                "effects" : [

                                ],
                                "start" : 6798,
                                "duration" : 40,
                                "mediaStart" : 8893,
                                "mediaDuration" : 40,
                                "scalar" : 1,
                                "animationTracks" : {

                                }
                              },
                          "audio" : 
                              {
                                "id" : 142,
                                "_type" : "AMFile",
                                "src" : 1,
                                "trackNumber" : 2,
                                "attributes" : {
                                  "ident" : "",
                                  "gain" : 1.0,
                                  "mixToMono" : false
                                },
                                  "channelNumber" : "0,1",
                                "effects" : [

                                ],
                                "start" : 6798,
                                "duration" : 40,
                                "mediaStart" : 8893,
                                "mediaDuration" : 40,
                                "scalar" : 1,
                                "animationTracks" : {

                                }
                              }
,
                          "start" : 6798,
                          "duration" : 40,
                          "mediaStart" : 0,
                          "mediaDuration" : 10366,
                          "scalar" : 1,
                          "metadata" : {
                            "clipSpeedAttribute" : false,
                            "default-rotation1" : 0.0,
                            "default-scale0" : 0.25,
                            "default-scale1" : 0.25,
                            "default-translation0" : 480.0,
                            "default-translation1" : -270.0,
                            "effectApplied" : "none"
                          }
                        },
                        {
                          "id" : 143,
                          "_type" : "UnifiedMedia",
                          "video" : 
                              {
                                "id" : 144,
                                "_type" : "VMFile",
                                "src" : 1,
                                "trackNumber" : 1,
                                "attributes" : {
                                  "ident" : "06-04-00-ValoresDefaultParametros-UP"
                                },
                                "effects" : [

                                ],
                                "start" : 6838,
                                "duration" : 82,
                                "mediaStart" : 8966,
                                "mediaDuration" : 82,
                                "scalar" : 1,
                                "animationTracks" : {

                                }
                              },
                          "audio" : 
                              {
                                "id" : 145,
                                "_type" : "AMFile",
                                "src" : 1,
                                "trackNumber" : 2,
                                "attributes" : {
                                  "ident" : "",
                                  "gain" : 1.0,
                                  "mixToMono" : false
                                },
                                  "channelNumber" : "0,1",
                                "effects" : [

                                ],
                                "start" : 6838,
                                "duration" : 82,
                                "mediaStart" : 8966,
                                "mediaDuration" : 82,
                                "scalar" : 1,
                                "animationTracks" : {

                                }
                              }
,
                          "start" : 6838,
                          "duration" : 82,
                          "mediaStart" : 0,
                          "mediaDuration" : 10366,
                          "scalar" : 1,
                          "metadata" : {
                            "clipSpeedAttribute" : false,
                            "default-rotation1" : 0.0,
                            "default-scale0" : 0.25,
                            "default-scale1" : 0.25,
                            "default-translation0" : 480.0,
                            "default-translation1" : -270.0,
                            "effectApplied" : "none"
                          }
                        },
                        {
                          "id" : 146,
                          "_type" : "UnifiedMedia",
                          "video" : 
                              {
                                "id" : 147,
                                "_type" : "VMFile",
                                "src" : 1,
                                "trackNumber" : 1,
                                "attributes" : {
                                  "ident" : "06-04-00-ValoresDefaultParametros-UP"
                                },
                                "effects" : [

                                ],
                                "start" : 6920,
                                "duration" : 50,
                                "mediaStart" : 9062,
                                "mediaDuration" : 50,
                                "scalar" : 1,
                                "animationTracks" : {

                                }
                              },
                          "audio" : 
                              {
                                "id" : 148,
                                "_type" : "AMFile",
                                "src" : 1,
                                "trackNumber" : 2,
                                "attributes" : {
                                  "ident" : "",
                                  "gain" : 1.0,
                                  "mixToMono" : false
                                },
                                  "channelNumber" : "0,1",
                                "effects" : [

                                ],
                                "start" : 6920,
                                "duration" : 50,
                                "mediaStart" : 9062,
                                "mediaDuration" : 50,
                                "scalar" : 1,
                                "animationTracks" : {

                                }
                              }
,
                          "start" : 6920,
                          "duration" : 50,
                          "mediaStart" : 0,
                          "mediaDuration" : 10366,
                          "scalar" : 1,
                          "metadata" : {
                            "clipSpeedAttribute" : false,
                            "default-rotation1" : 0.0,
                            "default-scale0" : 0.25,
                            "default-scale1" : 0.25,
                            "default-translation0" : 480.0,
                            "default-translation1" : -270.0,
                            "effectApplied" : "none"
                          }
                        },
                        {
                          "id" : 149,
                          "_type" : "UnifiedMedia",
                          "video" : 
                              {
                                "id" : 150,
                                "_type" : "VMFile",
                                "src" : 1,
                                "trackNumber" : 1,
                                "attributes" : {
                                  "ident" : "06-04-00-ValoresDefaultParametros-UP"
                                },
                                "effects" : [

                                ],
                                "start" : 6970,
                                "duration" : 342,
                                "mediaStart" : 9120,
                                "mediaDuration" : 342,
                                "scalar" : 1,
                                "animationTracks" : {

                                }
                              },
                          "audio" : 
                              {
                                "id" : 151,
                                "_type" : "AMFile",
                                "src" : 1,
                                "trackNumber" : 2,
                                "attributes" : {
                                  "ident" : "",
                                  "gain" : 1.0,
                                  "mixToMono" : false
                                },
                                  "channelNumber" : "0,1",
                                "effects" : [

                                ],
                                "start" : 6970,
                                "duration" : 342,
                                "mediaStart" : 9120,
                                "mediaDuration" : 342,
                                "scalar" : 1,
                                "animationTracks" : {

                                }
                              }
,
                          "start" : 6970,
                          "duration" : 342,
                          "mediaStart" : 0,
                          "mediaDuration" : 10366,
                          "scalar" : 1,
                          "metadata" : {
                            "clipSpeedAttribute" : false,
                            "default-rotation1" : 0.0,
                            "default-scale0" : 0.25,
                            "default-scale1" : 0.25,
                            "default-translation0" : 480.0,
                            "default-translation1" : -270.0,
                            "effectApplied" : "none"
                          }
                        },
                        {
                          "id" : 152,
                          "_type" : "UnifiedMedia",
                          "video" : 
                              {
                                "id" : 153,
                                "_type" : "VMFile",
                                "src" : 1,
                                "trackNumber" : 1,
                                "attributes" : {
                                  "ident" : "06-04-00-ValoresDefaultParametros-UP"
                                },
                                "effects" : [

                                ],
                                "start" : 7312,
                                "duration" : 232,
                                "mediaStart" : 9496,
                                "mediaDuration" : 232,
                                "scalar" : 1,
                                "animationTracks" : {

                                }
                              },
                          "audio" : 
                              {
                                "id" : 154,
                                "_type" : "AMFile",
                                "src" : 1,
                                "trackNumber" : 2,
                                "attributes" : {
                                  "ident" : "",
                                  "gain" : 1.0,
                                  "mixToMono" : false
                                },
                                  "channelNumber" : "0,1",
                                "effects" : [

                                ],
                                "start" : 7312,
                                "duration" : 232,
                                "mediaStart" : 9496,
                                "mediaDuration" : 232,
                                "scalar" : 1,
                                "animationTracks" : {

                                }
                              }
,
                          "start" : 7312,
                          "duration" : 232,
                          "mediaStart" : 0,
                          "mediaDuration" : 10366,
                          "scalar" : 1,
                          "metadata" : {
                            "clipSpeedAttribute" : false,
                            "default-rotation1" : 0.0,
                            "default-scale0" : 0.25,
                            "default-scale1" : 0.25,
                            "default-translation0" : 480.0,
                            "default-translation1" : -270.0,
                            "effectApplied" : "none"
                          }
                        },
                        {
                          "id" : 155,
                          "_type" : "UnifiedMedia",
                          "video" : 
                              {
                                "id" : 156,
                                "_type" : "VMFile",
                                "src" : 1,
                                "trackNumber" : 1,
                                "attributes" : {
                                  "ident" : "06-04-00-ValoresDefaultParametros-UP"
                                },
                                "effects" : [

                                ],
                                "start" : 7544,
                                "duration" : 12,
                                "mediaStart" : 9741,
                                "mediaDuration" : 12,
                                "scalar" : 1,
                                "animationTracks" : {

                                }
                              },
                          "audio" : 
                              {
                                "id" : 157,
                                "_type" : "AMFile",
                                "src" : 1,
                                "trackNumber" : 2,
                                "attributes" : {
                                  "ident" : "",
                                  "gain" : 1.0,
                                  "mixToMono" : false
                                },
                                  "channelNumber" : "0,1",
                                "effects" : [

                                ],
                                "start" : 7544,
                                "duration" : 12,
                                "mediaStart" : 9741,
                                "mediaDuration" : 12,
                                "scalar" : 1,
                                "animationTracks" : {

                                }
                              }
,
                          "start" : 7544,
                          "duration" : 12,
                          "mediaStart" : 0,
                          "mediaDuration" : 10366,
                          "scalar" : 1,
                          "metadata" : {
                            "clipSpeedAttribute" : false,
                            "default-rotation1" : 0.0,
                            "default-scale0" : 0.25,
                            "default-scale1" : 0.25,
                            "default-translation0" : 480.0,
                            "default-translation1" : -270.0,
                            "effectApplied" : "none"
                          }
                        },
                        {
                          "id" : 158,
                          "_type" : "UnifiedMedia",
                          "video" : 
                              {
                                "id" : 159,
                                "_type" : "VMFile",
                                "src" : 1,
                                "trackNumber" : 1,
                                "attributes" : {
                                  "ident" : "06-04-00-ValoresDefaultParametros-UP"
                                },
                                "effects" : [

                                ],
                                "start" : 7556,
                                "duration" : 558,
                                "mediaStart" : 9808,
                                "mediaDuration" : 558,
                                "scalar" : 1,
                                "animationTracks" : {

                                }
                              },
                          "audio" : 
                              {
                                "id" : 160,
                                "_type" : "AMFile",
                                "src" : 1,
                                "trackNumber" : 2,
                                "attributes" : {
                                  "ident" : "",
                                  "gain" : 1.0,
                                  "mixToMono" : false
                                },
                                  "channelNumber" : "0,1",
                                "effects" : [

                                ],
                                "start" : 7556,
                                "duration" : 558,
                                "mediaStart" : 9808,
                                "mediaDuration" : 558,
                                "scalar" : 1,
                                "animationTracks" : {

                                }
                              }
,
                          "start" : 7556,
                          "duration" : 558,
                          "mediaStart" : 0,
                          "mediaDuration" : 10366,
                          "scalar" : 1,
                          "metadata" : {
                            "clipSpeedAttribute" : false,
                            "default-rotation1" : 0.0,
                            "default-scale0" : 0.25,
                            "default-scale1" : 0.25,
                            "default-translation0" : 480.0,
                            "default-translation1" : -270.0,
                            "effectApplied" : "none"
                          }
                        }
                    ],
                    "effects" : [
                        {
                          "effectName" : "ChromaKey",
                          "category" : "categoryVisualEffects",
                          "parameters" : {
                            "clrCompensation" : {
                              "type" : "double",
                              "defaultValue" : 0.0,
                              "interp" : "linr",
                              "uiHints" : {
                                "userInterfaceType" : 0,
                                "unitType" : 0
                              }
                            },
                            "color-alpha" : {
                              "type" : "double",
                              "defaultValue" : 1.0,
                              "interp" : "linr",
                              "uiHints" : {
                                "userInterfaceType" : 0,
                                "unitType" : 0
                              }
                            },
                            "color-blue" : {
                              "type" : "double",
                              "defaultValue" : 0.376470588235294,
                              "interp" : "linr",
                              "uiHints" : {
                                "userInterfaceType" : 0,
                                "unitType" : 0
                              }
                            },
                            "color-green" : {
                              "type" : "double",
                              "defaultValue" : 0.72156862745098,
                              "interp" : "linr",
                              "uiHints" : {
                                "userInterfaceType" : 0,
                                "unitType" : 0
                              }
                            },
                            "color-red" : {
                              "type" : "double",
                              "defaultValue" : 0.454901960784314,
                              "interp" : "linr",
                              "uiHints" : {
                                "userInterfaceType" : 0,
                                "unitType" : 0
                              }
                            },
                            "defringe" : {
                              "type" : "double",
                              "defaultValue" : 0.0,
                              "interp" : "linr",
                              "uiHints" : {
                                "userInterfaceType" : 0,
                                "unitType" : 0
                              }
                            },
                            "enabled" : 1,
                            "invertEffect" : 0.0,
                            "softness" : {
                              "type" : "double",
                              "defaultValue" : 0.08,
                              "interp" : "linr",
                              "uiHints" : {
                                "userInterfaceType" : 0,
                                "unitType" : 0
                              }
                            },
                            "tolerance" : {
                              "type" : "double",
                              "defaultValue" : 0.08,
                              "interp" : "linr",
                              "uiHints" : {
                                "userInterfaceType" : 0,
                                "unitType" : 0
                              }
                            }
                          },
                          "metadata" : {
                            "effectIndex" : "0"
                          }
                        }
                    ],
                    "start" : 0,
                    "duration" : 8012,
                    "mediaStart" : 59,
                    "mediaDuration" : 8012,
                    "scalar" : 1,
                    "metadata" : {
                      "clipSpeedAttribute" : false,
                      "effectApplied" : "none"
                    },
                    "animationTracks" : {

                    }
                  }
                ],
                "transitions" : [
                  {
                    "name" : "Fade",
                    "duration" : 30,
                    "trivial" : false,
                    "reverse" : false,
                    "useAudioPreRoll" : true,
                    "useVisualPreRoll" : true,
                    "rightMedia" : 43
                  },
                  {
                    "name" : "FadeThroughBlack",
                    "duration" : 30,
                    "trivial" : false,
                    "reverse" : false,
                    "useAudioPreRoll" : true,
                    "useVisualPreRoll" : true,
                    "leftMedia" : 43
                  }
                ]
              },
              {
                "trackIndex" : 2,
                "medias" : [
                  {
                    "id" : 161,
                    "_type" : "Group",
                    "parameters" : {
                      "translation0" : {
                        "type" : "double",
                        "defaultValue" : -669.315298789963,
                        "interp" : "eioe"
                      },
                      "translation1" : {
                        "type" : "double",
                        "defaultValue" : -228.071437185051,
                        "interp" : "eioe"
                      },
                      "scale0" : {
                        "type" : "double",
                        "defaultValue" : 0.666666686534882,
                        "interp" : "eioe"
                      },
                      "scale1" : {
                        "type" : "double",
                        "defaultValue" : 0.666666686534882,
                        "interp" : "eioe"
                      },
                      "volume" : 1.0
                    },
                    "tracks" : [
                      {
                        "trackIndex" : 0,
                        "medias" : [
                          {
                            "id" : 162,
                            "_type" : "Callout",
                            "def" : {
                              "kind" : "remix",
                              "shape" : "shape-rectangle",
                              "style" : "abstract",
                              "fill-color-blue" : {
                                "type" : "double",
                                "defaultValue" : 1.0,
                                "interp" : "linr",
                                "keyframes" : [
                                  {
                                    "endTime" : 10,
                                    "time" : 0,
                                    "value" : 1.0,
                                    "duration" : 10
                                  },
                                  {
                                    "endTime" : 214,
                                    "time" : 207,
                                    "value" : 1.0,
                                    "duration" : 7
                                  }
                                ]
                              },
                              "fill-color-green" : {
                                "type" : "double",
                                "defaultValue" : 0.996078431372549,
                                "interp" : "linr",
                                "keyframes" : [
                                  {
                                    "endTime" : 10,
                                    "time" : 0,
                                    "value" : 0.996078431372549,
                                    "duration" : 10
                                  },
                                  {
                                    "endTime" : 214,
                                    "time" : 207,
                                    "value" : 0.996078431372549,
                                    "duration" : 7
                                  }
                                ]
                              },
                              "fill-color-opacity" : {
                                "type" : "double",
                                "defaultValue" : 1.0,
                                "interp" : "linr"
                              },
                              "fill-color-red" : {
                                "type" : "double",
                                "defaultValue" : 1.0,
                                "interp" : "linr",
                                "keyframes" : [
                                  {
                                    "endTime" : 10,
                                    "time" : 0,
                                    "value" : 1.0,
                                    "duration" : 10
                                  },
                                  {
                                    "endTime" : 214,
                                    "time" : 207,
                                    "value" : 1.0,
                                    "duration" : 7
                                  }
                                ]
                              },
                              "height" : {
                                "type" : "double",
                                "defaultValue" : 158.785714285758,
                                "interp" : "linr"
                              },
                              "stroke-color-blue" : {
                                "type" : "double",
                                "defaultValue" : 1.0,
                                "interp" : "linr"
                              },
                              "stroke-color-green" : {
                                "type" : "double",
                                "defaultValue" : 1.0,
                                "interp" : "linr"
                              },
                              "stroke-color-opacity" : {
                                "type" : "double",
                                "defaultValue" : 1.0,
                                "interp" : "linr"
                              },
                              "stroke-color-red" : {
                                "type" : "double",
                                "defaultValue" : 1.0,
                                "interp" : "linr"
                              },
                              "stroke-width" : {
                                "type" : "double",
                                "defaultValue" : 0.0,
                                "interp" : "linr"
                              },
                              "width" : {
                                "type" : "double",
                                "defaultValue" : 1310.35714285747,
                                "interp" : "linr"
                              },
                              "fill-style" : "solid",
                              "horizontal-alignment" : "center",
                              "stroke-style" : "solid",
                              "vertical-alignment" : "center",
                              "textAttributes" : {
                                "type" : "textAttributeList",
                                "keyframes" : [
                                  {
                                    "endTime" : 0,
                                    "time" : 0,
                                    "value" : null,
                                    "duration" : 0
                                  }
                                ]
                              }
                            },
                            "attributes" : {
                              "autoRotateText" : true
                            },
                            "parameters" : {
                              "translation0" : {
                                "type" : "double",
                                "defaultValue" : 699.151489692914,
                                "interp" : "eioe",
                                "keyframes" : [
                                  {
                                    "endTime" : 10,
                                    "time" : 0,
                                    "value" : 699.151489692914,
                                    "duration" : 10
                                  },
                                  {
                                    "endTime" : 214,
                                    "time" : 207,
                                    "value" : -681.705635725968,
                                    "duration" : 7
                                  }
                                ]
                              },
                              "translation1" : {
                                "type" : "double",
                                "defaultValue" : -0.214282989490641,
                                "interp" : "eioe",
                                "keyframes" : [
                                  {
                                    "endTime" : 10,
                                    "time" : 0,
                                    "value" : -0.214282989490641,
                                    "duration" : 10
                                  },
                                  {
                                    "endTime" : 214,
                                    "time" : 207,
                                    "value" : -0.214282964015638,
                                    "duration" : 7
                                  }
                                ]
                              },
                              "geometryCrop2" : {
                                "type" : "double",
                                "defaultValue" : 1309.35717773438,
                                "interp" : "linr",
                                "keyframes" : [
                                  {
                                    "endTime" : 10,
                                    "time" : 0,
                                    "value" : 0.0,
                                    "duration" : 10
                                  }
                                ]
                              }
                            },
                            "effects" : [
                                {
                                  "effectName" : "DropShadow",
                                  "category" : "categoryVisualEffects",
                                  "parameters" : {
                                    "angle" : {
                                      "type" : "double",
                                      "defaultValue" : 0.0,
                                      "interp" : "linr",
                                      "valueBounds" : {
                                        "minValue" : 0.0,
                                        "maxValue" : 0.0,
                                        "defaultValue" : 5.49778714378214
                                      },
                                      "uiHints" : {
                                        "userInterfaceType" : 0,
                                        "unitType" : 0
                                      },
                                      "keyframes" : [
                                        {
                                          "endTime" : 10,
                                          "time" : 0,
                                          "value" : 0.0,
                                          "duration" : 10
                                        },
                                        {
                                          "endTime" : 214,
                                          "time" : 207,
                                          "value" : 0.0,
                                          "duration" : 7
                                        }
                                      ]
                                    },
                                    "blur" : {
                                      "type" : "double",
                                      "defaultValue" : 15.0,
                                      "interp" : "linr",
                                      "valueBounds" : {
                                        "minValue" : 0.0,
                                        "maxValue" : 50.0,
                                        "defaultValue" : 10.0
                                      },
                                      "uiHints" : {
                                        "userInterfaceType" : 0,
                                        "unitType" : 0
                                      },
                                      "keyframes" : [
                                        {
                                          "endTime" : 10,
                                          "time" : 0,
                                          "value" : 15.0,
                                          "duration" : 10
                                        },
                                        {
                                          "endTime" : 214,
                                          "time" : 207,
                                          "value" : 15.0,
                                          "duration" : 7
                                        }
                                      ]
                                    },
                                    "color-alpha" : {
                                      "type" : "double",
                                      "defaultValue" : 1.0,
                                      "interp" : "linr",
                                      "valueBounds" : {
                                        "minValue" : 0.0,
                                        "maxValue" : 1.0,
                                        "defaultValue" : 1.0
                                      },
                                      "uiHints" : {
                                        "userInterfaceType" : 0,
                                        "unitType" : 0
                                      }
                                    },
                                    "color-blue" : {
                                      "type" : "double",
                                      "defaultValue" : 0.1216,
                                      "interp" : "linr",
                                      "valueBounds" : {
                                        "minValue" : 0.0,
                                        "maxValue" : 1.0,
                                        "defaultValue" : 0.1216
                                      },
                                      "uiHints" : {
                                        "userInterfaceType" : 0,
                                        "unitType" : 0
                                      }
                                    },
                                    "color-green" : {
                                      "type" : "double",
                                      "defaultValue" : 0.1216,
                                      "interp" : "linr",
                                      "valueBounds" : {
                                        "minValue" : 0.0,
                                        "maxValue" : 1.0,
                                        "defaultValue" : 0.1216
                                      },
                                      "uiHints" : {
                                        "userInterfaceType" : 0,
                                        "unitType" : 0
                                      }
                                    },
                                    "color-red" : {
                                      "type" : "double",
                                      "defaultValue" : 0.1216,
                                      "interp" : "linr",
                                      "valueBounds" : {
                                        "minValue" : 0.0,
                                        "maxValue" : 1.0,
                                        "defaultValue" : 0.1216
                                      },
                                      "uiHints" : {
                                        "userInterfaceType" : 0,
                                        "unitType" : 0
                                      }
                                    },
                                    "enabled" : {
                                      "type" : "int",
                                      "valueBounds" : {
                                        "minValue" : 0,
                                        "maxValue" : 1,
                                        "defaultValue" : 1
                                      },
                                      "uiHints" : {
                                        "userInterfaceType" : 0,
                                        "unitType" : 0
                                      },
                                      "keyframes" : [
                                        {
                                          "endTime" : 0,
                                          "time" : 0,
                                          "value" : 1,
                                          "duration" : 0
                                        }
                                      ]
                                    },
                                    "offset" : {
                                      "type" : "double",
                                      "defaultValue" : 5.0,
                                      "interp" : "linr",
                                      "valueBounds" : {
                                        "minValue" : 0.0,
                                        "maxValue" : 250.0,
                                        "defaultValue" : 10.0
                                      },
                                      "uiHints" : {
                                        "userInterfaceType" : 0,
                                        "unitType" : 0
                                      },
                                      "keyframes" : [
                                        {
                                          "endTime" : 10,
                                          "time" : 0,
                                          "value" : 5.0,
                                          "duration" : 10
                                        },
                                        {
                                          "endTime" : 214,
                                          "time" : 207,
                                          "value" : 5.0,
                                          "duration" : 7
                                        }
                                      ]
                                    },
                                    "opacity" : {
                                      "type" : "double",
                                      "defaultValue" : 0.4,
                                      "interp" : "linr",
                                      "valueBounds" : {
                                        "minValue" : 0.0,
                                        "maxValue" : 1.0,
                                        "defaultValue" : 0.4
                                      },
                                      "uiHints" : {
                                        "userInterfaceType" : 0,
                                        "unitType" : 0
                                      }
                                    }
                                  }
                                }
                            ],
                            "start" : 0,
                            "duration" : 214,
                            "mediaStart" : 0,
                            "mediaDuration" : 214,
                            "scalar" : 1,
                            "metadata" : {
                              "WinSubProjectDisplayName" : "",
                              "clipSpeedAttribute" : false,
                              "effectApplied" : "none"
                            },
                            "animationTracks" : {
                              "visual" : [
                                {
                                  "endTime" : 10,
                                  "duration" : 10,
                                  "range" : [ 0, 10]
                                },
                                {
                                  "endTime" : 214,
                                  "duration" : 7,
                                  "range" : [ 207, 7]
                                }
                              ]
                            }
                          }
                        ],
                          "ident" : "",
                          "audioMuted" : false,
                          "videoHidden" : false,
                          "magnetic" : false,
                          "matte" : 0,
                          "metadata" : {
                            "IsLocked" : "False",
                            "WinTrackHeight" : "0",
                            "trackHeight" : "48"
                          }
                      },
                      {
                        "trackIndex" : 1,
                        "medias" : [
                          {
                            "id" : 163,
                            "_type" : "Callout",
                            "def" : {
                              "kind" : "remix",
                              "shape" : "shape-rectangle",
                              "style" : "abstract",
                              "fill-color-blue" : {
                                "type" : "double",
                                "defaultValue" : 0.541176470588235,
                                "interp" : "linr",
                                "keyframes" : [
                                  {
                                    "endTime" : 20,
                                    "time" : 5,
                                    "value" : 0.541176470588235,
                                    "duration" : 15
                                  },
                                  {
                                    "endTime" : 213,
                                    "time" : 197,
                                    "value" : 0.541176470588235,
                                    "duration" : 16
                                  }
                                ]
                              },
                              "fill-color-green" : {
                                "type" : "double",
                                "defaultValue" : 0.815686274509804,
                                "interp" : "linr",
                                "keyframes" : [
                                  {
                                    "endTime" : 20,
                                    "time" : 5,
                                    "value" : 0.815686274509804,
                                    "duration" : 15
                                  },
                                  {
                                    "endTime" : 213,
                                    "time" : 197,
                                    "value" : 0.815686274509804,
                                    "duration" : 16
                                  }
                                ]
                              },
                              "fill-color-opacity" : {
                                "type" : "double",
                                "defaultValue" : 1.0,
                                "interp" : "linr"
                              },
                              "fill-color-red" : {
                                "type" : "double",
                                "defaultValue" : 0.254901960784314,
                                "interp" : "linr",
                                "keyframes" : [
                                  {
                                    "endTime" : 20,
                                    "time" : 5,
                                    "value" : 0.254901960784314,
                                    "duration" : 15
                                  },
                                  {
                                    "endTime" : 213,
                                    "time" : 197,
                                    "value" : 0.254901960784314,
                                    "duration" : 16
                                  }
                                ]
                              },
                              "height" : {
                                "type" : "double",
                                "defaultValue" : 158.785714285758,
                                "interp" : "linr"
                              },
                              "stroke-color-blue" : {
                                "type" : "double",
                                "defaultValue" : 1.0,
                                "interp" : "linr"
                              },
                              "stroke-color-green" : {
                                "type" : "double",
                                "defaultValue" : 1.0,
                                "interp" : "linr"
                              },
                              "stroke-color-opacity" : {
                                "type" : "double",
                                "defaultValue" : 1.0,
                                "interp" : "linr"
                              },
                              "stroke-color-red" : {
                                "type" : "double",
                                "defaultValue" : 1.0,
                                "interp" : "linr"
                              },
                              "stroke-width" : {
                                "type" : "double",
                                "defaultValue" : 0.0,
                                "interp" : "linr"
                              },
                              "width" : {
                                "type" : "double",
                                "defaultValue" : 1310.35714285747,
                                "interp" : "linr"
                              },
                              "fill-style" : "solid",
                              "horizontal-alignment" : "center",
                              "stroke-style" : "solid",
                              "vertical-alignment" : "center",
                              "textAttributes" : {
                                "type" : "textAttributeList",
                                "keyframes" : [
                                  {
                                    "endTime" : 0,
                                    "time" : 0,
                                    "value" : null,
                                    "duration" : 0
                                  }
                                ]
                              }
                            },
                            "attributes" : {
                              "autoRotateText" : true
                            },
                            "parameters" : {
                              "translation0" : {
                                "type" : "double",
                                "defaultValue" : 699.151489692914,
                                "interp" : "eioe",
                                "keyframes" : [
                                  {
                                    "endTime" : 20,
                                    "time" : 5,
                                    "value" : 699.151489692914,
                                    "duration" : 15
                                  },
                                  {
                                    "endTime" : 213,
                                    "time" : 197,
                                    "value" : -621.919938879128,
                                    "duration" : 16
                                  }
                                ]
                              },
                              "translation1" : {
                                "type" : "double",
                                "defaultValue" : -0.214282989490641,
                                "interp" : "eioe",
                                "keyframes" : [
                                  {
                                    "endTime" : 20,
                                    "time" : 5,
                                    "value" : -0.214282989490641,
                                    "duration" : 15
                                  },
                                  {
                                    "endTime" : 213,
                                    "time" : 197,
                                    "value" : -0.214286259240623,
                                    "duration" : 16
                                  }
                                ]
                              },
                              "geometryCrop2" : {
                                "type" : "double",
                                "defaultValue" : 1309.35717773438,
                                "interp" : "linr",
                                "keyframes" : [
                                  {
                                    "endTime" : 20,
                                    "time" : 5,
                                    "value" : 0.0,
                                    "duration" : 15
                                  }
                                ]
                              }
                            },
                            "effects" : [
                                {
                                  "effectName" : "DropShadow",
                                  "category" : "categoryVisualEffects",
                                  "parameters" : {
                                    "angle" : {
                                      "type" : "double",
                                      "defaultValue" : 0.0,
                                      "interp" : "linr",
                                      "valueBounds" : {
                                        "minValue" : 0.0,
                                        "maxValue" : 0.0,
                                        "defaultValue" : 5.49778714378214
                                      },
                                      "uiHints" : {
                                        "userInterfaceType" : 0,
                                        "unitType" : 0
                                      },
                                      "keyframes" : [
                                        {
                                          "endTime" : 20,
                                          "time" : 5,
                                          "value" : 0.0,
                                          "duration" : 15
                                        },
                                        {
                                          "endTime" : 213,
                                          "time" : 197,
                                          "value" : 0.0,
                                          "duration" : 16
                                        }
                                      ]
                                    },
                                    "blur" : {
                                      "type" : "double",
                                      "defaultValue" : 15.0,
                                      "interp" : "linr",
                                      "valueBounds" : {
                                        "minValue" : 0.0,
                                        "maxValue" : 50.0,
                                        "defaultValue" : 10.0
                                      },
                                      "uiHints" : {
                                        "userInterfaceType" : 0,
                                        "unitType" : 0
                                      },
                                      "keyframes" : [
                                        {
                                          "endTime" : 20,
                                          "time" : 5,
                                          "value" : 15.0,
                                          "duration" : 15
                                        },
                                        {
                                          "endTime" : 213,
                                          "time" : 197,
                                          "value" : 15.0,
                                          "duration" : 16
                                        }
                                      ]
                                    },
                                    "color-alpha" : {
                                      "type" : "double",
                                      "defaultValue" : 1.0,
                                      "interp" : "linr",
                                      "valueBounds" : {
                                        "minValue" : 0.0,
                                        "maxValue" : 1.0,
                                        "defaultValue" : 1.0
                                      },
                                      "uiHints" : {
                                        "userInterfaceType" : 0,
                                        "unitType" : 0
                                      }
                                    },
                                    "color-blue" : {
                                      "type" : "double",
                                      "defaultValue" : 0.1216,
                                      "interp" : "linr",
                                      "valueBounds" : {
                                        "minValue" : 0.0,
                                        "maxValue" : 1.0,
                                        "defaultValue" : 0.1216
                                      },
                                      "uiHints" : {
                                        "userInterfaceType" : 0,
                                        "unitType" : 0
                                      }
                                    },
                                    "color-green" : {
                                      "type" : "double",
                                      "defaultValue" : 0.1216,
                                      "interp" : "linr",
                                      "valueBounds" : {
                                        "minValue" : 0.0,
                                        "maxValue" : 1.0,
                                        "defaultValue" : 0.1216
                                      },
                                      "uiHints" : {
                                        "userInterfaceType" : 0,
                                        "unitType" : 0
                                      }
                                    },
                                    "color-red" : {
                                      "type" : "double",
                                      "defaultValue" : 0.1216,
                                      "interp" : "linr",
                                      "valueBounds" : {
                                        "minValue" : 0.0,
                                        "maxValue" : 1.0,
                                        "defaultValue" : 0.1216
                                      },
                                      "uiHints" : {
                                        "userInterfaceType" : 0,
                                        "unitType" : 0
                                      }
                                    },
                                    "enabled" : {
                                      "type" : "int",
                                      "valueBounds" : {
                                        "minValue" : 0,
                                        "maxValue" : 1,
                                        "defaultValue" : 1
                                      },
                                      "uiHints" : {
                                        "userInterfaceType" : 0,
                                        "unitType" : 0
                                      },
                                      "keyframes" : [
                                        {
                                          "endTime" : 0,
                                          "time" : 0,
                                          "value" : 1,
                                          "duration" : 0
                                        }
                                      ]
                                    },
                                    "offset" : {
                                      "type" : "double",
                                      "defaultValue" : 5.0,
                                      "interp" : "linr",
                                      "valueBounds" : {
                                        "minValue" : 0.0,
                                        "maxValue" : 250.0,
                                        "defaultValue" : 10.0
                                      },
                                      "uiHints" : {
                                        "userInterfaceType" : 0,
                                        "unitType" : 0
                                      },
                                      "keyframes" : [
                                        {
                                          "endTime" : 20,
                                          "time" : 5,
                                          "value" : 5.0,
                                          "duration" : 15
                                        },
                                        {
                                          "endTime" : 213,
                                          "time" : 197,
                                          "value" : 5.0,
                                          "duration" : 16
                                        }
                                      ]
                                    },
                                    "opacity" : {
                                      "type" : "double",
                                      "defaultValue" : 0.4,
                                      "interp" : "linr",
                                      "valueBounds" : {
                                        "minValue" : 0.0,
                                        "maxValue" : 1.0,
                                        "defaultValue" : 0.4
                                      },
                                      "uiHints" : {
                                        "userInterfaceType" : 0,
                                        "unitType" : 0
                                      }
                                    }
                                  }
                                }
                            ],
                            "start" : 1,
                            "duration" : 213,
                            "mediaStart" : 0,
                            "mediaDuration" : 213,
                            "scalar" : 1,
                            "metadata" : {
                              "WinSubProjectDisplayName" : "",
                              "clipSpeedAttribute" : false,
                              "effectApplied" : "none"
                            },
                            "animationTracks" : {
                              "visual" : [
                                {
                                  "endTime" : 20,
                                  "duration" : 15,
                                  "range" : [ 5, 15]
                                },
                                {
                                  "endTime" : 213,
                                  "duration" : 16,
                                  "range" : [ 197, 16]
                                }
                              ]
                            }
                          }
                        ],
                          "ident" : "",
                          "audioMuted" : false,
                          "videoHidden" : false,
                          "magnetic" : false,
                          "matte" : 0,
                          "metadata" : {
                            "IsLocked" : "False",
                            "WinTrackHeight" : "1.35159763105127e-311",
                            "trackHeight" : "48"
                          }
                      },
                      {
                        "trackIndex" : 2,
                        "medias" : [
                          {
                            "id" : 164,
                            "_type" : "Callout",
                            "def" : {
                              "kind" : "remix",
                              "shape" : "shape-rectangle",
                              "style" : "abstract",
                              "fill-color-blue" : {
                                "type" : "double",
                                "defaultValue" : 0.647058823529412,
                                "interp" : "linr",
                                "keyframes" : [
                                  {
                                    "endTime" : 38,
                                    "time" : 13,
                                    "value" : 0.647058823529412,
                                    "duration" : 25
                                  }
                                ]
                              },
                              "fill-color-green" : {
                                "type" : "double",
                                "defaultValue" : 0.537254901960784,
                                "interp" : "linr",
                                "keyframes" : [
                                  {
                                    "endTime" : 38,
                                    "time" : 13,
                                    "value" : 0.537254901960784,
                                    "duration" : 25
                                  }
                                ]
                              },
                              "fill-color-opacity" : {
                                "type" : "double",
                                "defaultValue" : 1.0,
                                "interp" : "linr"
                              },
                              "fill-color-red" : {
                                "type" : "double",
                                "defaultValue" : 0.164705882352941,
                                "interp" : "linr",
                                "keyframes" : [
                                  {
                                    "endTime" : 38,
                                    "time" : 13,
                                    "value" : 0.164705882352941,
                                    "duration" : 25
                                  }
                                ]
                              },
                              "height" : {
                                "type" : "double",
                                "defaultValue" : 158.785714285758,
                                "interp" : "linr"
                              },
                              "stroke-color-blue" : {
                                "type" : "double",
                                "defaultValue" : 1.0,
                                "interp" : "linr"
                              },
                              "stroke-color-green" : {
                                "type" : "double",
                                "defaultValue" : 1.0,
                                "interp" : "linr"
                              },
                              "stroke-color-opacity" : {
                                "type" : "double",
                                "defaultValue" : 1.0,
                                "interp" : "linr"
                              },
                              "stroke-color-red" : {
                                "type" : "double",
                                "defaultValue" : 1.0,
                                "interp" : "linr"
                              },
                              "stroke-width" : {
                                "type" : "double",
                                "defaultValue" : 0.0,
                                "interp" : "linr"
                              },
                              "width" : {
                                "type" : "double",
                                "defaultValue" : 1310.35714285747,
                                "interp" : "linr"
                              },
                              "fill-style" : "solid",
                              "horizontal-alignment" : "center",
                              "stroke-style" : "solid",
                              "vertical-alignment" : "center",
                              "textAttributes" : {
                                "type" : "textAttributeList",
                                "keyframes" : [
                                  {
                                    "endTime" : 0,
                                    "time" : 0,
                                    "value" : null,
                                    "duration" : 0
                                  }
                                ]
                              }
                            },
                            "attributes" : {
                              "autoRotateText" : true
                            },
                            "parameters" : {
                              "translation0" : {
                                "type" : "double",
                                "defaultValue" : 699.151489692914,
                                "interp" : "eioe",
                                "keyframes" : [
                                  {
                                    "endTime" : 38,
                                    "time" : 13,
                                    "value" : 699.151489692914,
                                    "duration" : 25
                                  }
                                ]
                              },
                              "translation1" : {
                                "type" : "double",
                                "defaultValue" : -0.214282989490641,
                                "interp" : "eioe",
                                "keyframes" : [
                                  {
                                    "endTime" : 38,
                                    "time" : 13,
                                    "value" : -0.214282989490641,
                                    "duration" : 25
                                  }
                                ]
                              },
                              "geometryCrop2" : {
                                "type" : "double",
                                "defaultValue" : 1309.35717773438,
                                "interp" : "linr",
                                "keyframes" : [
                                  {
                                    "endTime" : 38,
                                    "time" : 13,
                                    "value" : 0.0,
                                    "duration" : 25
                                  }
                                ]
                              }
                            },
                            "effects" : [
                                {
                                  "effectName" : "DropShadow",
                                  "category" : "categoryVisualEffects",
                                  "parameters" : {
                                    "angle" : {
                                      "type" : "double",
                                      "defaultValue" : 0.0,
                                      "interp" : "linr",
                                      "valueBounds" : {
                                        "minValue" : 0.0,
                                        "maxValue" : 0.0,
                                        "defaultValue" : 5.49778714378214
                                      },
                                      "uiHints" : {
                                        "userInterfaceType" : 0,
                                        "unitType" : 0
                                      },
                                      "keyframes" : [
                                        {
                                          "endTime" : 38,
                                          "time" : 13,
                                          "value" : 0.0,
                                          "duration" : 25
                                        }
                                      ]
                                    },
                                    "blur" : {
                                      "type" : "double",
                                      "defaultValue" : 15.0,
                                      "interp" : "linr",
                                      "valueBounds" : {
                                        "minValue" : 0.0,
                                        "maxValue" : 50.0,
                                        "defaultValue" : 10.0
                                      },
                                      "uiHints" : {
                                        "userInterfaceType" : 0,
                                        "unitType" : 0
                                      },
                                      "keyframes" : [
                                        {
                                          "endTime" : 38,
                                          "time" : 13,
                                          "value" : 15.0,
                                          "duration" : 25
                                        }
                                      ]
                                    },
                                    "color-alpha" : {
                                      "type" : "double",
                                      "defaultValue" : 1.0,
                                      "interp" : "linr",
                                      "valueBounds" : {
                                        "minValue" : 0.0,
                                        "maxValue" : 1.0,
                                        "defaultValue" : 1.0
                                      },
                                      "uiHints" : {
                                        "userInterfaceType" : 0,
                                        "unitType" : 0
                                      }
                                    },
                                    "color-blue" : {
                                      "type" : "double",
                                      "defaultValue" : 0.1216,
                                      "interp" : "linr",
                                      "valueBounds" : {
                                        "minValue" : 0.0,
                                        "maxValue" : 1.0,
                                        "defaultValue" : 0.1216
                                      },
                                      "uiHints" : {
                                        "userInterfaceType" : 0,
                                        "unitType" : 0
                                      }
                                    },
                                    "color-green" : {
                                      "type" : "double",
                                      "defaultValue" : 0.1216,
                                      "interp" : "linr",
                                      "valueBounds" : {
                                        "minValue" : 0.0,
                                        "maxValue" : 1.0,
                                        "defaultValue" : 0.1216
                                      },
                                      "uiHints" : {
                                        "userInterfaceType" : 0,
                                        "unitType" : 0
                                      }
                                    },
                                    "color-red" : {
                                      "type" : "double",
                                      "defaultValue" : 0.1216,
                                      "interp" : "linr",
                                      "valueBounds" : {
                                        "minValue" : 0.0,
                                        "maxValue" : 1.0,
                                        "defaultValue" : 0.1216
                                      },
                                      "uiHints" : {
                                        "userInterfaceType" : 0,
                                        "unitType" : 0
                                      }
                                    },
                                    "enabled" : {
                                      "type" : "int",
                                      "valueBounds" : {
                                        "minValue" : 0,
                                        "maxValue" : 1,
                                        "defaultValue" : 1
                                      },
                                      "uiHints" : {
                                        "userInterfaceType" : 0,
                                        "unitType" : 0
                                      },
                                      "keyframes" : [
                                        {
                                          "endTime" : 0,
                                          "time" : 0,
                                          "value" : 1,
                                          "duration" : 0
                                        }
                                      ]
                                    },
                                    "offset" : {
                                      "type" : "double",
                                      "defaultValue" : 5.0,
                                      "interp" : "linr",
                                      "valueBounds" : {
                                        "minValue" : 0.0,
                                        "maxValue" : 250.0,
                                        "defaultValue" : 10.0
                                      },
                                      "uiHints" : {
                                        "userInterfaceType" : 0,
                                        "unitType" : 0
                                      },
                                      "keyframes" : [
                                        {
                                          "endTime" : 38,
                                          "time" : 13,
                                          "value" : 5.0,
                                          "duration" : 25
                                        }
                                      ]
                                    },
                                    "opacity" : {
                                      "type" : "double",
                                      "defaultValue" : 0.4,
                                      "interp" : "linr",
                                      "valueBounds" : {
                                        "minValue" : 0.0,
                                        "maxValue" : 1.0,
                                        "defaultValue" : 0.4
                                      },
                                      "uiHints" : {
                                        "userInterfaceType" : 0,
                                        "unitType" : 0
                                      }
                                    }
                                  }
                                }
                            ],
                            "start" : 0,
                            "duration" : 176,
                            "mediaStart" : 0,
                            "mediaDuration" : 176,
                            "scalar" : 1,
                            "metadata" : {
                              "WinSubProjectDisplayName" : "",
                              "clipSpeedAttribute" : false,
                              "effectApplied" : "none"
                            },
                            "animationTracks" : {
                              "visual" : [
                                {
                                  "endTime" : 38,
                                  "duration" : 25,
                                  "range" : [ 13, 25]
                                }
                              ]
                            }
                          }
                        ],
                          "ident" : "",
                          "audioMuted" : false,
                          "videoHidden" : false,
                          "magnetic" : false,
                          "matte" : 0,
                          "metadata" : {
                            "IsLocked" : "False",
                            "WinTrackHeight" : "1.35159763105127e-311",
                            "trackHeight" : "48"
                          }
                      },
                      {
                        "trackIndex" : 3,
                        "medias" : [
                          {
                            "id" : 165,
                            "_type" : "Callout",
                            "def" : {
                              "kind" : "remix",
                              "shape" : "shape-rectangle",
                              "style" : "abstract",
                              "fill-color-blue" : {
                                "type" : "double",
                                "defaultValue" : 0.694117647058824,
                                "interp" : "linr",
                                "keyframes" : [
                                  {
                                    "endTime" : 136,
                                    "time" : 0,
                                    "value" : 0.694117647058824,
                                    "duration" : 136
                                  },
                                  {
                                    "endTime" : 171,
                                    "time" : 146,
                                    "value" : 0.694117647058824,
                                    "duration" : 25
                                  }
                                ]
                              },
                              "fill-color-green" : {
                                "type" : "double",
                                "defaultValue" : 0.6,
                                "interp" : "linr",
                                "keyframes" : [
                                  {
                                    "endTime" : 136,
                                    "time" : 0,
                                    "value" : 0.6,
                                    "duration" : 136
                                  },
                                  {
                                    "endTime" : 171,
                                    "time" : 146,
                                    "value" : 0.6,
                                    "duration" : 25
                                  }
                                ]
                              },
                              "fill-color-opacity" : {
                                "type" : "double",
                                "defaultValue" : 1.0,
                                "interp" : "linr"
                              },
                              "fill-color-red" : {
                                "type" : "double",
                                "defaultValue" : 0.270588235294118,
                                "interp" : "linr",
                                "keyframes" : [
                                  {
                                    "endTime" : 136,
                                    "time" : 0,
                                    "value" : 0.270588235294118,
                                    "duration" : 136
                                  },
                                  {
                                    "endTime" : 171,
                                    "time" : 146,
                                    "value" : 0.270588235294118,
                                    "duration" : 25
                                  }
                                ]
                              },
                              "height" : {
                                "type" : "double",
                                "defaultValue" : 158.732564486591,
                                "interp" : "linr"
                              },
                              "stroke-color-blue" : {
                                "type" : "double",
                                "defaultValue" : 1.0,
                                "interp" : "linr"
                              },
                              "stroke-color-green" : {
                                "type" : "double",
                                "defaultValue" : 1.0,
                                "interp" : "linr"
                              },
                              "stroke-color-opacity" : {
                                "type" : "double",
                                "defaultValue" : 1.0,
                                "interp" : "linr"
                              },
                              "stroke-color-red" : {
                                "type" : "double",
                                "defaultValue" : 1.0,
                                "interp" : "linr"
                              },
                              "stroke-width" : {
                                "type" : "double",
                                "defaultValue" : 0.0,
                                "interp" : "linr"
                              },
                              "width" : {
                                "type" : "double",
                                "defaultValue" : 1282.42857142849,
                                "interp" : "linr",
                                "keyframes" : [
                                  {
                                    "endTime" : 136,
                                    "time" : 0,
                                    "value" : 1310.35713413821,
                                    "duration" : 136
                                  }
                                ]
                              },
                              "fill-style" : "solid",
                              "horizontal-alignment" : "center",
                              "stroke-style" : "solid",
                              "vertical-alignment" : "center",
                              "textAttributes" : {
                                "type" : "textAttributeList",
                                "keyframes" : [
                                  {
                                    "endTime" : 0,
                                    "time" : 0,
                                    "value" : null,
                                    "duration" : 0
                                  }
                                ]
                              }
                            },
                            "attributes" : {
                              "autoRotateText" : true
                            },
                            "parameters" : {
                              "translation0" : {
                                "type" : "double",
                                "defaultValue" : -713.115788486258,
                                "interp" : "eioe",
                                "keyframes" : [
                                  {
                                    "endTime" : 136,
                                    "time" : 0,
                                    "value" : 699.151494052664,
                                    "duration" : 136
                                  },
                                  {
                                    "endTime" : 171,
                                    "time" : 146,
                                    "value" : -616.134220233298,
                                    "duration" : 25
                                  }
                                ]
                              },
                              "translation1" : {
                                "type" : "double",
                                "defaultValue" : -0.0265737260986612,
                                "interp" : "eioe",
                                "keyframes" : [
                                  {
                                    "endTime" : 136,
                                    "time" : 0,
                                    "value" : -0.240860530284635,
                                    "duration" : 136
                                  },
                                  {
                                    "endTime" : 171,
                                    "time" : 146,
                                    "value" : -0.187705448583642,
                                    "duration" : 25
                                  }
                                ]
                              }
                            },
                            "effects" : [

                            ],
                            "start" : 38,
                            "duration" : 176,
                            "mediaStart" : 0,
                            "mediaDuration" : 176,
                            "scalar" : 1,
                            "metadata" : {
                              "WinSubProjectDisplayName" : "",
                              "clipSpeedAttribute" : false,
                              "effectApplied" : "none"
                            },
                            "animationTracks" : {
                              "visual" : [
                                {
                                  "endTime" : 136,
                                  "duration" : 136,
                                  "range" : [ 0, 136],
                                  "interp" : "linr"
                                },
                                {
                                  "endTime" : 171,
                                  "duration" : 25,
                                  "range" : [ 146, 25]
                                }
                              ]
                            }
                          }
                        ],
                          "ident" : "",
                          "audioMuted" : false,
                          "videoHidden" : false,
                          "magnetic" : false,
                          "matte" : 0,
                          "metadata" : {
                            "IsLocked" : "False",
                            "WinTrackHeight" : "1.35159763105127e-311",
                            "trackHeight" : "48"
                          }
                      },
                      {
                        "trackIndex" : 4,
                        "medias" : [
                          {
                            "id" : 166,
                            "_type" : "Callout",
                            "def" : {
                              "kind" : "remix",
                              "shape" : "text",
                              "style" : "basic",
                              "height" : {
                                "type" : "double",
                                "defaultValue" : 158.571428571689,
                                "interp" : "linr"
                              },
                              "line-spacing" : {
                                "type" : "double",
                                "defaultValue" : 0.0,
                                "interp" : "linr"
                              },
                              "width" : {
                                "type" : "double",
                                "defaultValue" : 1237.67669172885,
                                "interp" : "linr"
                              },
                              "word-wrap" : {
                                "type" : "double",
                                "defaultValue" : 1.0,
                                "interp" : "linr"
                              },
                              "horizontal-alignment" : "center",
                              "resize-behavior" : "resizeText",
                              "text" : "Valores por default de los parámetros",
                              "vertical-alignment" : "center",
                              "font" : {
                                "color-blue" : {
                                  "type" : "double",
                                  "defaultValue" : 1.0,
                                  "interp" : "linr"
                                },
                                "color-green" : {
                                  "type" : "double",
                                  "defaultValue" : 1.0,
                                  "interp" : "linr"
                                },
                                "color-red" : {
                                  "type" : "double",
                                  "defaultValue" : 1.0,
                                  "interp" : "linr"
                                },
                                "size" : {
                                  "type" : "double",
                                  "defaultValue" : 96.0,
                                  "interp" : "linr"
                                },
                                "tracking" : {
                                  "type" : "double",
                                  "defaultValue" : 0.0,
                                  "interp" : "linr"
                                },
                                "name" : "Montserrat",
                                "weight" : "Regular"
                              },
                              "textAttributes" : {
                                "type" : "textAttributeList",
                                "keyframes" : [
                                  {
                                    "endTime" : 0,
                                    "time" : 0,
                                    "value" : [{"name":"fontWeight","rangeEnd":38,"rangeStart":0,"value":400,"valueType":"int"},{"name":"kerning","rangeEnd":38,"rangeStart":0,"value":0,"valueType":"double"},{"name":"fontItalic","rangeEnd":38,"rangeStart":0,"value":0,"valueType":"int"},{"name":"fontName","rangeEnd":38,"rangeStart":0,"value":"Montserrat","valueType":"string"},{"name":"underline","rangeEnd":38,"rangeStart":0,"value":0,"valueType":"int"},{"name":"fgColor","rangeEnd":38,"rangeStart":0,"value":"(255,255,255,255)","valueType":"color"},{"name":"strikethrough","rangeEnd":38,"rangeStart":0,"value":0,"valueType":"int"},{"name":"fontSize","rangeEnd":38,"rangeStart":0,"value":96,"valueType":"double"}],
                                    "duration" : 0
                                  }
                                ]
                              }
                            },
                            "attributes" : {
                              "autoRotateText" : true
                            },
                            "parameters" : {
                              "translation0" : {
                                "type" : "double",
                                "defaultValue" : -579.329713314238,
                                "interp" : "eioe",
                                "keyframes" : [
                                  {
                                    "endTime" : 30,
                                    "time" : 2,
                                    "value" : 699.313143828538,
                                    "duration" : 28
                                  },
                                  {
                                    "endTime" : 180,
                                    "time" : 152,
                                    "value" : -598.615427600048,
                                    "duration" : 28
                                  }
                                ]
                              },
                              "translation1" : {
                                "type" : "double",
                                "defaultValue" : 0.107146671752332,
                                "interp" : "eioe",
                                "keyframes" : [
                                  {
                                    "endTime" : 30,
                                    "time" : 2,
                                    "value" : 0.107146671838336,
                                    "duration" : 28
                                  },
                                  {
                                    "endTime" : 180,
                                    "time" : 152,
                                    "value" : 0.107146671710382,
                                    "duration" : 28
                                  }
                                ]
                              }
                            },
                            "effects" : [
                                {
                                  "effectName" : "DropShadow",
                                  "category" : "categoryVisualEffects",
                                  "parameters" : {
                                    "angle" : {
                                      "type" : "double",
                                      "defaultValue" : 5.49778714378214,
                                      "interp" : "linr",
                                      "valueBounds" : {
                                        "minValue" : 0.0,
                                        "maxValue" : 0.0,
                                        "defaultValue" : 5.49778714378214
                                      },
                                      "uiHints" : {
                                        "userInterfaceType" : 0,
                                        "unitType" : 0
                                      }
                                    },
                                    "blur" : {
                                      "type" : "double",
                                      "defaultValue" : 10.0,
                                      "interp" : "linr",
                                      "valueBounds" : {
                                        "minValue" : 0.0,
                                        "maxValue" : 50.0,
                                        "defaultValue" : 10.0
                                      },
                                      "uiHints" : {
                                        "userInterfaceType" : 0,
                                        "unitType" : 0
                                      },
                                      "keyframes" : [
                                        {
                                          "endTime" : 30,
                                          "time" : 2,
                                          "value" : 10.0,
                                          "duration" : 28
                                        }
                                      ]
                                    },
                                    "color-alpha" : {
                                      "type" : "double",
                                      "defaultValue" : 1.0,
                                      "interp" : "linr",
                                      "valueBounds" : {
                                        "minValue" : 0.0,
                                        "maxValue" : 1.0,
                                        "defaultValue" : 1.0
                                      },
                                      "uiHints" : {
                                        "userInterfaceType" : 0,
                                        "unitType" : 0
                                      }
                                    },
                                    "color-blue" : {
                                      "type" : "double",
                                      "defaultValue" : 0.1216,
                                      "interp" : "linr",
                                      "valueBounds" : {
                                        "minValue" : 0.0,
                                        "maxValue" : 1.0,
                                        "defaultValue" : 0.1216
                                      },
                                      "uiHints" : {
                                        "userInterfaceType" : 0,
                                        "unitType" : 0
                                      }
                                    },
                                    "color-green" : {
                                      "type" : "double",
                                      "defaultValue" : 0.1216,
                                      "interp" : "linr",
                                      "valueBounds" : {
                                        "minValue" : 0.0,
                                        "maxValue" : 1.0,
                                        "defaultValue" : 0.1216
                                      },
                                      "uiHints" : {
                                        "userInterfaceType" : 0,
                                        "unitType" : 0
                                      }
                                    },
                                    "color-red" : {
                                      "type" : "double",
                                      "defaultValue" : 0.1216,
                                      "interp" : "linr",
                                      "valueBounds" : {
                                        "minValue" : 0.0,
                                        "maxValue" : 1.0,
                                        "defaultValue" : 0.1216
                                      },
                                      "uiHints" : {
                                        "userInterfaceType" : 0,
                                        "unitType" : 0
                                      }
                                    },
                                    "enabled" : {
                                      "type" : "int",
                                      "valueBounds" : {
                                        "minValue" : 0,
                                        "maxValue" : 1,
                                        "defaultValue" : 1
                                      },
                                      "uiHints" : {
                                        "userInterfaceType" : 0,
                                        "unitType" : 0
                                      },
                                      "keyframes" : [
                                        {
                                          "endTime" : 0,
                                          "time" : 0,
                                          "value" : 1,
                                          "duration" : 0
                                        }
                                      ]
                                    },
                                    "offset" : {
                                      "type" : "double",
                                      "defaultValue" : 10.0,
                                      "interp" : "linr",
                                      "valueBounds" : {
                                        "minValue" : 0.0,
                                        "maxValue" : 250.0,
                                        "defaultValue" : 10.0
                                      },
                                      "uiHints" : {
                                        "userInterfaceType" : 0,
                                        "unitType" : 0
                                      },
                                      "keyframes" : [
                                        {
                                          "endTime" : 30,
                                          "time" : 2,
                                          "value" : 10.0,
                                          "duration" : 28
                                        }
                                      ]
                                    },
                                    "opacity" : {
                                      "type" : "double",
                                      "defaultValue" : 0.4,
                                      "interp" : "linr",
                                      "valueBounds" : {
                                        "minValue" : 0.0,
                                        "maxValue" : 1.0,
                                        "defaultValue" : 0.4
                                      },
                                      "uiHints" : {
                                        "userInterfaceType" : 0,
                                        "unitType" : 0
                                      }
                                    }
                                  }
                                }
                            ],
                            "start" : 22,
                            "duration" : 180,
                            "mediaStart" : 0,
                            "mediaDuration" : 180,
                            "scalar" : 1,
                            "metadata" : {
                              "WinSubProjectDisplayName" : "",
                              "clipSpeedAttribute" : false,
                              "default-HAlign" : "center",
                              "default-LineSpace" : 0.0,
                              "default-VAlign" : "center",
                              "default-text-attributes" : "[{\"name\":\"fontName\",\"rangeEnd\":26,\"rangeStart\":0,\"value\":\"Montserrat\",\"valueType\":\"string\"},{\"name\":\"kerning\",\"rangeEnd\":26,\"rangeStart\":0,\"value\":0,\"valueType\":\"double\"},{\"name\":\"fontSize\",\"rangeEnd\":26,\"rangeStart\":0,\"value\":96,\"valueType\":\"double\"},{\"name\":\"strikethrough\",\"rangeEnd\":26,\"rangeStart\":0,\"value\":0,\"valueType\":\"int\"},{\"name\":\"underline\",\"rangeEnd\":26,\"rangeStart\":0,\"value\":0,\"valueType\":\"int\"},{\"name\":\"fontWeight\",\"rangeEnd\":26,\"rangeStart\":0,\"value\":400,\"valueType\":\"int\"},{\"name\":\"fontItalic\",\"rangeEnd\":26,\"rangeStart\":0,\"value\":0,\"valueType\":\"int\"},{\"name\":\"fgColor\",\"rangeEnd\":26,\"rangeStart\":0,\"value\":\"(255,255,255,255)\",\"valueType\":\"color\"}]",
                              "effectApplied" : "none"
                            },
                            "animationTracks" : {
                              "visual" : [
                                {
                                  "endTime" : 30,
                                  "duration" : 28,
                                  "range" : [ 2, 28],
                                  "interp" : "eioe"
                                },
                                {
                                  "endTime" : 180,
                                  "duration" : 28,
                                  "range" : [ 152, 28]
                                }
                              ]
                            }
                          }
                        ],
                          "ident" : "",
                          "audioMuted" : false,
                          "videoHidden" : false,
                          "magnetic" : false,
                          "matte" : 0,
                          "metadata" : {
                            "IsLocked" : "False",
                            "WinTrackHeight" : "1.35159763105127e-311",
                            "trackHeight" : "48"
                          }
                      }
                    ],
                    "attributes" : {
                      "ident" : "GM-texto2",
                      "gain" : 1.0,
                      "mixToMono" : false,
                      "assetProperties" : [
                        {
                          "type" : 0,
                          "name" : "Title",
                          "objects" : [ 166 ],
                          "themeMappings" :  {
                            "font-color" : "foreground-1",
                            "font-family" : "font-1"
                          }
                        },
                        {
                          "type" : 1,
                          "name" : "Color 1",
                          "objects" : [ 165 ],
                          "themeMappings" :  {
                            "fill" : "background-1"
                          }
                        },
                        {
                          "type" : 1,
                          "name" : "Color 2",
                          "objects" : [ 164 ],
                          "themeMappings" :  {
                            "fill" : "background-2"
                          }
                        },
                        {
                          "type" : 1,
                          "name" : "Color 3",
                          "objects" : [ 163 ],
                          "themeMappings" :  {
                            "fill" : "accent-1"
                          }
                        },
                        {
                          "type" : 1,
                          "name" : "Color 4",
                          "objects" : [ 162 ],
                          "themeMappings" :  {
                            "fill" : "foreground-1"
                          }
                        }
                      ]
                    },
                    "effects" : [

                    ],
                    "start" : 0,
                    "duration" : 214,
                    "mediaStart" : 0.0,
                    "mediaDuration" : 214.0,
                    "scalar" : 1,
                    "metadata" : {
                      "AppliedThemeId" : "",
                      "IsGroupExpanded" : "False",
                      "WinSubProjectDisplayName" : "",
                      "clipSpeedAttribute" : false,
                      "effectApplied" : "none",
                      "isOpen" : false
                    },
                    "animationTracks" : {

                    }
                  },
                  {
                    "id" : 167,
                    "_type" : "Group",
                    "parameters" : {
                      "translation0" : {
                        "type" : "double",
                        "defaultValue" : -669.315298789963,
                        "interp" : "eioe"
                      },
                      "translation1" : {
                        "type" : "double",
                        "defaultValue" : -228.071437185051,
                        "interp" : "eioe"
                      },
                      "scale0" : {
                        "type" : "double",
                        "defaultValue" : 0.666666686534882,
                        "interp" : "eioe"
                      },
                      "scale1" : {
                        "type" : "double",
                        "defaultValue" : 0.666666686534882,
                        "interp" : "eioe"
                      },
                      "volume" : 1.0
                    },
                    "tracks" : [
                      {
                        "trackIndex" : 0,
                        "medias" : [
                          {
                            "id" : 168,
                            "_type" : "Callout",
                            "def" : {
                              "kind" : "remix",
                              "shape" : "shape-rectangle",
                              "style" : "abstract",
                              "fill-color-blue" : {
                                "type" : "double",
                                "defaultValue" : 1.0,
                                "interp" : "linr",
                                "keyframes" : [
                                  {
                                    "endTime" : 10,
                                    "time" : 0,
                                    "value" : 1.0,
                                    "duration" : 10
                                  },
                                  {
                                    "endTime" : 214,
                                    "time" : 207,
                                    "value" : 1.0,
                                    "duration" : 7
                                  }
                                ]
                              },
                              "fill-color-green" : {
                                "type" : "double",
                                "defaultValue" : 0.996078431372549,
                                "interp" : "linr",
                                "keyframes" : [
                                  {
                                    "endTime" : 10,
                                    "time" : 0,
                                    "value" : 0.996078431372549,
                                    "duration" : 10
                                  },
                                  {
                                    "endTime" : 214,
                                    "time" : 207,
                                    "value" : 0.996078431372549,
                                    "duration" : 7
                                  }
                                ]
                              },
                              "fill-color-opacity" : {
                                "type" : "double",
                                "defaultValue" : 1.0,
                                "interp" : "linr"
                              },
                              "fill-color-red" : {
                                "type" : "double",
                                "defaultValue" : 1.0,
                                "interp" : "linr",
                                "keyframes" : [
                                  {
                                    "endTime" : 10,
                                    "time" : 0,
                                    "value" : 1.0,
                                    "duration" : 10
                                  },
                                  {
                                    "endTime" : 214,
                                    "time" : 207,
                                    "value" : 1.0,
                                    "duration" : 7
                                  }
                                ]
                              },
                              "height" : {
                                "type" : "double",
                                "defaultValue" : 158.785714285758,
                                "interp" : "linr"
                              },
                              "stroke-color-blue" : {
                                "type" : "double",
                                "defaultValue" : 1.0,
                                "interp" : "linr"
                              },
                              "stroke-color-green" : {
                                "type" : "double",
                                "defaultValue" : 1.0,
                                "interp" : "linr"
                              },
                              "stroke-color-opacity" : {
                                "type" : "double",
                                "defaultValue" : 1.0,
                                "interp" : "linr"
                              },
                              "stroke-color-red" : {
                                "type" : "double",
                                "defaultValue" : 1.0,
                                "interp" : "linr"
                              },
                              "stroke-width" : {
                                "type" : "double",
                                "defaultValue" : 0.0,
                                "interp" : "linr"
                              },
                              "width" : {
                                "type" : "double",
                                "defaultValue" : 1310.35714285747,
                                "interp" : "linr"
                              },
                              "fill-style" : "solid",
                              "horizontal-alignment" : "center",
                              "stroke-style" : "solid",
                              "vertical-alignment" : "center",
                              "textAttributes" : {
                                "type" : "textAttributeList",
                                "keyframes" : [
                                  {
                                    "endTime" : 0,
                                    "time" : 0,
                                    "value" : null,
                                    "duration" : 0
                                  }
                                ]
                              }
                            },
                            "attributes" : {
                              "autoRotateText" : true
                            },
                            "parameters" : {
                              "translation0" : {
                                "type" : "double",
                                "defaultValue" : 699.151489692914,
                                "interp" : "eioe",
                                "keyframes" : [
                                  {
                                    "endTime" : 10,
                                    "time" : 0,
                                    "value" : 699.151489692914,
                                    "duration" : 10
                                  },
                                  {
                                    "endTime" : 214,
                                    "time" : 207,
                                    "value" : -681.705635725968,
                                    "duration" : 7
                                  }
                                ]
                              },
                              "translation1" : {
                                "type" : "double",
                                "defaultValue" : -0.214282989490641,
                                "interp" : "eioe",
                                "keyframes" : [
                                  {
                                    "endTime" : 10,
                                    "time" : 0,
                                    "value" : -0.214282989490641,
                                    "duration" : 10
                                  },
                                  {
                                    "endTime" : 214,
                                    "time" : 207,
                                    "value" : -0.214282964015638,
                                    "duration" : 7
                                  }
                                ]
                              },
                              "geometryCrop2" : {
                                "type" : "double",
                                "defaultValue" : 1309.35717773438,
                                "interp" : "linr",
                                "keyframes" : [
                                  {
                                    "endTime" : 10,
                                    "time" : 0,
                                    "value" : 0.0,
                                    "duration" : 10
                                  }
                                ]
                              }
                            },
                            "effects" : [
                                {
                                  "effectName" : "DropShadow",
                                  "category" : "categoryVisualEffects",
                                  "parameters" : {
                                    "angle" : {
                                      "type" : "double",
                                      "defaultValue" : 0.0,
                                      "interp" : "linr",
                                      "valueBounds" : {
                                        "minValue" : 0.0,
                                        "maxValue" : 0.0,
                                        "defaultValue" : 5.49778714378214
                                      },
                                      "uiHints" : {
                                        "userInterfaceType" : 0,
                                        "unitType" : 0
                                      },
                                      "keyframes" : [
                                        {
                                          "endTime" : 10,
                                          "time" : 0,
                                          "value" : 0.0,
                                          "duration" : 10
                                        },
                                        {
                                          "endTime" : 214,
                                          "time" : 207,
                                          "value" : 0.0,
                                          "duration" : 7
                                        }
                                      ]
                                    },
                                    "blur" : {
                                      "type" : "double",
                                      "defaultValue" : 15.0,
                                      "interp" : "linr",
                                      "valueBounds" : {
                                        "minValue" : 0.0,
                                        "maxValue" : 50.0,
                                        "defaultValue" : 10.0
                                      },
                                      "uiHints" : {
                                        "userInterfaceType" : 0,
                                        "unitType" : 0
                                      },
                                      "keyframes" : [
                                        {
                                          "endTime" : 10,
                                          "time" : 0,
                                          "value" : 15.0,
                                          "duration" : 10
                                        },
                                        {
                                          "endTime" : 214,
                                          "time" : 207,
                                          "value" : 15.0,
                                          "duration" : 7
                                        }
                                      ]
                                    },
                                    "color-alpha" : {
                                      "type" : "double",
                                      "defaultValue" : 1.0,
                                      "interp" : "linr",
                                      "valueBounds" : {
                                        "minValue" : 0.0,
                                        "maxValue" : 1.0,
                                        "defaultValue" : 1.0
                                      },
                                      "uiHints" : {
                                        "userInterfaceType" : 0,
                                        "unitType" : 0
                                      }
                                    },
                                    "color-blue" : {
                                      "type" : "double",
                                      "defaultValue" : 0.1216,
                                      "interp" : "linr",
                                      "valueBounds" : {
                                        "minValue" : 0.0,
                                        "maxValue" : 1.0,
                                        "defaultValue" : 0.1216
                                      },
                                      "uiHints" : {
                                        "userInterfaceType" : 0,
                                        "unitType" : 0
                                      }
                                    },
                                    "color-green" : {
                                      "type" : "double",
                                      "defaultValue" : 0.1216,
                                      "interp" : "linr",
                                      "valueBounds" : {
                                        "minValue" : 0.0,
                                        "maxValue" : 1.0,
                                        "defaultValue" : 0.1216
                                      },
                                      "uiHints" : {
                                        "userInterfaceType" : 0,
                                        "unitType" : 0
                                      }
                                    },
                                    "color-red" : {
                                      "type" : "double",
                                      "defaultValue" : 0.1216,
                                      "interp" : "linr",
                                      "valueBounds" : {
                                        "minValue" : 0.0,
                                        "maxValue" : 1.0,
                                        "defaultValue" : 0.1216
                                      },
                                      "uiHints" : {
                                        "userInterfaceType" : 0,
                                        "unitType" : 0
                                      }
                                    },
                                    "enabled" : {
                                      "type" : "int",
                                      "valueBounds" : {
                                        "minValue" : 0,
                                        "maxValue" : 1,
                                        "defaultValue" : 1
                                      },
                                      "uiHints" : {
                                        "userInterfaceType" : 0,
                                        "unitType" : 0
                                      },
                                      "keyframes" : [
                                        {
                                          "endTime" : 0,
                                          "time" : 0,
                                          "value" : 1,
                                          "duration" : 0
                                        }
                                      ]
                                    },
                                    "offset" : {
                                      "type" : "double",
                                      "defaultValue" : 5.0,
                                      "interp" : "linr",
                                      "valueBounds" : {
                                        "minValue" : 0.0,
                                        "maxValue" : 250.0,
                                        "defaultValue" : 10.0
                                      },
                                      "uiHints" : {
                                        "userInterfaceType" : 0,
                                        "unitType" : 0
                                      },
                                      "keyframes" : [
                                        {
                                          "endTime" : 10,
                                          "time" : 0,
                                          "value" : 5.0,
                                          "duration" : 10
                                        },
                                        {
                                          "endTime" : 214,
                                          "time" : 207,
                                          "value" : 5.0,
                                          "duration" : 7
                                        }
                                      ]
                                    },
                                    "opacity" : {
                                      "type" : "double",
                                      "defaultValue" : 0.4,
                                      "interp" : "linr",
                                      "valueBounds" : {
                                        "minValue" : 0.0,
                                        "maxValue" : 1.0,
                                        "defaultValue" : 0.4
                                      },
                                      "uiHints" : {
                                        "userInterfaceType" : 0,
                                        "unitType" : 0
                                      }
                                    }
                                  }
                                }
                            ],
                            "start" : 0,
                            "duration" : 214,
                            "mediaStart" : 0,
                            "mediaDuration" : 214,
                            "scalar" : 1,
                            "metadata" : {
                              "WinSubProjectDisplayName" : "",
                              "clipSpeedAttribute" : false,
                              "effectApplied" : "none"
                            },
                            "animationTracks" : {
                              "visual" : [
                                {
                                  "endTime" : 10,
                                  "duration" : 10,
                                  "range" : [ 0, 10]
                                },
                                {
                                  "endTime" : 214,
                                  "duration" : 7,
                                  "range" : [ 207, 7]
                                }
                              ]
                            }
                          }
                        ],
                          "ident" : "",
                          "audioMuted" : false,
                          "videoHidden" : false,
                          "magnetic" : false,
                          "matte" : 0,
                          "metadata" : {
                            "IsLocked" : "False",
                            "WinTrackHeight" : "0",
                            "trackHeight" : "48"
                          }
                      },
                      {
                        "trackIndex" : 1,
                        "medias" : [
                          {
                            "id" : 169,
                            "_type" : "Callout",
                            "def" : {
                              "kind" : "remix",
                              "shape" : "shape-rectangle",
                              "style" : "abstract",
                              "fill-color-blue" : {
                                "type" : "double",
                                "defaultValue" : 0.541176470588235,
                                "interp" : "linr",
                                "keyframes" : [
                                  {
                                    "endTime" : 20,
                                    "time" : 5,
                                    "value" : 0.541176470588235,
                                    "duration" : 15
                                  },
                                  {
                                    "endTime" : 213,
                                    "time" : 197,
                                    "value" : 0.541176470588235,
                                    "duration" : 16
                                  }
                                ]
                              },
                              "fill-color-green" : {
                                "type" : "double",
                                "defaultValue" : 0.815686274509804,
                                "interp" : "linr",
                                "keyframes" : [
                                  {
                                    "endTime" : 20,
                                    "time" : 5,
                                    "value" : 0.815686274509804,
                                    "duration" : 15
                                  },
                                  {
                                    "endTime" : 213,
                                    "time" : 197,
                                    "value" : 0.815686274509804,
                                    "duration" : 16
                                  }
                                ]
                              },
                              "fill-color-opacity" : {
                                "type" : "double",
                                "defaultValue" : 1.0,
                                "interp" : "linr"
                              },
                              "fill-color-red" : {
                                "type" : "double",
                                "defaultValue" : 0.254901960784314,
                                "interp" : "linr",
                                "keyframes" : [
                                  {
                                    "endTime" : 20,
                                    "time" : 5,
                                    "value" : 0.254901960784314,
                                    "duration" : 15
                                  },
                                  {
                                    "endTime" : 213,
                                    "time" : 197,
                                    "value" : 0.254901960784314,
                                    "duration" : 16
                                  }
                                ]
                              },
                              "height" : {
                                "type" : "double",
                                "defaultValue" : 158.785714285758,
                                "interp" : "linr"
                              },
                              "stroke-color-blue" : {
                                "type" : "double",
                                "defaultValue" : 1.0,
                                "interp" : "linr"
                              },
                              "stroke-color-green" : {
                                "type" : "double",
                                "defaultValue" : 1.0,
                                "interp" : "linr"
                              },
                              "stroke-color-opacity" : {
                                "type" : "double",
                                "defaultValue" : 1.0,
                                "interp" : "linr"
                              },
                              "stroke-color-red" : {
                                "type" : "double",
                                "defaultValue" : 1.0,
                                "interp" : "linr"
                              },
                              "stroke-width" : {
                                "type" : "double",
                                "defaultValue" : 0.0,
                                "interp" : "linr"
                              },
                              "width" : {
                                "type" : "double",
                                "defaultValue" : 1310.35714285747,
                                "interp" : "linr"
                              },
                              "fill-style" : "solid",
                              "horizontal-alignment" : "center",
                              "stroke-style" : "solid",
                              "vertical-alignment" : "center",
                              "textAttributes" : {
                                "type" : "textAttributeList",
                                "keyframes" : [
                                  {
                                    "endTime" : 0,
                                    "time" : 0,
                                    "value" : null,
                                    "duration" : 0
                                  }
                                ]
                              }
                            },
                            "attributes" : {
                              "autoRotateText" : true
                            },
                            "parameters" : {
                              "translation0" : {
                                "type" : "double",
                                "defaultValue" : 699.151489692914,
                                "interp" : "eioe",
                                "keyframes" : [
                                  {
                                    "endTime" : 20,
                                    "time" : 5,
                                    "value" : 699.151489692914,
                                    "duration" : 15
                                  },
                                  {
                                    "endTime" : 213,
                                    "time" : 197,
                                    "value" : -621.919938879128,
                                    "duration" : 16
                                  }
                                ]
                              },
                              "translation1" : {
                                "type" : "double",
                                "defaultValue" : -0.214282989490641,
                                "interp" : "eioe",
                                "keyframes" : [
                                  {
                                    "endTime" : 20,
                                    "time" : 5,
                                    "value" : -0.214282989490641,
                                    "duration" : 15
                                  },
                                  {
                                    "endTime" : 213,
                                    "time" : 197,
                                    "value" : -0.214286259240623,
                                    "duration" : 16
                                  }
                                ]
                              },
                              "geometryCrop2" : {
                                "type" : "double",
                                "defaultValue" : 1309.35717773438,
                                "interp" : "linr",
                                "keyframes" : [
                                  {
                                    "endTime" : 20,
                                    "time" : 5,
                                    "value" : 0.0,
                                    "duration" : 15
                                  }
                                ]
                              }
                            },
                            "effects" : [
                                {
                                  "effectName" : "DropShadow",
                                  "category" : "categoryVisualEffects",
                                  "parameters" : {
                                    "angle" : {
                                      "type" : "double",
                                      "defaultValue" : 0.0,
                                      "interp" : "linr",
                                      "valueBounds" : {
                                        "minValue" : 0.0,
                                        "maxValue" : 0.0,
                                        "defaultValue" : 5.49778714378214
                                      },
                                      "uiHints" : {
                                        "userInterfaceType" : 0,
                                        "unitType" : 0
                                      },
                                      "keyframes" : [
                                        {
                                          "endTime" : 20,
                                          "time" : 5,
                                          "value" : 0.0,
                                          "duration" : 15
                                        },
                                        {
                                          "endTime" : 213,
                                          "time" : 197,
                                          "value" : 0.0,
                                          "duration" : 16
                                        }
                                      ]
                                    },
                                    "blur" : {
                                      "type" : "double",
                                      "defaultValue" : 15.0,
                                      "interp" : "linr",
                                      "valueBounds" : {
                                        "minValue" : 0.0,
                                        "maxValue" : 50.0,
                                        "defaultValue" : 10.0
                                      },
                                      "uiHints" : {
                                        "userInterfaceType" : 0,
                                        "unitType" : 0
                                      },
                                      "keyframes" : [
                                        {
                                          "endTime" : 20,
                                          "time" : 5,
                                          "value" : 15.0,
                                          "duration" : 15
                                        },
                                        {
                                          "endTime" : 213,
                                          "time" : 197,
                                          "value" : 15.0,
                                          "duration" : 16
                                        }
                                      ]
                                    },
                                    "color-alpha" : {
                                      "type" : "double",
                                      "defaultValue" : 1.0,
                                      "interp" : "linr",
                                      "valueBounds" : {
                                        "minValue" : 0.0,
                                        "maxValue" : 1.0,
                                        "defaultValue" : 1.0
                                      },
                                      "uiHints" : {
                                        "userInterfaceType" : 0,
                                        "unitType" : 0
                                      }
                                    },
                                    "color-blue" : {
                                      "type" : "double",
                                      "defaultValue" : 0.1216,
                                      "interp" : "linr",
                                      "valueBounds" : {
                                        "minValue" : 0.0,
                                        "maxValue" : 1.0,
                                        "defaultValue" : 0.1216
                                      },
                                      "uiHints" : {
                                        "userInterfaceType" : 0,
                                        "unitType" : 0
                                      }
                                    },
                                    "color-green" : {
                                      "type" : "double",
                                      "defaultValue" : 0.1216,
                                      "interp" : "linr",
                                      "valueBounds" : {
                                        "minValue" : 0.0,
                                        "maxValue" : 1.0,
                                        "defaultValue" : 0.1216
                                      },
                                      "uiHints" : {
                                        "userInterfaceType" : 0,
                                        "unitType" : 0
                                      }
                                    },
                                    "color-red" : {
                                      "type" : "double",
                                      "defaultValue" : 0.1216,
                                      "interp" : "linr",
                                      "valueBounds" : {
                                        "minValue" : 0.0,
                                        "maxValue" : 1.0,
                                        "defaultValue" : 0.1216
                                      },
                                      "uiHints" : {
                                        "userInterfaceType" : 0,
                                        "unitType" : 0
                                      }
                                    },
                                    "enabled" : {
                                      "type" : "int",
                                      "valueBounds" : {
                                        "minValue" : 0,
                                        "maxValue" : 1,
                                        "defaultValue" : 1
                                      },
                                      "uiHints" : {
                                        "userInterfaceType" : 0,
                                        "unitType" : 0
                                      },
                                      "keyframes" : [
                                        {
                                          "endTime" : 0,
                                          "time" : 0,
                                          "value" : 1,
                                          "duration" : 0
                                        }
                                      ]
                                    },
                                    "offset" : {
                                      "type" : "double",
                                      "defaultValue" : 5.0,
                                      "interp" : "linr",
                                      "valueBounds" : {
                                        "minValue" : 0.0,
                                        "maxValue" : 250.0,
                                        "defaultValue" : 10.0
                                      },
                                      "uiHints" : {
                                        "userInterfaceType" : 0,
                                        "unitType" : 0
                                      },
                                      "keyframes" : [
                                        {
                                          "endTime" : 20,
                                          "time" : 5,
                                          "value" : 5.0,
                                          "duration" : 15
                                        },
                                        {
                                          "endTime" : 213,
                                          "time" : 197,
                                          "value" : 5.0,
                                          "duration" : 16
                                        }
                                      ]
                                    },
                                    "opacity" : {
                                      "type" : "double",
                                      "defaultValue" : 0.4,
                                      "interp" : "linr",
                                      "valueBounds" : {
                                        "minValue" : 0.0,
                                        "maxValue" : 1.0,
                                        "defaultValue" : 0.4
                                      },
                                      "uiHints" : {
                                        "userInterfaceType" : 0,
                                        "unitType" : 0
                                      }
                                    }
                                  }
                                }
                            ],
                            "start" : 1,
                            "duration" : 213,
                            "mediaStart" : 0,
                            "mediaDuration" : 213,
                            "scalar" : 1,
                            "metadata" : {
                              "WinSubProjectDisplayName" : "",
                              "clipSpeedAttribute" : false,
                              "effectApplied" : "none"
                            },
                            "animationTracks" : {
                              "visual" : [
                                {
                                  "endTime" : 20,
                                  "duration" : 15,
                                  "range" : [ 5, 15]
                                },
                                {
                                  "endTime" : 213,
                                  "duration" : 16,
                                  "range" : [ 197, 16]
                                }
                              ]
                            }
                          }
                        ],
                          "ident" : "",
                          "audioMuted" : false,
                          "videoHidden" : false,
                          "magnetic" : false,
                          "matte" : 0,
                          "metadata" : {
                            "IsLocked" : "False",
                            "WinTrackHeight" : "1.35159763105127e-311",
                            "trackHeight" : "48"
                          }
                      },
                      {
                        "trackIndex" : 2,
                        "medias" : [
                          {
                            "id" : 170,
                            "_type" : "Callout",
                            "def" : {
                              "kind" : "remix",
                              "shape" : "shape-rectangle",
                              "style" : "abstract",
                              "fill-color-blue" : {
                                "type" : "double",
                                "defaultValue" : 0.647058823529412,
                                "interp" : "linr",
                                "keyframes" : [
                                  {
                                    "endTime" : 38,
                                    "time" : 13,
                                    "value" : 0.647058823529412,
                                    "duration" : 25
                                  }
                                ]
                              },
                              "fill-color-green" : {
                                "type" : "double",
                                "defaultValue" : 0.537254901960784,
                                "interp" : "linr",
                                "keyframes" : [
                                  {
                                    "endTime" : 38,
                                    "time" : 13,
                                    "value" : 0.537254901960784,
                                    "duration" : 25
                                  }
                                ]
                              },
                              "fill-color-opacity" : {
                                "type" : "double",
                                "defaultValue" : 1.0,
                                "interp" : "linr"
                              },
                              "fill-color-red" : {
                                "type" : "double",
                                "defaultValue" : 0.164705882352941,
                                "interp" : "linr",
                                "keyframes" : [
                                  {
                                    "endTime" : 38,
                                    "time" : 13,
                                    "value" : 0.164705882352941,
                                    "duration" : 25
                                  }
                                ]
                              },
                              "height" : {
                                "type" : "double",
                                "defaultValue" : 158.785714285758,
                                "interp" : "linr"
                              },
                              "stroke-color-blue" : {
                                "type" : "double",
                                "defaultValue" : 1.0,
                                "interp" : "linr"
                              },
                              "stroke-color-green" : {
                                "type" : "double",
                                "defaultValue" : 1.0,
                                "interp" : "linr"
                              },
                              "stroke-color-opacity" : {
                                "type" : "double",
                                "defaultValue" : 1.0,
                                "interp" : "linr"
                              },
                              "stroke-color-red" : {
                                "type" : "double",
                                "defaultValue" : 1.0,
                                "interp" : "linr"
                              },
                              "stroke-width" : {
                                "type" : "double",
                                "defaultValue" : 0.0,
                                "interp" : "linr"
                              },
                              "width" : {
                                "type" : "double",
                                "defaultValue" : 1310.35714285747,
                                "interp" : "linr"
                              },
                              "fill-style" : "solid",
                              "horizontal-alignment" : "center",
                              "stroke-style" : "solid",
                              "vertical-alignment" : "center",
                              "textAttributes" : {
                                "type" : "textAttributeList",
                                "keyframes" : [
                                  {
                                    "endTime" : 0,
                                    "time" : 0,
                                    "value" : null,
                                    "duration" : 0
                                  }
                                ]
                              }
                            },
                            "attributes" : {
                              "autoRotateText" : true
                            },
                            "parameters" : {
                              "translation0" : {
                                "type" : "double",
                                "defaultValue" : 699.151489692914,
                                "interp" : "eioe",
                                "keyframes" : [
                                  {
                                    "endTime" : 38,
                                    "time" : 13,
                                    "value" : 699.151489692914,
                                    "duration" : 25
                                  }
                                ]
                              },
                              "translation1" : {
                                "type" : "double",
                                "defaultValue" : -0.214282989490641,
                                "interp" : "eioe",
                                "keyframes" : [
                                  {
                                    "endTime" : 38,
                                    "time" : 13,
                                    "value" : -0.214282989490641,
                                    "duration" : 25
                                  }
                                ]
                              },
                              "geometryCrop2" : {
                                "type" : "double",
                                "defaultValue" : 1309.35717773438,
                                "interp" : "linr",
                                "keyframes" : [
                                  {
                                    "endTime" : 38,
                                    "time" : 13,
                                    "value" : 0.0,
                                    "duration" : 25
                                  }
                                ]
                              }
                            },
                            "effects" : [
                                {
                                  "effectName" : "DropShadow",
                                  "category" : "categoryVisualEffects",
                                  "parameters" : {
                                    "angle" : {
                                      "type" : "double",
                                      "defaultValue" : 0.0,
                                      "interp" : "linr",
                                      "valueBounds" : {
                                        "minValue" : 0.0,
                                        "maxValue" : 0.0,
                                        "defaultValue" : 5.49778714378214
                                      },
                                      "uiHints" : {
                                        "userInterfaceType" : 0,
                                        "unitType" : 0
                                      },
                                      "keyframes" : [
                                        {
                                          "endTime" : 38,
                                          "time" : 13,
                                          "value" : 0.0,
                                          "duration" : 25
                                        }
                                      ]
                                    },
                                    "blur" : {
                                      "type" : "double",
                                      "defaultValue" : 15.0,
                                      "interp" : "linr",
                                      "valueBounds" : {
                                        "minValue" : 0.0,
                                        "maxValue" : 50.0,
                                        "defaultValue" : 10.0
                                      },
                                      "uiHints" : {
                                        "userInterfaceType" : 0,
                                        "unitType" : 0
                                      },
                                      "keyframes" : [
                                        {
                                          "endTime" : 38,
                                          "time" : 13,
                                          "value" : 15.0,
                                          "duration" : 25
                                        }
                                      ]
                                    },
                                    "color-alpha" : {
                                      "type" : "double",
                                      "defaultValue" : 1.0,
                                      "interp" : "linr",
                                      "valueBounds" : {
                                        "minValue" : 0.0,
                                        "maxValue" : 1.0,
                                        "defaultValue" : 1.0
                                      },
                                      "uiHints" : {
                                        "userInterfaceType" : 0,
                                        "unitType" : 0
                                      }
                                    },
                                    "color-blue" : {
                                      "type" : "double",
                                      "defaultValue" : 0.1216,
                                      "interp" : "linr",
                                      "valueBounds" : {
                                        "minValue" : 0.0,
                                        "maxValue" : 1.0,
                                        "defaultValue" : 0.1216
                                      },
                                      "uiHints" : {
                                        "userInterfaceType" : 0,
                                        "unitType" : 0
                                      }
                                    },
                                    "color-green" : {
                                      "type" : "double",
                                      "defaultValue" : 0.1216,
                                      "interp" : "linr",
                                      "valueBounds" : {
                                        "minValue" : 0.0,
                                        "maxValue" : 1.0,
                                        "defaultValue" : 0.1216
                                      },
                                      "uiHints" : {
                                        "userInterfaceType" : 0,
                                        "unitType" : 0
                                      }
                                    },
                                    "color-red" : {
                                      "type" : "double",
                                      "defaultValue" : 0.1216,
                                      "interp" : "linr",
                                      "valueBounds" : {
                                        "minValue" : 0.0,
                                        "maxValue" : 1.0,
                                        "defaultValue" : 0.1216
                                      },
                                      "uiHints" : {
                                        "userInterfaceType" : 0,
                                        "unitType" : 0
                                      }
                                    },
                                    "enabled" : {
                                      "type" : "int",
                                      "valueBounds" : {
                                        "minValue" : 0,
                                        "maxValue" : 1,
                                        "defaultValue" : 1
                                      },
                                      "uiHints" : {
                                        "userInterfaceType" : 0,
                                        "unitType" : 0
                                      },
                                      "keyframes" : [
                                        {
                                          "endTime" : 0,
                                          "time" : 0,
                                          "value" : 1,
                                          "duration" : 0
                                        }
                                      ]
                                    },
                                    "offset" : {
                                      "type" : "double",
                                      "defaultValue" : 5.0,
                                      "interp" : "linr",
                                      "valueBounds" : {
                                        "minValue" : 0.0,
                                        "maxValue" : 250.0,
                                        "defaultValue" : 10.0
                                      },
                                      "uiHints" : {
                                        "userInterfaceType" : 0,
                                        "unitType" : 0
                                      },
                                      "keyframes" : [
                                        {
                                          "endTime" : 38,
                                          "time" : 13,
                                          "value" : 5.0,
                                          "duration" : 25
                                        }
                                      ]
                                    },
                                    "opacity" : {
                                      "type" : "double",
                                      "defaultValue" : 0.4,
                                      "interp" : "linr",
                                      "valueBounds" : {
                                        "minValue" : 0.0,
                                        "maxValue" : 1.0,
                                        "defaultValue" : 0.4
                                      },
                                      "uiHints" : {
                                        "userInterfaceType" : 0,
                                        "unitType" : 0
                                      }
                                    }
                                  }
                                }
                            ],
                            "start" : 0,
                            "duration" : 176,
                            "mediaStart" : 0,
                            "mediaDuration" : 176,
                            "scalar" : 1,
                            "metadata" : {
                              "WinSubProjectDisplayName" : "",
                              "clipSpeedAttribute" : false,
                              "effectApplied" : "none"
                            },
                            "animationTracks" : {
                              "visual" : [
                                {
                                  "endTime" : 38,
                                  "duration" : 25,
                                  "range" : [ 13, 25]
                                }
                              ]
                            }
                          }
                        ],
                          "ident" : "",
                          "audioMuted" : false,
                          "videoHidden" : false,
                          "magnetic" : false,
                          "matte" : 0,
                          "metadata" : {
                            "IsLocked" : "False",
                            "WinTrackHeight" : "1.35159763105127e-311",
                            "trackHeight" : "48"
                          }
                      },
                      {
                        "trackIndex" : 3,
                        "medias" : [
                          {
                            "id" : 171,
                            "_type" : "Callout",
                            "def" : {
                              "kind" : "remix",
                              "shape" : "shape-rectangle",
                              "style" : "abstract",
                              "fill-color-blue" : {
                                "type" : "double",
                                "defaultValue" : 0.694117647058824,
                                "interp" : "linr",
                                "keyframes" : [
                                  {
                                    "endTime" : 136,
                                    "time" : 0,
                                    "value" : 0.694117647058824,
                                    "duration" : 136
                                  },
                                  {
                                    "endTime" : 171,
                                    "time" : 146,
                                    "value" : 0.694117647058824,
                                    "duration" : 25
                                  }
                                ]
                              },
                              "fill-color-green" : {
                                "type" : "double",
                                "defaultValue" : 0.6,
                                "interp" : "linr",
                                "keyframes" : [
                                  {
                                    "endTime" : 136,
                                    "time" : 0,
                                    "value" : 0.6,
                                    "duration" : 136
                                  },
                                  {
                                    "endTime" : 171,
                                    "time" : 146,
                                    "value" : 0.6,
                                    "duration" : 25
                                  }
                                ]
                              },
                              "fill-color-opacity" : {
                                "type" : "double",
                                "defaultValue" : 1.0,
                                "interp" : "linr"
                              },
                              "fill-color-red" : {
                                "type" : "double",
                                "defaultValue" : 0.270588235294118,
                                "interp" : "linr",
                                "keyframes" : [
                                  {
                                    "endTime" : 136,
                                    "time" : 0,
                                    "value" : 0.270588235294118,
                                    "duration" : 136
                                  },
                                  {
                                    "endTime" : 171,
                                    "time" : 146,
                                    "value" : 0.270588235294118,
                                    "duration" : 25
                                  }
                                ]
                              },
                              "height" : {
                                "type" : "double",
                                "defaultValue" : 158.732564486591,
                                "interp" : "linr"
                              },
                              "stroke-color-blue" : {
                                "type" : "double",
                                "defaultValue" : 1.0,
                                "interp" : "linr"
                              },
                              "stroke-color-green" : {
                                "type" : "double",
                                "defaultValue" : 1.0,
                                "interp" : "linr"
                              },
                              "stroke-color-opacity" : {
                                "type" : "double",
                                "defaultValue" : 1.0,
                                "interp" : "linr"
                              },
                              "stroke-color-red" : {
                                "type" : "double",
                                "defaultValue" : 1.0,
                                "interp" : "linr"
                              },
                              "stroke-width" : {
                                "type" : "double",
                                "defaultValue" : 0.0,
                                "interp" : "linr"
                              },
                              "width" : {
                                "type" : "double",
                                "defaultValue" : 1282.42857142849,
                                "interp" : "linr",
                                "keyframes" : [
                                  {
                                    "endTime" : 136,
                                    "time" : 0,
                                    "value" : 1310.35713413821,
                                    "duration" : 136
                                  }
                                ]
                              },
                              "fill-style" : "solid",
                              "horizontal-alignment" : "center",
                              "stroke-style" : "solid",
                              "vertical-alignment" : "center",
                              "textAttributes" : {
                                "type" : "textAttributeList",
                                "keyframes" : [
                                  {
                                    "endTime" : 0,
                                    "time" : 0,
                                    "value" : null,
                                    "duration" : 0
                                  }
                                ]
                              }
                            },
                            "attributes" : {
                              "autoRotateText" : true
                            },
                            "parameters" : {
                              "translation0" : {
                                "type" : "double",
                                "defaultValue" : -713.115788486258,
                                "interp" : "eioe",
                                "keyframes" : [
                                  {
                                    "endTime" : 136,
                                    "time" : 0,
                                    "value" : 699.151494052664,
                                    "duration" : 136
                                  },
                                  {
                                    "endTime" : 171,
                                    "time" : 146,
                                    "value" : -616.134220233298,
                                    "duration" : 25
                                  }
                                ]
                              },
                              "translation1" : {
                                "type" : "double",
                                "defaultValue" : -0.0265737260986612,
                                "interp" : "eioe",
                                "keyframes" : [
                                  {
                                    "endTime" : 136,
                                    "time" : 0,
                                    "value" : -0.240860530284635,
                                    "duration" : 136
                                  },
                                  {
                                    "endTime" : 171,
                                    "time" : 146,
                                    "value" : -0.187705448583642,
                                    "duration" : 25
                                  }
                                ]
                              }
                            },
                            "effects" : [

                            ],
                            "start" : 38,
                            "duration" : 176,
                            "mediaStart" : 0,
                            "mediaDuration" : 176,
                            "scalar" : 1,
                            "metadata" : {
                              "WinSubProjectDisplayName" : "",
                              "clipSpeedAttribute" : false,
                              "effectApplied" : "none"
                            },
                            "animationTracks" : {
                              "visual" : [
                                {
                                  "endTime" : 136,
                                  "duration" : 136,
                                  "range" : [ 0, 136],
                                  "interp" : "linr"
                                },
                                {
                                  "endTime" : 171,
                                  "duration" : 25,
                                  "range" : [ 146, 25]
                                }
                              ]
                            }
                          }
                        ],
                          "ident" : "",
                          "audioMuted" : false,
                          "videoHidden" : false,
                          "magnetic" : false,
                          "matte" : 0,
                          "metadata" : {
                            "IsLocked" : "False",
                            "WinTrackHeight" : "1.35159763105127e-311",
                            "trackHeight" : "48"
                          }
                      },
                      {
                        "trackIndex" : 4,
                        "medias" : [
                          {
                            "id" : 172,
                            "_type" : "Callout",
                            "def" : {
                              "kind" : "remix",
                              "shape" : "text",
                              "style" : "basic",
                              "height" : {
                                "type" : "double",
                                "defaultValue" : 158.571428571689,
                                "interp" : "linr"
                              },
                              "line-spacing" : {
                                "type" : "double",
                                "defaultValue" : 0.0,
                                "interp" : "linr"
                              },
                              "width" : {
                                "type" : "double",
                                "defaultValue" : 1237.67669172885,
                                "interp" : "linr"
                              },
                              "word-wrap" : {
                                "type" : "double",
                                "defaultValue" : 1.0,
                                "interp" : "linr"
                              },
                              "horizontal-alignment" : "center",
                              "resize-behavior" : "resizeText",
                              "text" : "www.GlobalMentoring.com.mx",
                              "vertical-alignment" : "center",
                              "font" : {
                                "color-blue" : {
                                  "type" : "double",
                                  "defaultValue" : 1.0,
                                  "interp" : "linr"
                                },
                                "color-green" : {
                                  "type" : "double",
                                  "defaultValue" : 1.0,
                                  "interp" : "linr"
                                },
                                "color-red" : {
                                  "type" : "double",
                                  "defaultValue" : 1.0,
                                  "interp" : "linr"
                                },
                                "size" : {
                                  "type" : "double",
                                  "defaultValue" : 96.0,
                                  "interp" : "linr"
                                },
                                "tracking" : {
                                  "type" : "double",
                                  "defaultValue" : 0.0,
                                  "interp" : "linr"
                                },
                                "name" : "Montserrat",
                                "weight" : "Regular"
                              },
                              "textAttributes" : {
                                "type" : "textAttributeList",
                                "keyframes" : [
                                  {
                                    "endTime" : 0,
                                    "time" : 0,
                                    "value" : [{"name":"fontName","rangeEnd":26,"rangeStart":0,"value":"Montserrat","valueType":"string"},{"name":"kerning","rangeEnd":26,"rangeStart":0,"value":0,"valueType":"double"},{"name":"fontSize","rangeEnd":26,"rangeStart":0,"value":96,"valueType":"double"},{"name":"strikethrough","rangeEnd":26,"rangeStart":0,"value":0,"valueType":"int"},{"name":"underline","rangeEnd":26,"rangeStart":0,"value":0,"valueType":"int"},{"name":"fontWeight","rangeEnd":26,"rangeStart":0,"value":400,"valueType":"int"},{"name":"fontItalic","rangeEnd":26,"rangeStart":0,"value":0,"valueType":"int"},{"name":"fgColor","rangeEnd":26,"rangeStart":0,"value":"(255,255,255,255)","valueType":"color"}],
                                    "duration" : 0
                                  }
                                ]
                              }
                            },
                            "attributes" : {
                              "autoRotateText" : true
                            },
                            "parameters" : {
                              "translation0" : {
                                "type" : "double",
                                "defaultValue" : -579.329713314238,
                                "interp" : "eioe",
                                "keyframes" : [
                                  {
                                    "endTime" : 30,
                                    "time" : 2,
                                    "value" : 699.313143828538,
                                    "duration" : 28
                                  },
                                  {
                                    "endTime" : 180,
                                    "time" : 152,
                                    "value" : -598.615427600048,
                                    "duration" : 28
                                  }
                                ]
                              },
                              "translation1" : {
                                "type" : "double",
                                "defaultValue" : 0.107146671752332,
                                "interp" : "eioe",
                                "keyframes" : [
                                  {
                                    "endTime" : 30,
                                    "time" : 2,
                                    "value" : 0.107146671838336,
                                    "duration" : 28
                                  },
                                  {
                                    "endTime" : 180,
                                    "time" : 152,
                                    "value" : 0.107146671710382,
                                    "duration" : 28
                                  }
                                ]
                              }
                            },
                            "effects" : [
                                {
                                  "effectName" : "DropShadow",
                                  "category" : "categoryVisualEffects",
                                  "parameters" : {
                                    "angle" : {
                                      "type" : "double",
                                      "defaultValue" : 5.49778714378214,
                                      "interp" : "linr",
                                      "valueBounds" : {
                                        "minValue" : 0.0,
                                        "maxValue" : 0.0,
                                        "defaultValue" : 5.49778714378214
                                      },
                                      "uiHints" : {
                                        "userInterfaceType" : 0,
                                        "unitType" : 0
                                      }
                                    },
                                    "blur" : {
                                      "type" : "double",
                                      "defaultValue" : 10.0,
                                      "interp" : "linr",
                                      "valueBounds" : {
                                        "minValue" : 0.0,
                                        "maxValue" : 50.0,
                                        "defaultValue" : 10.0
                                      },
                                      "uiHints" : {
                                        "userInterfaceType" : 0,
                                        "unitType" : 0
                                      },
                                      "keyframes" : [
                                        {
                                          "endTime" : 30,
                                          "time" : 2,
                                          "value" : 10.0,
                                          "duration" : 28
                                        }
                                      ]
                                    },
                                    "color-alpha" : {
                                      "type" : "double",
                                      "defaultValue" : 1.0,
                                      "interp" : "linr",
                                      "valueBounds" : {
                                        "minValue" : 0.0,
                                        "maxValue" : 1.0,
                                        "defaultValue" : 1.0
                                      },
                                      "uiHints" : {
                                        "userInterfaceType" : 0,
                                        "unitType" : 0
                                      }
                                    },
                                    "color-blue" : {
                                      "type" : "double",
                                      "defaultValue" : 0.1216,
                                      "interp" : "linr",
                                      "valueBounds" : {
                                        "minValue" : 0.0,
                                        "maxValue" : 1.0,
                                        "defaultValue" : 0.1216
                                      },
                                      "uiHints" : {
                                        "userInterfaceType" : 0,
                                        "unitType" : 0
                                      }
                                    },
                                    "color-green" : {
                                      "type" : "double",
                                      "defaultValue" : 0.1216,
                                      "interp" : "linr",
                                      "valueBounds" : {
                                        "minValue" : 0.0,
                                        "maxValue" : 1.0,
                                        "defaultValue" : 0.1216
                                      },
                                      "uiHints" : {
                                        "userInterfaceType" : 0,
                                        "unitType" : 0
                                      }
                                    },
                                    "color-red" : {
                                      "type" : "double",
                                      "defaultValue" : 0.1216,
                                      "interp" : "linr",
                                      "valueBounds" : {
                                        "minValue" : 0.0,
                                        "maxValue" : 1.0,
                                        "defaultValue" : 0.1216
                                      },
                                      "uiHints" : {
                                        "userInterfaceType" : 0,
                                        "unitType" : 0
                                      }
                                    },
                                    "enabled" : {
                                      "type" : "int",
                                      "valueBounds" : {
                                        "minValue" : 0,
                                        "maxValue" : 1,
                                        "defaultValue" : 1
                                      },
                                      "uiHints" : {
                                        "userInterfaceType" : 0,
                                        "unitType" : 0
                                      },
                                      "keyframes" : [
                                        {
                                          "endTime" : 0,
                                          "time" : 0,
                                          "value" : 1,
                                          "duration" : 0
                                        }
                                      ]
                                    },
                                    "offset" : {
                                      "type" : "double",
                                      "defaultValue" : 10.0,
                                      "interp" : "linr",
                                      "valueBounds" : {
                                        "minValue" : 0.0,
                                        "maxValue" : 250.0,
                                        "defaultValue" : 10.0
                                      },
                                      "uiHints" : {
                                        "userInterfaceType" : 0,
                                        "unitType" : 0
                                      },
                                      "keyframes" : [
                                        {
                                          "endTime" : 30,
                                          "time" : 2,
                                          "value" : 10.0,
                                          "duration" : 28
                                        }
                                      ]
                                    },
                                    "opacity" : {
                                      "type" : "double",
                                      "defaultValue" : 0.4,
                                      "interp" : "linr",
                                      "valueBounds" : {
                                        "minValue" : 0.0,
                                        "maxValue" : 1.0,
                                        "defaultValue" : 0.4
                                      },
                                      "uiHints" : {
                                        "userInterfaceType" : 0,
                                        "unitType" : 0
                                      }
                                    }
                                  }
                                }
                            ],
                            "start" : 22,
                            "duration" : 180,
                            "mediaStart" : 0,
                            "mediaDuration" : 180,
                            "scalar" : 1,
                            "metadata" : {
                              "WinSubProjectDisplayName" : "",
                              "clipSpeedAttribute" : false,
                              "effectApplied" : "none"
                            },
                            "animationTracks" : {
                              "visual" : [
                                {
                                  "endTime" : 30,
                                  "duration" : 28,
                                  "range" : [ 2, 28],
                                  "interp" : "eioe"
                                },
                                {
                                  "endTime" : 180,
                                  "duration" : 28,
                                  "range" : [ 152, 28]
                                }
                              ]
                            }
                          }
                        ],
                          "ident" : "",
                          "audioMuted" : false,
                          "videoHidden" : false,
                          "magnetic" : false,
                          "matte" : 0,
                          "metadata" : {
                            "IsLocked" : "False",
                            "WinTrackHeight" : "1.35159763105127e-311",
                            "trackHeight" : "48"
                          }
                      }
                    ],
                    "attributes" : {
                      "ident" : "GM-texto2",
                      "gain" : 1.0,
                      "mixToMono" : false,
                      "assetProperties" : [
                        {
                          "type" : 0,
                          "name" : "Title",
                          "objects" : [ 172 ],
                          "themeMappings" :  {
                            "font-color" : "foreground-1",
                            "font-family" : "font-1"
                          }
                        },
                        {
                          "type" : 1,
                          "name" : "Color 1",
                          "objects" : [ 171 ],
                          "themeMappings" :  {
                            "fill" : "background-1"
                          }
                        },
                        {
                          "type" : 1,
                          "name" : "Color 2",
                          "objects" : [ 170 ],
                          "themeMappings" :  {
                            "fill" : "background-2"
                          }
                        },
                        {
                          "type" : 1,
                          "name" : "Color 3",
                          "objects" : [ 169 ],
                          "themeMappings" :  {
                            "fill" : "accent-1"
                          }
                        },
                        {
                          "type" : 1,
                          "name" : "Color 4",
                          "objects" : [ 168 ],
                          "themeMappings" :  {
                            "fill" : "foreground-1"
                          }
                        }
                      ]
                    },
                    "effects" : [

                    ],
                    "start" : 7760,
                    "duration" : 214,
                    "mediaStart" : 0.0,
                    "mediaDuration" : 214.0,
                    "scalar" : 1,
                    "metadata" : {
                      "AppliedThemeId" : "",
                      "IsGroupExpanded" : "False",
                      "WinSubProjectDisplayName" : "",
                      "clipSpeedAttribute" : false,
                      "effectApplied" : "none",
                      "isOpen" : false
                    },
                    "animationTracks" : {

                    }
                  }
                ]
              },
              {
                "trackIndex" : 3,
                "medias" : [
                ]
              }
            ]
          }
        }
      ]
    },
    "trackAttributes" : [
      {
        "ident" : "",
        "audioMuted" : false,
        "videoHidden" : false,
        "magnetic" : false,
        "matte" : 0,
        "metadata" : {
          "IsLocked" : "False",
          "WinTrackHeight" : "56",
          "trackHeight" : "48"
        }
      },
      {
        "ident" : "",
        "audioMuted" : false,
        "videoHidden" : false,
        "magnetic" : false,
        "matte" : 0,
        "metadata" : {
          "IsLocked" : "False",
          "WinTrackHeight" : "56",
          "trackHeight" : "53"
        }
      },
      {
        "ident" : "",
        "audioMuted" : false,
        "videoHidden" : false,
        "magnetic" : false,
        "matte" : 0,
        "metadata" : {
          "IsLocked" : "False",
          "WinTrackHeight" : "56",
          "trackHeight" : "48"
        }
      },
      {
        "ident" : "",
        "audioMuted" : false,
        "videoHidden" : false,
        "magnetic" : false,
        "matte" : 0,
        "metadata" : {
          "IsLocked" : "False",
          "WinTrackHeight" : "56"
        }
      }
    ],
    "captionAttributes" : {
      "enabled" : true,
      "fontName" : "Arial",
      "fontSize" : 42,
      "backgroundColor" : [ 0, 0, 0, 191],
      "foregroundColor" : [ 255, 255, 255, 255],
      "lang" : "en",
      "alignment" : 0,
      "defaultFontSize" : true,
      "opacity" : 0.5,
      "backgroundEnabled" : true,
      "backgroundOnlyAroundText" : true
    },
    "backgroundColor" : [ 0, 0, 0, 255]
  },
  "metadata" : {
    "AutoSaveFile" : "C:\\Users\\ubaldo\\AppData\\Local\\TechSmith\\Camtasia Studio\\19.0\\Auto-Saves\\06-04-00-ValoresDefaultParametros-UP4ef1be5.autosave.tscproj",
    "CanvasZoom" : 100,
    "Date" : "2021-04-06 02:09:11 p. m.",
    "IsAutoSave" : "0",
    "Language" : "ENU",
    "ProfileName" : "",
    "ProjectDimensionsChanged" : "1",
    "Title" : "06-04-ValoresDefaultParametros-UP",
    "audioNarrationNotes" : "",
    "autoSavePath" : "/Users/march/Library/Application Support/TechSmith/Camtasia 2019/AutoSave/C3FCDE50-0089-4C4A-9AA8-F422A8D787F6-388-00000B0B2342C614.tscproj",
    "calloutStyle" : "Basic",
    "canvasDetached" : "False",
    "canvasPositionHeight" : "0",
    "canvasPositionLeft" : "0",
    "canvasPositionTop" : "0",
    "canvasPositionWidth" : "0",
    "firstMedia" : true,
    "hasNotifiedAboutHFRMedia" : false
  }
}
